<mxfile host="app.diagrams.net" agent="Mozilla/5.0 (Windows NT 10.0; Win64; x64) AppleWebKit/537.36 (KHTML, like Gecko) Chrome/135.0.0.0 Safari/537.36" version="26.2.9">
  <diagram id="xj3_XEVX6p52dGllTa57" name="페이지-1">
    <mxGraphModel dx="2433" dy="2521" grid="1" gridSize="10" guides="1" tooltips="1" connect="1" arrows="1" fold="1" page="1" pageScale="1" pageWidth="827" pageHeight="1169" math="0" shadow="0">
      <root>
        <mxCell id="0" />
        <mxCell id="1" parent="0" />
        <mxCell id="VNWk7h2PgLa32eGh_eu3-49" value="" style="rounded=1;whiteSpace=wrap;html=1;" vertex="1" parent="1">
          <mxGeometry x="1260" y="2097" width="780" height="733" as="geometry" />
        </mxCell>
        <mxCell id="VNWk7h2PgLa32eGh_eu3-47" value="" style="rounded=1;whiteSpace=wrap;html=1;" vertex="1" parent="1">
          <mxGeometry x="1450" y="1684" width="500" height="406" as="geometry" />
        </mxCell>
        <mxCell id="5GnrstCmYljinj3V4tNl-2" value="" style="group" parent="1" vertex="1" connectable="0">
          <mxGeometry x="60" y="-660" width="840" height="920" as="geometry" />
        </mxCell>
        <mxCell id="Qmz7ziq61wn19Hz2vlnY-1" value="&lt;span style=&quot;font-size: 20px;&quot;&gt;&lt;b&gt;Admin&lt;/b&gt;&lt;/span&gt;" style="rounded=1;whiteSpace=wrap;html=1;" parent="5GnrstCmYljinj3V4tNl-2" vertex="1">
          <mxGeometry x="40" y="20" width="760" height="40" as="geometry" />
        </mxCell>
        <mxCell id="5GnrstCmYljinj3V4tNl-1" value="" style="swimlane;startSize=0;" parent="5GnrstCmYljinj3V4tNl-2" vertex="1">
          <mxGeometry y="20" width="840" height="690" as="geometry" />
        </mxCell>
        <mxCell id="hSlGgoTsxbMtLhXprtxP-192" value="" style="rounded=1;whiteSpace=wrap;html=1;" parent="5GnrstCmYljinj3V4tNl-1" vertex="1">
          <mxGeometry x="597" y="430" width="200" height="180" as="geometry" />
        </mxCell>
        <mxCell id="hSlGgoTsxbMtLhXprtxP-163" value="" style="edgeStyle=orthogonalEdgeStyle;rounded=0;orthogonalLoop=1;jettySize=auto;html=1;" parent="5GnrstCmYljinj3V4tNl-1" source="Qmz7ziq61wn19Hz2vlnY-5" target="hSlGgoTsxbMtLhXprtxP-159" edge="1">
          <mxGeometry relative="1" as="geometry" />
        </mxCell>
        <mxCell id="Qmz7ziq61wn19Hz2vlnY-5" value="문의사항 카테고리 보기" style="rounded=1;whiteSpace=wrap;html=1;" parent="5GnrstCmYljinj3V4tNl-1" vertex="1">
          <mxGeometry x="50" y="160" width="140" height="40" as="geometry" />
        </mxCell>
        <mxCell id="hSlGgoTsxbMtLhXprtxP-158" value="카테고리별 문의사항&lt;div&gt;상세 보기&lt;/div&gt;" style="rounded=1;whiteSpace=wrap;html=1;" parent="5GnrstCmYljinj3V4tNl-1" vertex="1">
          <mxGeometry x="50" y="220" width="140" height="40" as="geometry" />
        </mxCell>
        <mxCell id="hSlGgoTsxbMtLhXprtxP-159" value="문의사항 대처" style="rounded=1;whiteSpace=wrap;html=1;" parent="5GnrstCmYljinj3V4tNl-1" vertex="1">
          <mxGeometry x="50" y="280" width="140" height="40" as="geometry" />
        </mxCell>
        <mxCell id="hSlGgoTsxbMtLhXprtxP-161" value="이메일 확인" style="rounded=1;whiteSpace=wrap;html=1;" parent="5GnrstCmYljinj3V4tNl-1" vertex="1">
          <mxGeometry x="220" y="160" width="140" height="40" as="geometry" />
        </mxCell>
        <mxCell id="hSlGgoTsxbMtLhXprtxP-175" value="콘텐츠 모니터링" style="rounded=1;whiteSpace=wrap;html=1;" parent="5GnrstCmYljinj3V4tNl-1" vertex="1">
          <mxGeometry x="390" y="80" width="190" height="40" as="geometry" />
        </mxCell>
        <mxCell id="hSlGgoTsxbMtLhXprtxP-176" value="자동 필터링된 콘텐츠 우선 확인&lt;div&gt;&lt;font style=&quot;font-size: 10px;&quot;&gt;(부적절 단어 포함 콘텐츠, 신고 횟수 많은 콘텐츠 등)&lt;/font&gt;&lt;/div&gt;" style="rounded=1;whiteSpace=wrap;html=1;" parent="5GnrstCmYljinj3V4tNl-1" vertex="1">
          <mxGeometry x="390" y="140" width="190" height="60" as="geometry" />
        </mxCell>
        <mxCell id="hSlGgoTsxbMtLhXprtxP-177" value="수동 검열&lt;div&gt;&lt;font style=&quot;font-size: 10px;&quot;&gt;(신고되지 않았지만 조회수가 높은 콘텐츠 등 모니터링)&lt;/font&gt;&lt;/div&gt;" style="rounded=1;whiteSpace=wrap;html=1;" parent="5GnrstCmYljinj3V4tNl-1" vertex="1">
          <mxGeometry x="415" y="220" width="140" height="50" as="geometry" />
        </mxCell>
        <mxCell id="hSlGgoTsxbMtLhXprtxP-183" value="" style="edgeStyle=orthogonalEdgeStyle;rounded=0;orthogonalLoop=1;jettySize=auto;html=1;" parent="5GnrstCmYljinj3V4tNl-1" source="hSlGgoTsxbMtLhXprtxP-178" target="hSlGgoTsxbMtLhXprtxP-180" edge="1">
          <mxGeometry relative="1" as="geometry" />
        </mxCell>
        <mxCell id="hSlGgoTsxbMtLhXprtxP-178" value="불량 사용자 대응" style="rounded=1;whiteSpace=wrap;html=1;" parent="5GnrstCmYljinj3V4tNl-1" vertex="1">
          <mxGeometry x="130" y="370" width="140" height="40" as="geometry" />
        </mxCell>
        <mxCell id="hSlGgoTsxbMtLhXprtxP-179" value="사용자 신고 접수 확인" style="rounded=1;whiteSpace=wrap;html=1;" parent="5GnrstCmYljinj3V4tNl-1" vertex="1">
          <mxGeometry x="137.5" y="440" width="125" height="40" as="geometry" />
        </mxCell>
        <mxCell id="hSlGgoTsxbMtLhXprtxP-184" value="" style="edgeStyle=orthogonalEdgeStyle;rounded=0;orthogonalLoop=1;jettySize=auto;html=1;" parent="5GnrstCmYljinj3V4tNl-1" source="hSlGgoTsxbMtLhXprtxP-180" target="hSlGgoTsxbMtLhXprtxP-182" edge="1">
          <mxGeometry relative="1" as="geometry" />
        </mxCell>
        <mxCell id="hSlGgoTsxbMtLhXprtxP-180" value="기록 검토&lt;div&gt;(작성 콘텐츠, 활동 로그 등)&lt;/div&gt;" style="rounded=1;whiteSpace=wrap;html=1;" parent="5GnrstCmYljinj3V4tNl-1" vertex="1">
          <mxGeometry x="123.75" y="500" width="152.5" height="40" as="geometry" />
        </mxCell>
        <mxCell id="hSlGgoTsxbMtLhXprtxP-181" value="경고 / 일시 정지 / 영구 정지 조치" style="rounded=1;whiteSpace=wrap;html=1;" parent="5GnrstCmYljinj3V4tNl-1" vertex="1">
          <mxGeometry x="110" y="560" width="180" height="40" as="geometry" />
        </mxCell>
        <mxCell id="hSlGgoTsxbMtLhXprtxP-182" value="내부 DB에 불량 사용자 기록 저장" style="rounded=1;whiteSpace=wrap;html=1;" parent="5GnrstCmYljinj3V4tNl-1" vertex="1">
          <mxGeometry x="108.75" y="620" width="182.5" height="40" as="geometry" />
        </mxCell>
        <mxCell id="hSlGgoTsxbMtLhXprtxP-185" value="저작권 문제 대응" style="rounded=1;whiteSpace=wrap;html=1;" parent="5GnrstCmYljinj3V4tNl-1" vertex="1">
          <mxGeometry x="600" y="80" width="190" height="40" as="geometry" />
        </mxCell>
        <mxCell id="hSlGgoTsxbMtLhXprtxP-194" value="" style="edgeStyle=orthogonalEdgeStyle;rounded=0;orthogonalLoop=1;jettySize=auto;html=1;" parent="5GnrstCmYljinj3V4tNl-1" source="hSlGgoTsxbMtLhXprtxP-186" target="hSlGgoTsxbMtLhXprtxP-189" edge="1">
          <mxGeometry relative="1" as="geometry" />
        </mxCell>
        <mxCell id="hSlGgoTsxbMtLhXprtxP-186" value="외부 제보 또는 자동 감지(향후 도입)" style="rounded=1;whiteSpace=wrap;html=1;" parent="5GnrstCmYljinj3V4tNl-1" vertex="1">
          <mxGeometry x="625" y="140" width="140" height="40" as="geometry" />
        </mxCell>
        <mxCell id="hSlGgoTsxbMtLhXprtxP-187" value="표절 의심 콘텐츠 확인" style="rounded=1;whiteSpace=wrap;html=1;" parent="5GnrstCmYljinj3V4tNl-1" vertex="1">
          <mxGeometry x="625" y="200" width="140" height="40" as="geometry" />
        </mxCell>
        <mxCell id="hSlGgoTsxbMtLhXprtxP-193" value="" style="edgeStyle=orthogonalEdgeStyle;rounded=0;orthogonalLoop=1;jettySize=auto;html=1;" parent="5GnrstCmYljinj3V4tNl-1" source="hSlGgoTsxbMtLhXprtxP-188" target="hSlGgoTsxbMtLhXprtxP-191" edge="1">
          <mxGeometry relative="1" as="geometry" />
        </mxCell>
        <mxCell id="hSlGgoTsxbMtLhXprtxP-188" value="콘텐츠 임시 비공개 조치" style="rounded=1;whiteSpace=wrap;html=1;" parent="5GnrstCmYljinj3V4tNl-1" vertex="1">
          <mxGeometry x="627" y="440" width="140" height="40" as="geometry" />
        </mxCell>
        <mxCell id="hSlGgoTsxbMtLhXprtxP-189" value="원작 여부 검토" style="rounded=1;whiteSpace=wrap;html=1;" parent="5GnrstCmYljinj3V4tNl-1" vertex="1">
          <mxGeometry x="625" y="260" width="140" height="40" as="geometry" />
        </mxCell>
        <mxCell id="hSlGgoTsxbMtLhXprtxP-190" value="저작권자 확인" style="rounded=1;whiteSpace=wrap;html=1;" parent="5GnrstCmYljinj3V4tNl-1" vertex="1">
          <mxGeometry x="627" y="500" width="140" height="40" as="geometry" />
        </mxCell>
        <mxCell id="hSlGgoTsxbMtLhXprtxP-191" value="조치 결정" style="rounded=1;whiteSpace=wrap;html=1;" parent="5GnrstCmYljinj3V4tNl-1" vertex="1">
          <mxGeometry x="627" y="560" width="140" height="40" as="geometry" />
        </mxCell>
        <mxCell id="Qmz7ziq61wn19Hz2vlnY-2" value="컴플레인 확인" style="rounded=1;whiteSpace=wrap;html=1;" parent="5GnrstCmYljinj3V4tNl-1" vertex="1">
          <mxGeometry x="40" y="80" width="340" height="40" as="geometry" />
        </mxCell>
        <mxCell id="hSlGgoTsxbMtLhXprtxP-165" value="" style="endArrow=classic;html=1;rounded=0;entryX=1;entryY=0.5;entryDx=0;entryDy=0;exitX=0.496;exitY=0.921;exitDx=0;exitDy=0;exitPerimeter=0;" parent="5GnrstCmYljinj3V4tNl-1" source="hSlGgoTsxbMtLhXprtxP-161" target="hSlGgoTsxbMtLhXprtxP-159" edge="1">
          <mxGeometry width="50" height="50" relative="1" as="geometry">
            <mxPoint x="280" y="230" as="sourcePoint" />
            <mxPoint x="440" y="230" as="targetPoint" />
            <Array as="points">
              <mxPoint x="290" y="250" />
              <mxPoint x="290" y="300" />
            </Array>
          </mxGeometry>
        </mxCell>
        <mxCell id="xKEsdZFjPjx4q3_HCsAW-1" value="원작 여부 검토" style="rounded=1;whiteSpace=wrap;html=1;" parent="5GnrstCmYljinj3V4tNl-1" vertex="1">
          <mxGeometry x="625" y="320" width="140" height="40" as="geometry" />
        </mxCell>
        <mxCell id="PHQjt_mbX_T825lqGQB6-51" value="&lt;font style=&quot;font-size: 20px;&quot;&gt;&lt;b style=&quot;&quot;&gt;USER&lt;/b&gt;&lt;/font&gt;" style="rounded=1;whiteSpace=wrap;html=1;" parent="1" vertex="1">
          <mxGeometry x="1080" y="660" width="920" height="40" as="geometry" />
        </mxCell>
        <mxCell id="PHQjt_mbX_T825lqGQB6-52" value="이야기 목록" style="rounded=1;whiteSpace=wrap;html=1;" parent="1" vertex="1">
          <mxGeometry x="1080" y="720" width="280" height="40" as="geometry" />
        </mxCell>
        <mxCell id="PHQjt_mbX_T825lqGQB6-53" value="" style="edgeStyle=orthogonalEdgeStyle;rounded=0;orthogonalLoop=1;jettySize=auto;html=1;fontSize=12;startSize=8;endSize=8;entryX=0.5;entryY=0;entryDx=0;entryDy=0;" parent="1" source="PHQjt_mbX_T825lqGQB6-54" target="PHQjt_mbX_T825lqGQB6-76" edge="1">
          <mxGeometry relative="1" as="geometry" />
        </mxCell>
        <mxCell id="PHQjt_mbX_T825lqGQB6-54" value="이야기 생성" style="rounded=1;whiteSpace=wrap;html=1;" parent="1" vertex="1">
          <mxGeometry x="1400" y="720" width="280" height="40" as="geometry" />
        </mxCell>
        <mxCell id="PHQjt_mbX_T825lqGQB6-55" value="" style="edgeStyle=orthogonalEdgeStyle;rounded=0;orthogonalLoop=1;jettySize=auto;html=1;" parent="1" source="PHQjt_mbX_T825lqGQB6-57" target="PHQjt_mbX_T825lqGQB6-69" edge="1">
          <mxGeometry relative="1" as="geometry" />
        </mxCell>
        <mxCell id="PHQjt_mbX_T825lqGQB6-56" value="" style="edgeStyle=orthogonalEdgeStyle;rounded=0;orthogonalLoop=1;jettySize=auto;html=1;entryX=0.5;entryY=0;entryDx=0;entryDy=0;" parent="1" source="PHQjt_mbX_T825lqGQB6-57" target="PHQjt_mbX_T825lqGQB6-68" edge="1">
          <mxGeometry relative="1" as="geometry" />
        </mxCell>
        <mxCell id="PHQjt_mbX_T825lqGQB6-57" value="내 서재 확인" style="rounded=1;whiteSpace=wrap;html=1;" parent="1" vertex="1">
          <mxGeometry x="1720" y="720" width="280" height="40" as="geometry" />
        </mxCell>
        <mxCell id="PHQjt_mbX_T825lqGQB6-58" style="edgeStyle=none;curved=1;rounded=0;orthogonalLoop=1;jettySize=auto;html=1;exitX=0.5;exitY=1;exitDx=0;exitDy=0;entryX=0.5;entryY=0;entryDx=0;entryDy=0;fontSize=12;startSize=8;endSize=8;" parent="1" source="PHQjt_mbX_T825lqGQB6-59" target="PHQjt_mbX_T825lqGQB6-80" edge="1">
          <mxGeometry relative="1" as="geometry" />
        </mxCell>
        <mxCell id="PHQjt_mbX_T825lqGQB6-59" value="카테고리 선택&lt;br&gt;(연령, 태그)" style="rounded=1;whiteSpace=wrap;html=1;" parent="1" vertex="1">
          <mxGeometry x="1080" y="800" width="120" height="40" as="geometry" />
        </mxCell>
        <mxCell id="PHQjt_mbX_T825lqGQB6-60" value="" style="edgeStyle=none;curved=1;rounded=0;orthogonalLoop=1;jettySize=auto;html=1;fontSize=12;startSize=8;endSize=8;entryX=0.5;entryY=0;entryDx=0;entryDy=0;" parent="1" source="PHQjt_mbX_T825lqGQB6-61" target="PHQjt_mbX_T825lqGQB6-82" edge="1">
          <mxGeometry relative="1" as="geometry">
            <mxPoint x="1300" y="950" as="targetPoint" />
          </mxGeometry>
        </mxCell>
        <mxCell id="PHQjt_mbX_T825lqGQB6-61" value="이야기 선택" style="rounded=1;whiteSpace=wrap;html=1;" parent="1" vertex="1">
          <mxGeometry x="1240" y="800" width="120" height="40" as="geometry" />
        </mxCell>
        <mxCell id="PHQjt_mbX_T825lqGQB6-62" value="" style="edgeStyle=none;curved=1;rounded=0;orthogonalLoop=1;jettySize=auto;html=1;fontSize=12;startSize=8;endSize=8;entryX=0.5;entryY=0;entryDx=0;entryDy=0;" parent="1" source="PHQjt_mbX_T825lqGQB6-63" target="PHQjt_mbX_T825lqGQB6-65" edge="1">
          <mxGeometry relative="1" as="geometry" />
        </mxCell>
        <mxCell id="PHQjt_mbX_T825lqGQB6-63" value="이미지 생성" style="rounded=1;whiteSpace=wrap;html=1;" parent="1" vertex="1">
          <mxGeometry x="1480" y="940" width="120" height="40" as="geometry" />
        </mxCell>
        <mxCell id="PHQjt_mbX_T825lqGQB6-64" style="edgeStyle=none;curved=1;rounded=0;orthogonalLoop=1;jettySize=auto;html=1;exitX=0.5;exitY=1;exitDx=0;exitDy=0;entryX=0.5;entryY=0;entryDx=0;entryDy=0;fontSize=12;startSize=8;endSize=8;" parent="1" source="PHQjt_mbX_T825lqGQB6-65" target="PHQjt_mbX_T825lqGQB6-66" edge="1">
          <mxGeometry relative="1" as="geometry" />
        </mxCell>
        <mxCell id="PHQjt_mbX_T825lqGQB6-65" value="이야기 공유 선택" style="rounded=1;whiteSpace=wrap;html=1;" parent="1" vertex="1">
          <mxGeometry x="1480" y="1000" width="120" height="40" as="geometry" />
        </mxCell>
        <mxCell id="PHQjt_mbX_T825lqGQB6-66" value="이야기 보기" style="rounded=1;whiteSpace=wrap;html=1;" parent="1" vertex="1">
          <mxGeometry x="1480" y="1060" width="120" height="40" as="geometry" />
        </mxCell>
        <mxCell id="PHQjt_mbX_T825lqGQB6-67" style="edgeStyle=none;curved=1;rounded=0;orthogonalLoop=1;jettySize=auto;html=1;exitX=0.5;exitY=1;exitDx=0;exitDy=0;entryX=0.5;entryY=0;entryDx=0;entryDy=0;fontSize=12;startSize=8;endSize=8;" parent="1" source="PHQjt_mbX_T825lqGQB6-68" target="PHQjt_mbX_T825lqGQB6-70" edge="1">
          <mxGeometry relative="1" as="geometry" />
        </mxCell>
        <mxCell id="PHQjt_mbX_T825lqGQB6-68" value="생성된 이야기&lt;div&gt;목록 조회&lt;/div&gt;" style="rounded=1;whiteSpace=wrap;html=1;" parent="1" vertex="1">
          <mxGeometry x="1720" y="800" width="120" height="40" as="geometry" />
        </mxCell>
        <mxCell id="PHQjt_mbX_T825lqGQB6-69" value="내 목소리 학습" style="rounded=1;whiteSpace=wrap;html=1;" parent="1" vertex="1">
          <mxGeometry x="1880" y="800" width="120" height="40" as="geometry" />
        </mxCell>
        <mxCell id="PHQjt_mbX_T825lqGQB6-70" value="이야기 검색" style="rounded=1;whiteSpace=wrap;html=1;" parent="1" vertex="1">
          <mxGeometry x="1720" y="860" width="120" height="40" as="geometry" />
        </mxCell>
        <mxCell id="PHQjt_mbX_T825lqGQB6-71" value="이야기 보기" style="rounded=1;whiteSpace=wrap;html=1;" parent="1" vertex="1">
          <mxGeometry x="1720" y="920" width="120" height="40" as="geometry" />
        </mxCell>
        <mxCell id="PHQjt_mbX_T825lqGQB6-72" value="이야기 삭제" style="rounded=1;whiteSpace=wrap;html=1;" parent="1" vertex="1">
          <mxGeometry x="1720" y="980" width="120" height="40" as="geometry" />
        </mxCell>
        <mxCell id="PHQjt_mbX_T825lqGQB6-73" value="" style="edgeStyle=orthogonalEdgeStyle;rounded=0;orthogonalLoop=1;jettySize=auto;html=1;fontSize=12;startSize=8;endSize=8;entryX=0.5;entryY=0;entryDx=0;entryDy=0;" parent="1" source="PHQjt_mbX_T825lqGQB6-74" target="PHQjt_mbX_T825lqGQB6-63" edge="1">
          <mxGeometry relative="1" as="geometry">
            <Array as="points">
              <mxPoint x="1460" y="920" />
              <mxPoint x="1540" y="920" />
            </Array>
          </mxGeometry>
        </mxCell>
        <mxCell id="PHQjt_mbX_T825lqGQB6-74" value="직접 작성" style="rounded=1;whiteSpace=wrap;html=1;" parent="1" vertex="1">
          <mxGeometry x="1400" y="800" width="120" height="40" as="geometry" />
        </mxCell>
        <mxCell id="PHQjt_mbX_T825lqGQB6-75" value="" style="edgeStyle=none;curved=1;rounded=0;orthogonalLoop=1;jettySize=auto;html=1;fontSize=12;startSize=8;endSize=8;entryX=0.5;entryY=0;entryDx=0;entryDy=0;" parent="1" source="PHQjt_mbX_T825lqGQB6-76" target="PHQjt_mbX_T825lqGQB6-86" edge="1">
          <mxGeometry relative="1" as="geometry" />
        </mxCell>
        <mxCell id="PHQjt_mbX_T825lqGQB6-76" value="AI 도움 작성" style="rounded=1;whiteSpace=wrap;html=1;" parent="1" vertex="1">
          <mxGeometry x="1560" y="800" width="120" height="40" as="geometry" />
        </mxCell>
        <mxCell id="PHQjt_mbX_T825lqGQB6-77" value="" style="edgeStyle=orthogonalEdgeStyle;rounded=0;orthogonalLoop=1;jettySize=auto;html=1;fontSize=12;startSize=8;endSize=8;entryX=0.5;entryY=0;entryDx=0;entryDy=0;exitX=0.5;exitY=1;exitDx=0;exitDy=0;" parent="1" source="PHQjt_mbX_T825lqGQB6-54" target="PHQjt_mbX_T825lqGQB6-74" edge="1">
          <mxGeometry relative="1" as="geometry">
            <mxPoint x="1550" y="770" as="sourcePoint" />
            <mxPoint x="1630" y="810" as="targetPoint" />
          </mxGeometry>
        </mxCell>
        <mxCell id="PHQjt_mbX_T825lqGQB6-78" value="" style="edgeStyle=orthogonalEdgeStyle;rounded=0;orthogonalLoop=1;jettySize=auto;html=1;fontSize=12;startSize=8;endSize=8;entryX=0.5;entryY=0;entryDx=0;entryDy=0;exitX=0.5;exitY=1;exitDx=0;exitDy=0;" parent="1" source="PHQjt_mbX_T825lqGQB6-52" target="PHQjt_mbX_T825lqGQB6-59" edge="1">
          <mxGeometry relative="1" as="geometry">
            <mxPoint x="1550" y="770" as="sourcePoint" />
            <mxPoint x="1470" y="810" as="targetPoint" />
          </mxGeometry>
        </mxCell>
        <mxCell id="PHQjt_mbX_T825lqGQB6-79" value="" style="edgeStyle=orthogonalEdgeStyle;rounded=0;orthogonalLoop=1;jettySize=auto;html=1;fontSize=12;startSize=8;endSize=8;exitX=0.5;exitY=1;exitDx=0;exitDy=0;" parent="1" source="PHQjt_mbX_T825lqGQB6-52" target="PHQjt_mbX_T825lqGQB6-61" edge="1">
          <mxGeometry relative="1" as="geometry">
            <mxPoint x="1230" y="890" as="sourcePoint" />
            <mxPoint x="1150" y="810" as="targetPoint" />
          </mxGeometry>
        </mxCell>
        <mxCell id="PHQjt_mbX_T825lqGQB6-80" value="필터링된 목록 조회" style="rounded=1;whiteSpace=wrap;html=1;" parent="1" vertex="1">
          <mxGeometry x="1080" y="860" width="120" height="40" as="geometry" />
        </mxCell>
        <mxCell id="PHQjt_mbX_T825lqGQB6-81" style="edgeStyle=none;curved=1;rounded=0;orthogonalLoop=1;jettySize=auto;html=1;exitX=0.5;exitY=1;exitDx=0;exitDy=0;entryX=0.5;entryY=0;entryDx=0;entryDy=0;fontSize=12;startSize=8;endSize=8;" parent="1" source="PHQjt_mbX_T825lqGQB6-82" target="PHQjt_mbX_T825lqGQB6-83" edge="1">
          <mxGeometry relative="1" as="geometry" />
        </mxCell>
        <mxCell id="PHQjt_mbX_T825lqGQB6-82" value="이야기 보기" style="rounded=1;whiteSpace=wrap;html=1;" parent="1" vertex="1">
          <mxGeometry x="1240" y="860" width="120" height="40" as="geometry" />
        </mxCell>
        <mxCell id="PHQjt_mbX_T825lqGQB6-83" value="읽기" style="rounded=1;whiteSpace=wrap;html=1;" parent="1" vertex="1">
          <mxGeometry x="1240" y="920" width="120" height="40" as="geometry" />
        </mxCell>
        <mxCell id="PHQjt_mbX_T825lqGQB6-84" value="TTS 듣기" style="rounded=1;whiteSpace=wrap;html=1;" parent="1" vertex="1">
          <mxGeometry x="1240" y="980" width="120" height="40" as="geometry" />
        </mxCell>
        <mxCell id="PHQjt_mbX_T825lqGQB6-85" value="" style="edgeStyle=orthogonalEdgeStyle;rounded=0;orthogonalLoop=1;jettySize=auto;html=1;fontSize=12;startSize=8;endSize=8;entryX=0.5;entryY=0;entryDx=0;entryDy=0;" parent="1" source="PHQjt_mbX_T825lqGQB6-86" target="PHQjt_mbX_T825lqGQB6-63" edge="1">
          <mxGeometry relative="1" as="geometry" />
        </mxCell>
        <mxCell id="PHQjt_mbX_T825lqGQB6-86" value="주제 입력/태그 선택" style="rounded=1;whiteSpace=wrap;html=1;" parent="1" vertex="1">
          <mxGeometry x="1560" y="860" width="120" height="40" as="geometry" />
        </mxCell>
        <mxCell id="PHQjt_mbX_T825lqGQB6-88" value="" style="group" parent="1" vertex="1" connectable="0">
          <mxGeometry y="600" width="1000" height="560" as="geometry" />
        </mxCell>
        <mxCell id="PHQjt_mbX_T825lqGQB6-2" value="&lt;font style=&quot;font-size: 20px;&quot;&gt;&lt;b style=&quot;&quot;&gt;USER&lt;/b&gt;&lt;/font&gt;" style="rounded=1;whiteSpace=wrap;html=1;" parent="PHQjt_mbX_T825lqGQB6-88" vertex="1">
          <mxGeometry x="40" y="60" width="920" height="40" as="geometry" />
        </mxCell>
        <mxCell id="PHQjt_mbX_T825lqGQB6-3" value="이야기 목록" style="rounded=1;whiteSpace=wrap;html=1;" parent="PHQjt_mbX_T825lqGQB6-88" vertex="1">
          <mxGeometry x="40" y="120" width="280" height="40" as="geometry" />
        </mxCell>
        <mxCell id="PHQjt_mbX_T825lqGQB6-25" value="" style="edgeStyle=orthogonalEdgeStyle;rounded=0;orthogonalLoop=1;jettySize=auto;html=1;fontSize=12;startSize=8;endSize=8;entryX=0.5;entryY=0;entryDx=0;entryDy=0;" parent="PHQjt_mbX_T825lqGQB6-88" source="PHQjt_mbX_T825lqGQB6-5" target="PHQjt_mbX_T825lqGQB6-22" edge="1">
          <mxGeometry relative="1" as="geometry" />
        </mxCell>
        <mxCell id="PHQjt_mbX_T825lqGQB6-5" value="이야기 생성" style="rounded=1;whiteSpace=wrap;html=1;" parent="PHQjt_mbX_T825lqGQB6-88" vertex="1">
          <mxGeometry x="360" y="120" width="280" height="40" as="geometry" />
        </mxCell>
        <mxCell id="PHQjt_mbX_T825lqGQB6-6" value="" style="edgeStyle=orthogonalEdgeStyle;rounded=0;orthogonalLoop=1;jettySize=auto;html=1;" parent="PHQjt_mbX_T825lqGQB6-88" source="PHQjt_mbX_T825lqGQB6-8" target="PHQjt_mbX_T825lqGQB6-15" edge="1">
          <mxGeometry relative="1" as="geometry" />
        </mxCell>
        <mxCell id="PHQjt_mbX_T825lqGQB6-7" value="" style="edgeStyle=orthogonalEdgeStyle;rounded=0;orthogonalLoop=1;jettySize=auto;html=1;entryX=0.5;entryY=0;entryDx=0;entryDy=0;" parent="PHQjt_mbX_T825lqGQB6-88" source="PHQjt_mbX_T825lqGQB6-8" target="PHQjt_mbX_T825lqGQB6-14" edge="1">
          <mxGeometry relative="1" as="geometry" />
        </mxCell>
        <mxCell id="PHQjt_mbX_T825lqGQB6-8" value="내 서재 확인" style="rounded=1;whiteSpace=wrap;html=1;" parent="PHQjt_mbX_T825lqGQB6-88" vertex="1">
          <mxGeometry x="680" y="120" width="280" height="40" as="geometry" />
        </mxCell>
        <mxCell id="PHQjt_mbX_T825lqGQB6-38" style="edgeStyle=none;curved=1;rounded=0;orthogonalLoop=1;jettySize=auto;html=1;exitX=0.5;exitY=1;exitDx=0;exitDy=0;entryX=0.5;entryY=0;entryDx=0;entryDy=0;fontSize=12;startSize=8;endSize=8;" parent="PHQjt_mbX_T825lqGQB6-88" source="PHQjt_mbX_T825lqGQB6-9" target="PHQjt_mbX_T825lqGQB6-31" edge="1">
          <mxGeometry relative="1" as="geometry" />
        </mxCell>
        <mxCell id="PHQjt_mbX_T825lqGQB6-9" value="카테고리 선택&lt;br&gt;(연령, 태그)" style="rounded=1;whiteSpace=wrap;html=1;" parent="PHQjt_mbX_T825lqGQB6-88" vertex="1">
          <mxGeometry x="40" y="200" width="120" height="40" as="geometry" />
        </mxCell>
        <mxCell id="PHQjt_mbX_T825lqGQB6-35" value="" style="edgeStyle=none;curved=1;rounded=0;orthogonalLoop=1;jettySize=auto;html=1;fontSize=12;startSize=8;endSize=8;entryX=0.5;entryY=0;entryDx=0;entryDy=0;" parent="PHQjt_mbX_T825lqGQB6-88" source="PHQjt_mbX_T825lqGQB6-10" target="PHQjt_mbX_T825lqGQB6-32" edge="1">
          <mxGeometry relative="1" as="geometry">
            <mxPoint x="260" y="350" as="targetPoint" />
          </mxGeometry>
        </mxCell>
        <mxCell id="PHQjt_mbX_T825lqGQB6-10" value="이야기 선택" style="rounded=1;whiteSpace=wrap;html=1;" parent="PHQjt_mbX_T825lqGQB6-88" vertex="1">
          <mxGeometry x="200" y="200" width="120" height="40" as="geometry" />
        </mxCell>
        <mxCell id="PHQjt_mbX_T825lqGQB6-41" value="" style="edgeStyle=none;curved=1;rounded=0;orthogonalLoop=1;jettySize=auto;html=1;fontSize=12;startSize=8;endSize=8;entryX=0.5;entryY=0;entryDx=0;entryDy=0;" parent="PHQjt_mbX_T825lqGQB6-88" source="PHQjt_mbX_T825lqGQB6-11" target="PHQjt_mbX_T825lqGQB6-12" edge="1">
          <mxGeometry relative="1" as="geometry" />
        </mxCell>
        <mxCell id="PHQjt_mbX_T825lqGQB6-11" value="이미지 생성" style="rounded=1;whiteSpace=wrap;html=1;" parent="PHQjt_mbX_T825lqGQB6-88" vertex="1">
          <mxGeometry x="440" y="340" width="120" height="40" as="geometry" />
        </mxCell>
        <mxCell id="PHQjt_mbX_T825lqGQB6-42" style="edgeStyle=none;curved=1;rounded=0;orthogonalLoop=1;jettySize=auto;html=1;exitX=0.5;exitY=1;exitDx=0;exitDy=0;entryX=0.5;entryY=0;entryDx=0;entryDy=0;fontSize=12;startSize=8;endSize=8;" parent="PHQjt_mbX_T825lqGQB6-88" source="PHQjt_mbX_T825lqGQB6-12" target="PHQjt_mbX_T825lqGQB6-13" edge="1">
          <mxGeometry relative="1" as="geometry" />
        </mxCell>
        <mxCell id="PHQjt_mbX_T825lqGQB6-12" value="이야기 공유 선택" style="rounded=1;whiteSpace=wrap;html=1;" parent="PHQjt_mbX_T825lqGQB6-88" vertex="1">
          <mxGeometry x="440" y="400" width="120" height="40" as="geometry" />
        </mxCell>
        <mxCell id="PHQjt_mbX_T825lqGQB6-13" value="이야기 보기" style="rounded=1;whiteSpace=wrap;html=1;" parent="PHQjt_mbX_T825lqGQB6-88" vertex="1">
          <mxGeometry x="440" y="460" width="120" height="40" as="geometry" />
        </mxCell>
        <mxCell id="PHQjt_mbX_T825lqGQB6-48" style="edgeStyle=none;curved=1;rounded=0;orthogonalLoop=1;jettySize=auto;html=1;exitX=0.5;exitY=1;exitDx=0;exitDy=0;entryX=0.5;entryY=0;entryDx=0;entryDy=0;fontSize=12;startSize=8;endSize=8;" parent="PHQjt_mbX_T825lqGQB6-88" source="PHQjt_mbX_T825lqGQB6-14" target="PHQjt_mbX_T825lqGQB6-16" edge="1">
          <mxGeometry relative="1" as="geometry" />
        </mxCell>
        <mxCell id="PHQjt_mbX_T825lqGQB6-14" value="생성된 이야기&lt;div&gt;목록 조회&lt;/div&gt;" style="rounded=1;whiteSpace=wrap;html=1;" parent="PHQjt_mbX_T825lqGQB6-88" vertex="1">
          <mxGeometry x="680" y="200" width="120" height="40" as="geometry" />
        </mxCell>
        <mxCell id="PHQjt_mbX_T825lqGQB6-15" value="내 목소리 학습" style="rounded=1;whiteSpace=wrap;html=1;" parent="PHQjt_mbX_T825lqGQB6-88" vertex="1">
          <mxGeometry x="840" y="200" width="120" height="40" as="geometry" />
        </mxCell>
        <mxCell id="PHQjt_mbX_T825lqGQB6-16" value="이야기 검색" style="rounded=1;whiteSpace=wrap;html=1;" parent="PHQjt_mbX_T825lqGQB6-88" vertex="1">
          <mxGeometry x="680" y="260" width="120" height="40" as="geometry" />
        </mxCell>
        <mxCell id="PHQjt_mbX_T825lqGQB6-17" value="이야기 보기" style="rounded=1;whiteSpace=wrap;html=1;" parent="PHQjt_mbX_T825lqGQB6-88" vertex="1">
          <mxGeometry x="680" y="320" width="120" height="40" as="geometry" />
        </mxCell>
        <mxCell id="PHQjt_mbX_T825lqGQB6-18" value="이야기 삭제" style="rounded=1;whiteSpace=wrap;html=1;" parent="PHQjt_mbX_T825lqGQB6-88" vertex="1">
          <mxGeometry x="680" y="380" width="120" height="40" as="geometry" />
        </mxCell>
        <mxCell id="PHQjt_mbX_T825lqGQB6-46" value="" style="edgeStyle=orthogonalEdgeStyle;rounded=0;orthogonalLoop=1;jettySize=auto;html=1;fontSize=12;startSize=8;endSize=8;entryX=0.5;entryY=0;entryDx=0;entryDy=0;" parent="PHQjt_mbX_T825lqGQB6-88" source="PHQjt_mbX_T825lqGQB6-21" target="PHQjt_mbX_T825lqGQB6-11" edge="1">
          <mxGeometry relative="1" as="geometry">
            <Array as="points">
              <mxPoint x="420" y="320" />
              <mxPoint x="500" y="320" />
            </Array>
          </mxGeometry>
        </mxCell>
        <mxCell id="PHQjt_mbX_T825lqGQB6-21" value="직접 작성" style="rounded=1;whiteSpace=wrap;html=1;" parent="PHQjt_mbX_T825lqGQB6-88" vertex="1">
          <mxGeometry x="360" y="200" width="120" height="40" as="geometry" />
        </mxCell>
        <mxCell id="PHQjt_mbX_T825lqGQB6-47" value="" style="edgeStyle=none;curved=1;rounded=0;orthogonalLoop=1;jettySize=auto;html=1;fontSize=12;startSize=8;endSize=8;entryX=0.5;entryY=0;entryDx=0;entryDy=0;" parent="PHQjt_mbX_T825lqGQB6-88" source="PHQjt_mbX_T825lqGQB6-22" target="PHQjt_mbX_T825lqGQB6-44" edge="1">
          <mxGeometry relative="1" as="geometry" />
        </mxCell>
        <mxCell id="PHQjt_mbX_T825lqGQB6-22" value="AI 도움 작성" style="rounded=1;whiteSpace=wrap;html=1;" parent="PHQjt_mbX_T825lqGQB6-88" vertex="1">
          <mxGeometry x="520" y="200" width="120" height="40" as="geometry" />
        </mxCell>
        <mxCell id="PHQjt_mbX_T825lqGQB6-26" value="" style="edgeStyle=orthogonalEdgeStyle;rounded=0;orthogonalLoop=1;jettySize=auto;html=1;fontSize=12;startSize=8;endSize=8;entryX=0.5;entryY=0;entryDx=0;entryDy=0;exitX=0.5;exitY=1;exitDx=0;exitDy=0;" parent="PHQjt_mbX_T825lqGQB6-88" source="PHQjt_mbX_T825lqGQB6-5" target="PHQjt_mbX_T825lqGQB6-21" edge="1">
          <mxGeometry relative="1" as="geometry">
            <mxPoint x="510" y="170" as="sourcePoint" />
            <mxPoint x="590" y="210" as="targetPoint" />
          </mxGeometry>
        </mxCell>
        <mxCell id="PHQjt_mbX_T825lqGQB6-29" value="" style="edgeStyle=orthogonalEdgeStyle;rounded=0;orthogonalLoop=1;jettySize=auto;html=1;fontSize=12;startSize=8;endSize=8;entryX=0.5;entryY=0;entryDx=0;entryDy=0;exitX=0.5;exitY=1;exitDx=0;exitDy=0;" parent="PHQjt_mbX_T825lqGQB6-88" source="PHQjt_mbX_T825lqGQB6-3" target="PHQjt_mbX_T825lqGQB6-9" edge="1">
          <mxGeometry relative="1" as="geometry">
            <mxPoint x="510" y="170" as="sourcePoint" />
            <mxPoint x="430" y="210" as="targetPoint" />
          </mxGeometry>
        </mxCell>
        <mxCell id="PHQjt_mbX_T825lqGQB6-30" value="" style="edgeStyle=orthogonalEdgeStyle;rounded=0;orthogonalLoop=1;jettySize=auto;html=1;fontSize=12;startSize=8;endSize=8;exitX=0.5;exitY=1;exitDx=0;exitDy=0;" parent="PHQjt_mbX_T825lqGQB6-88" source="PHQjt_mbX_T825lqGQB6-3" target="PHQjt_mbX_T825lqGQB6-10" edge="1">
          <mxGeometry relative="1" as="geometry">
            <mxPoint x="190" y="290" as="sourcePoint" />
            <mxPoint x="110" y="210" as="targetPoint" />
          </mxGeometry>
        </mxCell>
        <mxCell id="PHQjt_mbX_T825lqGQB6-31" value="필터링된 목록 조회" style="rounded=1;whiteSpace=wrap;html=1;" parent="PHQjt_mbX_T825lqGQB6-88" vertex="1">
          <mxGeometry x="40" y="260" width="120" height="40" as="geometry" />
        </mxCell>
        <mxCell id="PHQjt_mbX_T825lqGQB6-43" style="edgeStyle=none;curved=1;rounded=0;orthogonalLoop=1;jettySize=auto;html=1;exitX=0.5;exitY=1;exitDx=0;exitDy=0;entryX=0.5;entryY=0;entryDx=0;entryDy=0;fontSize=12;startSize=8;endSize=8;" parent="PHQjt_mbX_T825lqGQB6-88" source="PHQjt_mbX_T825lqGQB6-32" target="PHQjt_mbX_T825lqGQB6-36" edge="1">
          <mxGeometry relative="1" as="geometry" />
        </mxCell>
        <mxCell id="PHQjt_mbX_T825lqGQB6-32" value="이야기 보기" style="rounded=1;whiteSpace=wrap;html=1;" parent="PHQjt_mbX_T825lqGQB6-88" vertex="1">
          <mxGeometry x="200" y="260" width="120" height="40" as="geometry" />
        </mxCell>
        <mxCell id="PHQjt_mbX_T825lqGQB6-36" value="읽기" style="rounded=1;whiteSpace=wrap;html=1;" parent="PHQjt_mbX_T825lqGQB6-88" vertex="1">
          <mxGeometry x="200" y="320" width="120" height="40" as="geometry" />
        </mxCell>
        <mxCell id="PHQjt_mbX_T825lqGQB6-37" value="TTS 듣기" style="rounded=1;whiteSpace=wrap;html=1;" parent="PHQjt_mbX_T825lqGQB6-88" vertex="1">
          <mxGeometry x="200" y="380" width="120" height="40" as="geometry" />
        </mxCell>
        <mxCell id="PHQjt_mbX_T825lqGQB6-45" value="" style="edgeStyle=orthogonalEdgeStyle;rounded=0;orthogonalLoop=1;jettySize=auto;html=1;fontSize=12;startSize=8;endSize=8;entryX=0.5;entryY=0;entryDx=0;entryDy=0;" parent="PHQjt_mbX_T825lqGQB6-88" source="PHQjt_mbX_T825lqGQB6-44" target="PHQjt_mbX_T825lqGQB6-11" edge="1">
          <mxGeometry relative="1" as="geometry" />
        </mxCell>
        <mxCell id="PHQjt_mbX_T825lqGQB6-44" value="주제 입력/태그 선택" style="rounded=1;whiteSpace=wrap;html=1;" parent="PHQjt_mbX_T825lqGQB6-88" vertex="1">
          <mxGeometry x="520" y="260" width="120" height="40" as="geometry" />
        </mxCell>
        <mxCell id="PHQjt_mbX_T825lqGQB6-87" value="" style="swimlane;startSize=0;" parent="PHQjt_mbX_T825lqGQB6-88" vertex="1">
          <mxGeometry width="1000" height="560" as="geometry" />
        </mxCell>
        <mxCell id="hSlGgoTsxbMtLhXprtxP-197" value="" style="shape=image;verticalLabelPosition=bottom;labelBackgroundColor=default;verticalAlign=top;aspect=fixed;imageAspect=0;image=data:image/png,iVBORw0KGgoAAAANSUhEUgAAAOoAAAERCAYAAAB1tjsgAAAAAXNSR0IArs4c6QAAAARnQU1BAACxjwv8YQUAAAAJcEhZcwAADsMAAA7DAcdvqGQAAEZPSURBVHhe7Z0HfBzV9bZf9b7qvXdbtsHGNgSHECABHDAJhE6AJPQSE0gCCfmT9qU3QiBAQmIgFINpoRkwEHqoNthgW733umqrXUkr6bvn7shqO7szs6PVzuo++RFrr8Arzc4795x7z3lvgNVqnYJAIPBpAqU/BQKBDyOEKhAYACFUgcAACKEKBAZACFUgMABCqAKBARBCFQgMgBCqQGAAhFAFAgMghCoQGAAhVIHAAAihCgQGQAhVIDAAQqgCgQEQQhUIDIAQqkBgAIRQlymjY+O4/9EXcMNPb8cnn1VKowJfRTg8LENee2cPHnx8F4ZHbNIIcHhZIS45/1RkpCVJIwJfQgh1GVFR3Yhtj+xEQ3OHNDKXgADglBOOwgVfPwmhoSHSqMAXEEJdBvT09fMZ9H8f7WdiZGp0Q2R4KL59/ik4btMR0ohgqRFC9WMmJibwxHNv4D8vvo2JyUlpVDn52Wm49IJTUVqUK40IlgohVD/lnQ/24QE2i5oHhqURbUxNTWHThlUsf92CuNhoaVTgbYRQ/Yzahhbc9+iLqKhp5jmnXgQHBeGsLcfijFOOQ2Cgjn+xQBFCqH7C4JCF5aEv4Y339rJXiyekpHgTXx3euG6lNCLwBkKoBodC02dfehuPsVx0bNwujS4u9J6rSvNwKRNsTlaaNCpYTIRQDczuvRW495Gd6O4bkEa8zRROOnYjLjz7ZESEh0ljgsVACNWAtLR34b5HXsC+g7WKtlsWm9CQYHyTifWk44+SRgR6I4RqIEasNjz85Mt45c3dbC7zPbLSk3DZBVuwakWBNCLQCyFUg7Dr9Q/w8FOvwGobk0Z8l/VrinHZhV9FUkKsNCLwFCFUH+ez8lps274TrR090og+UDFEZ3s7LMMWZGRlIipa3z3SQBaSn775GJz9tRP41o7AM4RQfZTO7j6+UPTxZ9XSiD7Qiq25tw/tra2w22dWiWPj47lgQ0NDpRF9MEVHsnD4VBy9cY00ItCCEKqPQe1nO575L3a+8h4mmaj0ZHh4GG3NLbCOjEgjcwkIDEBKahpS0lIRGKhfB+QU+9+Kwhxccv4pKMjNlEYFahBC9SFef+djPPjELgxZrNKIPoyPjaGNzaD9fWZpxDUhISHIyM5CHJtldYU9eI77/Dp885zNiI6KlAYFShBC9QEqa5p4mFvX1C6N6MPk5CS6OzrR1dnJv1YL5a2ZOdmIiIiQRvQhJDgI55/+JZx28jHSiMAdQqhLiLl/EPfveFFx+5lSKGIeMJv5LEqzqUvoX3bz3onJSUjLyEBwcLA0og9pyfG8umntmhJpRCCHEOoSQLPbkzvfwFM734Z9YkIa1QfKP1ubmmGxWKQR59DPMDZm5au/oaHhLNx1vYgUFBSE1Ix0JCUn615ksXZVIS69YAvSUhKlEcF8hFC9zHu79+O+R1/wuP1sPvbxcbS3taGvp1cacQ6t+o6N29hMOyqNOAgKDEJoWAQTpOtZMzw8nOWv2YgxxUgj+kDSP/XLn8P5Z5wo3CWcIITqJeqb2njZ38HqJneRpiqmJqfQ092FjvYOTLqandmnPD4xhrFRKxerHMHBIVywgQGuV31NcbHIzMpi/66+Nb7kLkHdOV/ctE4aERBCqIvM0PAIHnpiF/77zse6h4yD/QMsD23BqG3u7DifiQk7RplAJyeVhtkBbFYLY+FwmMufmb6XnJqK1LQ0BAbpa2hZkJ2Gyy48DcUF2dLI8kYIdZGgWeu5Xe9gx7Ov695+ZrNZ0dbciqHBQWnEOZNTLA8dtcFu11Z2GBAYiLDQCD7LuiKYtnMyMxCXkKhvtMB+/s9vXMNn2FjT8naXEEJdBD7+tBL/evh53dvPJux2dLIQt6e722X4St8bHx/FGM9DPf94g4JCEBYWjkCWx7oiKjoKGSwcjoyKkkb0IZjN1mefdhzOOOWLukclRkEIVUda27tw7yK0n5HwaJGIFotIrK6w28cxOsbyUA37pu6gleFQNsO6+93iExORzmZYKpzQE4e7xCnYuK5MGlk+CKHqALWfPfLUK9j1xke6t58NDw2htbkFNqvraiXKPykPpXx0MSGRklgp3A1wYflC2zkp6WlISknhBfp6QQ+tNSvyeTicnZkqjfo/Qqge8vIbH/Ie0RGd28/GRkd5wcKAuV8acQ7lcaNjLA8d9277G4XBYQq2c8LCwng5oilW/5a3k47dgIvO2YzwMH0bCXwRIVSN7C+vY2Hu82hu17/9rKujE92dnW7zUFokIpGyF9Ko9+HbOWyGdVfEb4o1IZ3lr7QPqyfhYSG4+OyTceIXj5RG/BMhVJV09Zhx/44X8NFenQ9WYmIz95l5+9n4+Lg06BzKQ6mqSEv97mLhqG5yv51DlU1U4UShsZ7kZKRws/Cy0nxpxL8QQlXIuN2OHf/5L5579V0mEH0v2YjFwvNQ+tMVjjzUxmZd10JeKgICAvnqcHCw61CUaoZpsYkWnfRedDtybSku/cZpSIz3L3cJIVQFvPneJ/j3jpf0bz+jsr/WNph7FZT9sRCXtlyMAOWtYWyGDXSTv0ZGRvL8VXd3icAAnLH5C9xdIkjHvtqlRAjVBdR+dt8jO1G7GO1nXV3oorI/V+ErE+i4FOa6yld9lZDgMF5iSDOtK+ITEpDGZli93SXiYqL4YVeb/MBdQgjVCYvVfkYM9PejraUFY6OuV2nVl/35JrSFE8rCYRKti90cvhiVkpaG5NQUtwtTqmAPuBVFOVywRnaXEEKdBeWeT+58Hf954W02k+ncfmalsr8Wvi/qCt5+xgRq99E8VCuO7ZxwXuXkitCwUGRkZnIPJz2hiORLxxyBi8/ejKgofRvhvYEQqsT71H7GZtG+ftdCUgsZiHW2tfOyP1fwPNRJ+5m/4djOcV+OGBMTg3SWv+rtLhFK7hJnfBlbTvq8NGIMlr1QG5rbce/2nThY0+iy0kYtJDwSJ4mU9kZlYVdfSfuZvxESyvLXkHC3qcX0do7e7hLpKQl8O+fwVcXSiG+zbIW6mO1n1NVCYa7NZpNGnOMveahW6LpT72uIm+0c2nNNz8pEYlKSNKIf61YX4fILT0Nyos5Gbjqz7IRKs9bzr/wPO55+DaM6t5+NUtlfSysG+12X/XnafuZvkBCpukmuHJG6cTJZGKx3Vw6VadbX1WDrZefh8m+dLY36JstKqNR+Rqu57V190og+OMr+OtDd2eUyfKXv6dl+5m8E8+4clr9K2znUfUMzaVx8Apt9+ZAu0IJda1MTWpob+Nc/v3krrvj2udJ3fZNlIdSOrl78a/vz2HegVhrRBxJeX28vOlgeSp5Frpiuy12M9jN/gtYJwiIikZWdw90jdN2qYdD+dSObRanCa5qf/WgrrrzEt4XqH2UbMthso9j28HPY+n9/1V2k5PJXXVGJlsYmlyIlHyOrdZj9LCNCpAowxcdj5arVSE1P11WktC322d6PUVW+f45IjYLfzqivvvURHnx8l+7tZ+STy8v++lyHz0vVfmZUwsMjkF9UgoREfS1D6fNqrK9DZ0ebNLKQn/7wO7jq0vOkV76J3wl1f0Ud325pbne9b6kWXvbHclDKRV2V/VE47AvtZ0aB9lNz8vKRkZWt6+o7fQ7tLS1oaqznq+uuEEL1It29Ztz/6Iv48JNy9lvp+YFT2Z+j/cxd2Z8vtp/5Milp6cjLL0SIzjW+5r5e1NVUuXXFmEYI1QvY7RPY8cyreHbXu7qffsZd55tbYBl2bZbtLRsUfyEmNhb5hcWIiTFJI/pgHbGgvraGC1UNP7npWlx92fnSK9/E0EJ9+/29uI/Nonq3n1HZXwfLQ3t7XLs3UHhlpPazpYY6afILirmPkp7Q59XUUI/2thZN6YYQ6iJRXdeMbdufR22jvu1nJLyeLiWu88ZuP/M2tHqbmZ2LrJxcXVdy6dp3trfxxSJKO7QihKoz/QNDePDxl/Dm+5/quvBADA0MorWleRFc55c3SSmpyCso4iZnekLrBnU11RixeH6Gzy03XYNrLrtAeuWbGGof9dobf4eX3/xId5GS0wJthLsSKS0Q2awWvicqROqe6OgYrFm7HqUrV+kq0lGbDRUHPsP+fZ/oIlKjYCihkvlX1cFyXvDusiNFJVSqVlBchPzCQoSFz72pKLyirZaRkUG/6xFdDMjvt7h0JQ5fv1FXi1D6vBvqarHnw/fQ26Pv1psR0hdDCZVmUrqoNPuV7z/AF3v0vMh0QlnJypW8vpRyqXH7GBfoOO2JClxCn01GVg42HLWJb7voSVdnBxdoa3Ojps+biv2jo2MRESnjzWSA5M9QQp19ReloByrfozI+d9snaiCBpqSmonjlCkRFRRniabvUxCcm4YiNn2MRSRHvhNGLocEB7PtkN/uMD/IKI9Wwh0dkVDT7HGkbiKVLBv4sDTejzof2Omsqq9BY34AxLR+mDGQUvXL1GpStWcuexJHSqGA2kZFRWMWuT9nqwxCuoxMDtQtWVRzAp5/swbCbE+vkCAuPgCkmHoEBwW4LUEToqzvyi0j9fX2oPHAQne3tbj8YNZBD3roNR6GgqES2X3K5QdehoKgYa9l1iWPXRy+oaaG5sQEfszCXTgrQAh1kFcMESmZqiu8DfdcmFwWDzajSFzLQB0MtZyTYfrNZGvUcmsnTM7Ow/qijkZZuXCc7PUjLyGR56NHselBtrjSoA7RAtPvD99HUUKfpQUs1w9HRJhYJ+We6YjChKvtxKQRurKtHbVU1C431q1qi1eHCklKsXX8kYmPjpNHlQWxcPJtBj0RhcSlf2dULWl/Yv/djvuVCrhdaiIyM5otFdDv765qCwUJfdR8C9SBWlVegtbmZl5npBTm7r157BErL1nDPWn+GLD5Xshx09eHrEBWln6M97V3XVlVi754PMTDg2rpGDjpNzmRieWig+zzUFVP6ZUqLhsFmVC2xFpUFdrMn9gH+p55PXHLIW3/k55CTW6B4tjcKtPqdm1/Iw/2ERP1Mxej6t7U0Y88H76GjvVUaVQdFNtExcexPykOVf57yH73vz8LLQKgOJuwTfGalGdadCbYa6IbOzsvjeRuVy/kDyalpTKCbeG2uJ9d8PnTGzicffYD62mpNnUb0MIzieSib2TVpy/cFKYfBhCp94QHUo0i5a0NdHd8G0AvqDKFyOSqb0/vQI28RY4rFYes2oGRFma7nwNAW2sHP9uHg/n2wWkekUXWER0Sxny8OAW7y0Nj8YKStD0WAs+1cmftnSsyo+qLn051O8qbV4Y62No/ym/lQ2RwtNhWVrOCu8EaAGrdLVqxiIl3PxKBfjyiV/dXXVOOT3R+o7hGdhtYAKA8NDgrB5IT85xQSGYBjfxGLLdsS8aU/xmPTj52UL8rqUb/7arEwllB1vqD0ZO5s70DF/gPcA0nH9BWp6RnY8LlNyODbGL55I9DPlZWTx/Lso7njn55Q+9nu999FW2uzyxlQDnLGp5VcctN3l4cGBgPH/TYO2V+YWdjLOTYMgYqfk2JG1ZXFuuFpBbKpvoGFxFUYYWGaXlA5XX5RMdZt+BwvnPAlEpNTuEBz8wt0Lfuj0+r27v4QNVUVmnpE6TOOioxBZKRU9qeAsguikLJmbqgeEMge674/USpGCHUWtKdXXV6B5oZGLl69iIiM4KWIZWsO5257S0kUtZ8dfgRWlK1GWLh+W0vUflZ5cD/27/sYFo3tZ+ERkbyqKCAwSHE6EhwRgLJzFpZ4DjTZMaGwolRsz+iMt56QZKpN+as753u1xCck4ogjP4c8Xrzu3XJEKlIoZHnzWmo/i9OvWIME1VRfhz0fvY+e7i5pVB10YFQMz0NDVa8XZBwZyvLThbdx/S7/6ngSM6oMtBBCBw5XHiznhz7pBf0OmVk5fP9V73YwZ9D7UZ5M20dpLG/WE6rH3f3Bu2huatBkLk4hN+Wh4WGR7L+XfyAGsjw1/ZgzUHDm9YjJXSmNOjDlLHzgDXdMoOoZFSlMgMhRdcb7SQeFdHXVNaivqXV7OpsaaKWVN1gfsZFviywGNINTQwHlyXrO4PTg+vTjPbzDRVP7GYPK/qKi6Pd29BjLERafisOvvxv5X70GaUedipWX/IYLd5pxy9wHBL1+5xf9sDtxGPJ9OcpjrBl1CX/awYEB7i5B/r56uktEx8TwbZGSlat087eNYLnedE6sZ4senX5WVVGOTz/ZjaGhAWlUHZSjm0wJisr+AkPDUXbpbxCRnCWNUE4ajYiUbOkV0Pj6KIbaHMUT3QfG8fJ1ZvRWOi+mYI8E6av5+P6qk7GEusQXlJ78XR2dvByR8lg989fklFTujkDbJVpDfL7KXFiMdRuP0nWVmcLalqZG7PnwfRbuanN+dLSfxSFYRftZ9pcvYqLMkV7NMGGzSF8BNvMknru4F49/rQsvb+1Df718xZPcx6Xn57hYiBxVA/ZxO18ZrqmsxIhl5qbxFEd9bQHfNklMUuN9G8DzTyr70/toCGo/+/ijD9BYX8sEpj6SoN/JUfZH7WfSoAICQyOQdvRp0qsZRvu7YOude44MrdqODfm+2DxBCNUDRiwj3AqG9mDHx/TbzqFtkxWrVvOOlYhI14f38vaz9Rv5ii4Vq+sFPYD279vL289sNm2tghERUYiOdl/254zYgjUIClu4ldXx7rPSV+qhnlWnGEDjBgt9fROqaqJwmA6Q0vNoRRLhug1HooB6QIPnLgZR+9mKsjWO9jMda4upHbC2upKX/Q30azvwmX42ykODqOzPxfUoyMvCPbf/HB+89gh+/IMrpFEHoaaFHTsjHQ1of+c/0ivlUO6fW5CPhCSZk+J89caahaGEikDfvaJ0Q9JxjBUHDmKwX9tCizMoikjPyGTh8Cb2ZxafFXLyCvh+bGJysvRveQ7NeO2tLbzsr6NNW/sZ1TZTHhrCy/5cP7DWry3Dc4/dic1fPgbpacm46pJzULai0PFNhrV37s9g621H+X23YNKufJWZwu60jHQWnZQhLj6eXUvpGwsQOaqu+Fro6wxyl6ivrWWzUrWu2znBIcFsZi3B0V/4IrJz8/hNqBcUEdAMSiegaW8/i2FheoyiPDQ+zoR77vgFYqLnhvWZGTP1xoO1+9D8yoMYbDiA1tcfxb6/Xo1Rs3IfJVpMK2UCnXMgsszPZoC1JKOFvgaIUSSGB4f4dg6dBqfndo6eUPtZ+f5PcfCzvfxrLdBWEM2iAQhSHPZ/9+oLkZwYL72aoa19bmVT8ysPYP9d16PxxW1zVnpdERkViaLSEuTk5y1s1TPO7bMAg82o0hcGgcJJOnSqfP9+9HbraxbuCQ7X+Ro+i/b1uj6xTo7Q0DDefhbkouwvmH1eMfMWcEJYZHDW6SdJr2ZobetEeWWt9Eo9FHFk5+UykZaqztnFjKozRgh9nUHuEi1NTbzgX0+zcC10drRzG5TW5iZND46g4GA2g8YyoUYwgcr/98dEReOZvBIcNs/vt7Q4D6aYhUK6e9sOl3+fHHRPpKSlsjx0FRISE93cI3Lf832lihnVi1itVm4W3lBXr6tZuBKosmrvno/Y+5djfFz9e5MAIqNiEBVpYgKX/yDyQkJxd1Ye/pmdj4KwsAXSiHDSsfPOex/joR3PSa+UQ80FtFCUnpnJiz20YoSUSuSoS8CA2cy3c8iDWGmVjlao7K+y/AA+27uHzebavKLCwx3tZ4EB8u1nMYGBuDElDc8WlOC46BhpdOEcdqCiFv0DM00Ob7z9Ia647ueqZlM6xaCwuBj5hQXcAkcxcrePAW4rYwlVx5XOpYa6RcjVn7Zz9DQLn4aqiOgU7t0fvsfyZI2u89R+xgQaHCyfh9InclZsPF5gAr0kIRkhC8Keua9HRqw488Ib8Ifb7sXFV96Mb171fxi2KFvIolkzMycHJWUrEW2aeRgoRV6PIvTVFaPmqK6g7hMyC6eQWKvx13y6mTCpLre5sV5TAcac9jMXeeyGiEg8lleEX6ZnIUnGH8rZJ1Zd24i/3bOdzaYfKcqT6XNPSknGyjWrkZScpPt9IBaTdMYPdXoIWmSqOljBF520moWTDSodrFTFQl0KebXA28+467x8+1kaE+WtGdl4IKcQq9w4Vnj6kdHMSTNoZna2R3koOXZY5OqyhVD1xR9n1PnQNg6ZrdEZsEpXZWlWrq4sx76PP+JHFWrB4TovtZ/JuP2Fs+v/naQUvMjC3K+QdaeSj0PjR0anlOcXFfJclHJSrVDIzjue2DW1DDlfcRd2oTrjL4tJ7uDuEs0tvGBiaFB+AYiETNssuz94j92MnrWfOVznnQuUrvppTJgvFpTi2qRUhKtYK5hQGVfSrEkHSZesKvP4xPKB/pkeYpeLdga4rcSM6sNQCWJddTUvSZxvFt7X04OPP3qfFy5obT/jeaib9jMKbR/OKcAfWKibpqI7p4nN8te1NuIdFUZnVDRPZX90kHSgB5/1IZN1J9fNOb5/X4kc1QBQkX/lgXJ0tLbxPPTAp3tRfuBTfkNqYbr9jG5QufA6KTgYv0rLxGO5hVjnptVuNhYWDdza3YHT6qvwypAyrymqJKIT3rNzcz1q1aNT6FubmrnPlapjS1TO+kuBmFENwtTUJDo7OphI96Hf7En7GZX9ybef0fbKpQlJeDG/BGfGsZxV4TWfZDf70wNmnMIE+s/ebowpuPlJlLn5+SgsKUGkB5Yx9LChA8DKWR7a090tjfoXQqiGQ/3Tn7vOH2o/k//vj4+OwbP5xfhBSjqiVayw7rWO4LzGWtzc3oIuBSvWZI5NXS0rVq9CXIKr9jP3kNHa9NGaWpsfRGWSzgiZEsqvAj3YoqIk13kX+i4IDcO92fm4KysPeexrpXSOj+Omtmacz0T6mUIXCOoLpbpc6hP1pFWPcs/62jruEKk1BZhBhL66ImZU5XDXeRbmBrgo+zMFBuH/UjP4LHq0ikOKbezvu6unE1+pq8Jzg8oOISY3RGo/I6cFT06Ko1mTVnHJIH2wX9sByPNxUbrsMxhKqB7FSMsEaj875Dovsx9KQe35LP/cVViCC+MTEaTwulLa+RIT5qksD72jpwtWBWdB8Paz3BwUr1DffjYbykPJ+ZFKLmlfVOke8xzkfk3fn1CNJdRAH7ZiWWrIYJu2W6hwwZXr/CY2cz6ZV4yfpmUiToUpdwULbS9qqsUNLNRtU3AuD0U/dEIcbz9L8qzsjyqKyESOnB/tLt47vjgYx/w0FifeFo/UdfoZvfkCIvT1EyJ56ErbLY7X88kOCcXtmTnYxnLRUhWVPn12O37S0YozG2qwR2EtMhUq0H5oRpZn7We8Drq+HjVMpO4cKHKOC8PmOxOQe1w4Ug4LxaYfqTkf1fcRQjUaspfA+TeiAgPx/eQ07Cwoxokxyit9aHvlvr5unFxXiSf6++A+yAW3OS2g9rOiQl4CqBXKqTvbpM6iPvedRfFFwdh0cywCyVJCIjI5iB9uPBfn10hTGO1lDCZU6YtljOx5RvPG6VKdGRuPlwpKcFkitZ8p/6hfHx7E6fXV+ENXB4Zdld5J0KyZkZ2F0rKVLD9W3342DemFhEkC7WhX3qu78boYBIXMvTnGRyYxPu/8GSPfP8bKUZfy8BmfZ+5NmRocgl+5aD9zRu3oKK5obsA1LY2oH1NWekftZ7QfmpyS4lHEQ6FtbWUlD3XVHDwVVxiM5NULV5Hb97C/Q+6hNg8DTKjGEqp82CfwhMGJCfy2s43Pom9blJXexcRQ+9kK3n423xxcDbQ41NzYyIsWZNvQCBbCh0QvdC5MXbtQpCS88scW5rRyt4/ontEZ8o9d7uh5S1Fnyw5zLzazPPQB9qddwd8eGhbKLVAKSooRMc+4TA20Mk3nq5bTgVs9vdKoc1I2nIyNtzyKjT99DCUX3CyNOgiJWig/Ohu158DC1eEpmRlfaYi9lBhMqNIXyxmF18Cd5D6wDPOV3J+zmdSsoPSOqojIRGxFWZnHJ5bzJoPyg2hraZXd650m87jzUHTODw7NpklrT0BYQhr/muitmCvIupet2HOnTFQgd1F8f0IVOaq/IhfOtYyP4butjfhWcz0qR5U5+ccnJvI8lGw5PfGtcrTt1Tja9mzuc2BT/hrkfOUS6dUMwREzC1btH47hgz8NovI/I3jtR2a897tBTMk9d2QecmLVV2fEjMqugcw95e5Ws0xO4K/dHTi1rgovK24/i+IVRTl5OrSfNTdLjfDK3pvI3XLFggWqKfZ72HrmnktT84IVu+8Y4qLVggh9dUbso8oz/8pMC5dmC95+xgT6dxXtZ3QkRGFJKSKjlPeizofeu7e7m+WhB3kbmpqZiw4wjsleIb2aob/yI0yMajOBk7t7xIyqM/5kF6oZ+btN+sIBvdpnHcG5qtvP0niYS4csefJcpMZtmkFbmpr5jCrHiuJ8nPv1zchIn3twc3R2qfTVDOSo2PzKQ9IrdZDvkpy1C/XS+joi9PUT5t9qVPqnpv0sltrPysqQlpHhUfsZuR821NZxKxRXp9lRkcSvfnIddj19D/74qx/g+cfuRHT0rOZxJ+Jp2nU/hlsqpVfKoPfJzM7iToZ0gJQzxIyqM8vF3EwT8y4NZV1Kbj/aYqH2szxqP/Og7M/RfuY4H3ZAQfvZb372XVx8/lcPpTNJifHYsG4V/5ror9qNcYvDUXFyfBT1z96N1tcf4a+VMl2MkXSoGMP5/SOEqjOePOn9HpX3Gh32lEXtZytXeNR+RjMftZ9Rfyg/cV3BTX/CsUfi/LNOkV7NMNt9Yny4H3v/fBkObrsZu399AdrfeUr6jntiYkyHvICVFGMYQKci9F1u0MxC5X4r2UyTqEf7WWUVbz8jg2ulfPfqi6SvZqAZef/BKumVAxJrf+Vu2EeUrRRTROAoxihSV4whZlR9Eau+hPZrYIp1zDRUQO9R+xkTZVNDA28/G5Ep+6Of8pSY2AVO+qkpiVh72MLV3Fdeew99ZuVbN7M5VIyxaqXrYgyZSydCX50RJYSE3E0lf7OFhZPrfBH/x1PX+c72Du46b+6Vd0IkcT6UU4A/Z+Ygft4DITc7Y8ED12Ybxe9u2ya9UsecYgw394fcGocBIl8R+hoP5ReBt59lUfsZuc6bpFFt0IlzlQcPoqOtTbZAICkoGL+UvICPkPEC7jXPPXKDztm54eY/oK6+WRpRBvcCVlmMIVetJQoedEaEvvLMvwUp/6RDfpNTPW0/I9f5Kn7i3Nio88qfaS9gOnrxrHlewPNnsdq6Jjzy+As8J/10fyUuuPQm7Nz1pvRd98wUY5SoLsaQnVFF6KsvQqfumT79jFZ0gz0o+6OZrqWxCVXl5DovfyzF8dGmQ17AMU7yXmcf2Q9/divy15yMLedci/c/+lQadQ3loXoVY8xHzKg6I/ZR5SELztyCAn76mUftZ2x26e7s4q7zvT090uhCyAuY/Jfuysp16QWsxydGXsDkweRpMYYsBpgBDCVUsY8qT3xiAruhPWs/GxoY5HloW0sLJmVa38gL+Mds9qRZlBwN3eKBBvT2Au5iDyBnaDns2dsY684XE6o8HqRZ0+1ndTU1su1ns72AL2L5qFIvYC0fGRUpLI4XsHNBihxVZ8Rikr5M2Okc1la37WeboqLwNJtBtXgB1yg69tABfb7cC5jloR57AQ8v9AKW+9sMoFMR+voLanx/aAah/LPiAJ1sLu86nx0SgtszyAu4AEVhyvdf+yfs+LnkBUyN6kqgzhZejKGDF3BTfQNqKp15ATuXqphRdUbMp55D7WfVFRV8RZdWdp1BXsA3JKfiufwSnGhS7gU8zm74B/p6cGJtJXao8gKmYoxCfYoxWJhr7lN3LKVY9dUZMaPK425FfIzNNA11jvYz2ht1Bv0NXzPF4QUm0CsSUxCm4nq/PTyEr9VX47dd7Rq8gLUXY9BkqKQYwxViRtUZkaLKI3ez0Y1LNzCV/Q2Y5dvPDg+PxI7cQvwuIxspKvZfyf/3yuYGXNHSoNALGEhMTuJ5qC5ewG6KMZRgAJ0aTKhiRlUM5az9LAQkgVJIKCfklOBg/D49C48wka6JUH7qN/cC7mrDV+ur8JZCL+Bo7gW8Elk5OZ55AR8qxqiAZVi+GEMpkwpOpVtqjCVUkaUqYsQygpoKNtPUN8i2n4WxmezKxGS8WFCKr8YqP/WbewH3S17Afb2wK5iNyAuYGtMLPfUCZu/NvYDdFGPIY9z7R4S+fgSJkrYjaLFIrv2MODnGxBeKrk9OQ6SKKOWjEYvDC7hDuRcwVRNRUwBZvXgC9wLmxRjkBSz/3qbsIKQcHooAZwvHMhaOYjFJZ8Q+KkPmEpD9CYW5tMEvx4qwcPw7Jx+3ZeYiW0WlT+uYwwv44qY6xV7ACdR+tmoVr8/1ZBHQZrMq8gIOjgjAMT+JxZb7k3DiX+Jx9E1OFqhkZn+Rowr0R+amslqtsjNDXFAQfp6agSfyinBkpPJKH4cXcCc/YVypFzB1tFBFUTa1n4V66gXcgqqDFW69gANYunvcb+KQe3z4oagr94RwBM5/e5kHvVj1FeiObEzh5F6j9rNvxifhZZaHnhufqLjsj27cZwf6saWuGn/v7cKoghuZOnWoN7SoVE8v4C5FIlp1XhRSWbg7G7I+XfDryv1VQqiCpcLEwk0qnP9RqvP2Mzk+lbyAf9jejA67ex8kSkcovF25qoy7LSh8FjiFewGXV7j1Ap4Nhbxl5y5crR5stmNi/o6NzM/m+zIVQjUeCpUQGRjksv1sPj1MlD9i4jxPlRdwHG9O5+1nHpT9zfECZiG8GjKODEVI1MLbuP7lhX+P3JUTi0kC3dH7LM/RqUncw8Lbk+qq8AwLd5X87eGHvIALvOIFHBgcirSjT0P+6VsRnTXXQd+Us3A/1tI1gcqnlQte5KiCJcPdrUfff3VogOehf+nuhFXBrDLtBVziRS/g0LgUHPbdu1BwxnVI3/RVlF32WwSGzDwcxkfm/rfj1im8/Yt+2OeNu0IIVaA/U3IBnPKbrWrUhm831WFra5Oi7hbefrYEXsAkyLJLf4PI1FxphOWkkTH8AKlpGl+3wdLp2FftrRzHK9/tQ2+5svx2GiFUge4olYizEJnaz37Z0Yoz6qvxwYiLY/hn4U0v4PlkffnCOSKdZsI2075m65vEMxf14Mmvd+Olq/tgrlEnUsIAOhVCNRwy1TXzb7bZL+3smw+Ze7CZ5aHbFbefkRdwoT5ewCy8decFPJ/A0HAe6s5ndKAbtt426ZWDKaZNW7+S30rmMSdmVIH+KJtTp2+9d6T2s193tmNAQdnfXC9g5b2ozjjUftaqvv3MVHAYgsIWbrt0vPcc+39twgoKcn67671AtxgIofopNiYMaj+7vKUBdUrbz/TyAraSF3C12/Yzcs2/89Zb8L+XH8KN371EGnUQZkqSvpphpLMJ7W8/Kb1SzrQXcHJaqjQyH+2/q7cQQvVTqHlbafsZreDq5gXc1Mw9mKh4wRVr15Ri5xN34bTNxyE7Kw1br7wAK0sKpO+yB01vu/SVg1FzJyruuwWTCq1diAUHM8sIUuyj6owoyneF+vAthHsB5/M9UU/bz6jcj/JQKv9zR1xsDP71t/8HU8zcLZ6szDTpK2Cg9hO0vPYIhpor0PbWE9h329Ww9c0VryucHswsc/uIE8cFXkPNreZoP0vnYS6ZW3sCeQHTDEoF9FTAoIStV30DKcmJ0qsZ2jvnirzppXvx2R1b0fD8P2C3KosOXB3MLPeYF9szAq+hNNagEJBc51PT0z1sP7OhvqaWewHT186gzZzoee9Bzg7nnrFZejVDW0c3DlbUSq/U49nBzEKoAi/hblKIjHK4ztOiikeu89wLmNrPyjE4MPdkttkcGRmFJ/OLcPg8e5fS4jyYTAuF9I97H9OUK6oqxpD5ngEmVCFUf4cWh7JzHe1nnrrOz3gBy7efkRfwXzNycH9OAUrDIhbM9JERC/dk3/twHx7Y/oz0SjmHvICVFmPI/Mwi9BV4kbk3Gx3qm5KWxvPQhCRqP1MaHC9EiRcwWbpMewGfZIo9JND571peWYeBwRlDsnfe+xiXb/0pJlTMpjMHM6v0ApadUYVQBUtAbBy1n61EemaGZ2V/3Au43kMv4LniGLaM4Jxvfg+3/u3fuPQ7P8U3LvshBoeUlRTOLcbw7GDm2Qih6ozYnnENtZ/RsYt5hZ61n1GuSF7A5PY3YDZLows5jL3ftBdwqsz+q7NPjGbV2+56EK+89q5ikfBiDPIC9rAYwxkG0KmYUf0FWs2l9jM6yFgr6ryAs/GoAi9gTyU152BmD72ALbIHMosZVeAlyEjMk5mGOlrUeQHHMREqeD+NPxJ5Aet3MLPDC3hQxiRNhL66Y4AYxWBwL+BG8gJ23X62OSZWkxfwpMqPbLYXsH4HM7v2AhZC1R19cxN/Qu2tRnkoHe7LvYB7XHsB35+dj79k5qjyAm5nD4AbWpvwtsJ6Y4LCd328gJ0fzCx394gSQp0Ri0kuUHGvDfQP8IIFOi5frsiAvIB/lubwAj4qSvn+K1m63NHTia/UVeKlIfmCiNlQMQZ5AVMxhqdewG0tjmIMd17AszGATkXou5wghz/aamkg13mZk8BpueZiyQv4vDh1XsA7B/txSl0V7upR6QXMROqxFzAvxjjI8lFlXsCzEaGvwIvI32zcdb6pmeVrrtvPjmEz5zMsD71ZpRfwfvYAuKCpDj9oU+oF7CjGWMnCXO4F7EFKMzw0jGryAnZRjHEIuYeOEKpAf5Tf1DRT9HR18xXPHhftZ3khofh7Vi7+yXLRAhX7r+QFfHN7M85prMFe6/xj+J3j8AJ2FGMEyjguKMFxMDMVY1TxRnVlOBekmFF1Rhy76IJ59xrlaOQ639rcLNt+FhMYhJtS0vBsQQm+GK280meM5aH/7O3CybVVeFqFFzAdu6iHFzBZu9AimKtiDOc4v3+EUPVG6JQhc1NJ14Zyz/raOr7qKec6Tx/62bHxeKGgGN9OSOZn1CiB3vnVoUGcWl+NW7s7MaLgAGAq+8vMyXYUY8RoL8ag8JTM0cgLmMzSNIlL5j8xgE5F6Gs4ZETlcJ1v5TfyoAvX+Y0RUXgsrwj/Lz0LScHKV1jJC/gS7gXcqNgLOInaz9asRlJyMn+tFdrfJS9gsht15QUclx+MTTfH4kt/jEfKYU5+N5kfQcyoAt2RcQtFX08f3xeVu+kyQ0JwW0Y2/p1bgFXhyit9uBdwZxv3An5foRdwjMmE0rKVyNTFC9h9MQaR/YUwbP57AvJPDEfa+lBs+rFyB0UhVJ0ROaoLZC4NVRFdl5SKnfklONlEZX/K4F7Afb3YzPLQ7eZeZV7ALPek1rOC4iKE6eYFLF+MMU1cQTA+z4QZFDLz20WlBCE4UtlvK4SqM75/OZeQeReHbtGvMmGSQK9OctZ+Js87liE+g/66qw0Dk8q8gNOzMnXxAqbDotR6AW/YGoOgsLmipDNo7OwfJRjhvjLYjCpQehFSWf75exbqpsm0nzmjaWwU17Q04PLmBtSo9AJOSU3l9pxacXgBV/HjF115Ac+H8tL5hxgTHXvYz69QgWJG1Ruh1EVhmM2af+pqx6l11Xh9WIUX8Eq9vYDl2tAYAQEIjli4apy6buF7k+4qHl+4ryt3+wih6ozIUeUnCS1XZoLdoE/29+ErLA/d1tcDu4IpaI4XcKR3vICT1n0JG368HUf+4ikUnXujNOogNHrhLVy704quz9xXSE1jhLvKWDOqQFap84fdSW73iIWfLn5LRyt6JtyfgKarFzAVY7AZVIkXcPoXzkTJeT9EaKzjiIuU9SchLH7GqLuvaq4gG/5rw4e3Ky/IJ8SMqjMebMX5DUqvgdzBRx3j4/hBWxMuaqrDfpuy0ju9vIB5MQZ5AVMxhowX8Gxi8lYh79QrFvzSdEbqNK3vj+HDvw6ihs2ib97Sj//9eoCf7qYGIVSd8f3L6btQ+9nfujuxua4SOweVt5/p4gXMZk1q3ubFGC68gOdDIg2Y92CYYvn0/GMXq5+x4oM/D6LlXWULYPOhFMDXEaGvnzJ969HMOt1+dmev0vazYGRT+5kOXsDUlE55KNmhqJm5IpKzEZNbJr2aob9qDyZsygovFuI8HJmYmEJvvw2jY8qO5FgKDBb6ithXnrkioFf7bSP4RqOa9rMApKSlcpeFBGo/8+B6T7efkc2Lq/azwvxsnL7lS0hNmXsWTXR2qfTVDFMsKmh+9SHplTqoU8cmI3B6gEwxEQ+N2NE/NMqF62uIGdVP6WPiOKehFp8obD8zxcXyhaL0zEyPvYAb6923n1Gu+/Obr8Frz9+L2/9wM3Y+fjeiomatIjt5SDS/+iCGm8qlV8qg95mamsDQoJkJVebnmTXT29mkah4aw/DI+OzhJUfMqH7D3GtDNT1K7jNymi8oLkZ+YaHHXsCdbe0oZ3lof5/79rNf3rIVl1z09UOfaUpyAjasW82/JijEtY849nQn7WNo2PlPtKicTemvHmF/h8Uy5DLsdvYd29gkelg4bBv1jXBYzKh+g7rHP28/y87inrkxnngBs7ftN5u5DUpHezsPT91x7Oc34MJzt0ivZpgtpvGhPuy99XKU3/8T7PnNhWh78zHpO+6hWXRs3IahoX4WdrsP+eVETA+RYasd5sExjNuVlTMuFkKoyxBqOyPXeWpD8yRKGbGMsBC3Eo119TzkVcoN11y04H1pZfhAeY30ysHYYC/MB9/H+LCyBnES6MTEOAYH+zA26n77Zxp3i1wTk1Msdx3DwPD4kjkWGiz0lb4QOMH9xYk2mfgMSo3cnrjOz3gBV8AyLL8Ce3KMCWVhc7toKMQ9Yu3C1dxX33gfvX3yfbSuoBrjKRbsDw/3s7xY64qwa+jBQrNqb/8oLFbv568Gm1GFUuWRv3Mo98wvJNf5Io9c5w95AR9w7QVcKnkB35aZi4R5D4S8nMwFs+no6Bj+cNs26ZU66K+yWYfZA2NQcbfNbOhnOfqoDdIr99C/bx2dRN/AKPtTZWWFB4gZ1Y+hUJBWcclMzBTnmes8tZ8d8gKecC4IhxdwJp504QVs7p9b3kch7w9u+ROqa5ukEWXQdsu4fZTnoa5cH1xx2JoyPHzfnbjx+qukEeUMDltxsKpTerX4GGtGXZr0wMdQ9rSiM1EpD6V9UbLn1MqMF3CdQi/ghDlewPMbKaprG/HE0y/zXO9gZS0uuuJmPLPzNem77qGHz+SkHYMDfRhVWAI5n8SEePz+V7fgoW13YHXZwv1aV4yN2VHX2IWq2g6MWLVVQmkhwGpV2F3rA9z74H/wu79oC5H8hfHxUSaYhTdoWFgEQkLCeCURncAdGen6lDV3kBcwreKS3agryAv45pQMWZvRK5sb8JaTYy2C2exrd1OQPxsKOaemJjEyMsyEqm3LhPLyb190Hq689EKEqnTkn5ycQkdXP/tn4NDiU1REGI45Mp9/vdgYLEcVyM2odBPm5uehsKTEI5HSTXjIC9iFSB1ewHluvYDl5n91ImUz+6gFw8MDmkX65ROOxfNPPoCtV39blUhJk+Z+Cw5UtKC9s/+QSAm5xofFwGA5qtzHLqC90LiEBI/y+KHBIQVewIG48ZAXsIL9Vw9+njl5qIrtn9msKCnCtrtvxa2/+xky0lOlUWWMWMdYiNvOQ92x8YULR968Gw0l1KXedPZlqFZVKzNewNUKvIBLcIkKL2AtP9V02R/th2rNQ00xMfjpzd/Djgf/jo3rD5dGlWFn91lTSw/Kq1oxbHGxH+vFicMQQqWuBloOHx3XFvYsD9SHYTRrKvEC3hARiSfzilV7AdeyB0CdzAKULAFTsFgGedmflsiSRH7heWfi5ecewVlnnKoqCqOwtqtnEPsrmtHd696Sxnsy9XGh2icmYR5koc+InR+IK6xY9IFuyL7eXl7258oLOI2J8taMbDyQU4gVKuw/B9gD4NedbfhafRWaFJh1E1S0MDZmxfDQAHuAaNuf/PzRR+I/j96Lm753DcvT1e0XDw5ZcbCyFc2tvez9lUVu3stQfVSodOMMWcZ5jeWcayZ06jFUSUSG1s0NjbDL7D+Gs1noO0mpeJGFuV8hL2CF1528gMkD+OS6SjzE/lQS/1AeOmEf490tYwqdD+eTm5OFu277He7+62+Rn5ctjSqDtltq6jtRXdcB26i6/dhlPaNaRyfQy8PcSbF4pAY3j3dajGmqb0BNZSWsI85b3+hqn2KKZQItxbVJKQhnYaRS/sdC1TMbarirPs2o7pjOQ0mgVpuyVrz5REZE4MYbrsEzj92HYzZtlEaVQbNma3sfD3MHBrW9/7LMUcdY/kkzqMVKYY/zC5CU4Jmpln/jXKm8/ay9g4e55r4+aXQhdMzFwzkF+HNGjmov4OtaG3FZcwM/n0YR7ONV0n4mBz3Azzp9C3axPPSi88/kolcKvV2feZhvtzj2RKVvaEDLz66VJS94oN91yDKGMbuyH6Oyug633rENn+2vkEaWF+Ms5xsdXTgDpKalo6h0pfTKcV0H+s18sciVoXVScDCuZ2HuGbHxCFQxQ5AX8D293fh3Xw/GFN6wgSwPpWKNURWdLfPZeMRanoOWlhRKI8qxjIzyHJT+1IPoqDB8foN3Ch6WXKiNrYMICwtBcLC6yf3l/76NO+6+X3PHhVEZZ/ncqJNQMYUJtVgSKoW2ZMVpGZY3tA5lorwoPhFXsRA3OlC5owOV/tGZqH/p7lBkM0rQjEf7oVaFh0w5Iy01hQv0y8d/QRpRjt0+gZa2PvSymVRPlpVQK2v7eNgbFRXKf3F66ipllOVd9z34BLbveJp/GMsBuRmVhJpfWMzPbOnt6ZFGnXN8dAxuSklHXqg6R4c9TGi/62pXbDNKIerk1CQT6BAPwbVA7odXXPINXHLxeapb8+ih0tU9iPZOMy8B1JuY6HBsWp8nvVpcllyoFSRUyf0tiIk0JiYMERGhqvL09o4u3H7XfXjznQ+lEf/FzoRqcyLUGFMsu2bBmHSxkFPIhPl/qRk4WqazRQ7yAv4zm0GfH1QevVAfgM1q0dzZwv4GfOXkE/CD665EcvJc4zMl0AJRM5tFR1Wu5KpheQm1xjGjziYkJAixpnD2NFVnsrX740/xl7/di/qGZmnE/5ATalh4JEKCnXvvUvsZbbfM72xxh43Ngvf2deNfvT2wKjhdnKDtFp6HaqwoIlaVrcDN37+Wt6GphbZYmlt6eRvaYmOKjsDR63OlV4uLTwp1moiIEJjYDBvEPnyl0ErcU8+8hL9v2w6LZeENbXTsLEe1OclRw8KYUEPmCpUec+exPPQ7LA+NC1IeNtLa0K6hfvyRzaJtCmdEykPpZ6PuFq3Ex8Xy7ZYtX/myNKIc2m5p6+hHV49yg29PSE6MwYrCFESye9Qb+FTo6wyaAKKjw1j+SuGw8tlgcGgY//jXdjz9/MteXUZfbJQKlYrnH84tRPE8KxR3lLOZ8FedbfhYoc0ofSZkg8LbzxTsnzqDcs+LLzgbV19+Mfs91Dny02dLi0StLMylSrbFJioyFGXFaUiI86yNUC0+MKP2shnV/QUOCgpgs2s4n2XVUFvXgFtZOPzJ3gPSiLFRKlQq/3u9aIX0yj3kA/yXng482W9WXBpHIqX2M62dLcQJx30eN15/DTIzZg5+UgoVzFOYO2LT/v5KCQkOQlFeErIzqFJLxQKKTiy5UMuZUMcVCHUaylspf6U8Vg2vv/Uebr/rfnR2uV4R9XXktmfCmVCDNQiV9kAfNvfgrp4uDCtcmaUwl+w4bQpnXWcUFxbghywPPXLDWmlEOeMsVWpp60Vf/+IYmc2GNJmVFofighQmVnVbiHqy9EKtZkLV0L4WGRnCV4iDVFSl0NEK/374KTy4/Sl2oy3eauBionRGpRPH33Aj1DeGB/GHrg7UK6yx5XnoxDislmE262q7bWJionHdNZfhnK9vUT0zTU5OobN7AB2d/XzrZbGJj43EyuJUxERpNybXC59eTHIHfdC02ESiVfOh06x65z8exKuvvyONGAcylHZ2hooaoVL72e+72vA2E5xiAqa4FSdZtGiBRH7uWV/D1qu+jejoKGlUIUyU5oERXps7Oqbt/dUQFhrMBZqapN2YXG8MO6POJjgoECYWDoeHq9sQ3/dZOW69/V+orm2QRnwfpTNqSnAw3iyaKSkkqFj+rp5ObDf3KTpdnKD2M9puUWNoPZ9NR23EjTdchcIC9XuOVpZ/Nrf2YcgL2y20u5CXlYCCnERVhTfewC+EOk1YWDDLX8MQzBJ/NTy781Xcec8DGBpa/JzHU5QKNZkJ9S1JqNR+9nh/H+5gIjUrXJnlNigsJPbE0DonOws33XANjj3mKGlEObSC29ZuRnevutPDtZKWbEJpQTJ72Htnu0UtPrCY1McXB/SEyhFjotWVI1pGrLhn23Y8+cyLi1JuphdKQ18qtn+bCfVdFt7+oasdlQpnRApRJybtGNHY2UJEhIfj6iu+iYsvOIv/fWqg9+zpHUJrh1lxA7cnmKLDsaIoleWj2o3JvYFfzaizIZHSYhNtSKvJXxubWnHrHf/CR3s+lUZ8C3mhOuxCp4lmAqFSwVeGlM9IdJloBlVysJIz6Dp/bctm3LD1cl68oBaqJmphYS6Fu4sNbbcU5ycjK115Y/xS4rdCnYa6cuJiqRxRXf76zru7cdud97Lwy3tu6EpQGvqqQY/2s3Vr1+BH378WK0uLpRHlkMsC1eX2Dyx+6kEPE9oLLc5LVt2xtZQsuVAPMqGS69tiQwtNtP+qphyROj6273gG2x54jN3Ei/+UV4LSGVUJFJaSobcneSgVzP/oe9/BiV86VhpRDl3f9q4BdM4ytV5MkuKjUVqYwqvcjMaSC9U8YENb5zDLRxb/x6AIJyrakb+qCYep5/Vvf/83dr36ljSydOghVPrdJ6cmeH+oVkPrkJAQXPatC3A5+yc4RF20Qpo09w+jtd0MZ365ehMZEYoVhalITlS5LeRDLLlQCVo06OwZQa/Z5pUnq6McMYzNsura6Q5W1ODPf/0nyivnnuPpTTwVKomU/nvqa9XK5hOPx/e/eyVSU5KlEeWQuwI1cbv0y9UJip5oq4W2XHxtu0UtPiHUaWgzu73TgsFh74SZoSFBMFH+qrIc8cWX38Add/+b5VTe2TqYjVah0k1LeajNk/azlaW8u+WItTNH+CuFGvtpJZdWdBcbehjx7RYW5oapbJX0VXxKqNMMW8bRysLhUS+dP6mlnc42Oop/3b8Djz7+HM+1vIVaoTrK/sYwoqYKaR5xsSZ877orcfppm6UR5UxNOkyt6dyWCS9cpzhTBBco/elP+KRQp+npG0FH94hX9jUpBNbSTtfa1sGb1d99f480srgoFSr9DpRGWK1DLLXQlocGBQVx1/lrr/wmSxPUtcsRA4NWXjyv1i9XC9SkUVqQgsw09dtCRsCnhUpMMJF2dFlY/rr4JWQEz19N4YhQWaHy4e59+BPLX1ta26WRxUGJUHnZn21Es6E1cewXjsZN11+NnOxMaUQ5ZH9C2y2a/XJVQLlnbmYCCnITeSmpv+LzQp3GahtHG8tfLSPe6Xqh3IYEq6adjkLgx5/aiXvue5TNZIuzWOJKqGHhERjzMA8tyM/Fj753LT531HppRDm0KEidLZ09nvnlKoVcFkryk7gpnr9jGKFOQwtNbe1DGPPC3isRxdvpwlWtGg4MDuGuex7Ecy/+lyVp0qBOyAk1KNhhbKZ11TwqKhJbr7oE559zuqrQn6D37DNbeHfLuBfcIPl2S1EqkhOMu92iFsMJdZqu3hF091q9Ug9KN66WdrrKqjqWv27DpzqahcsJVSu02HTWGVtw3TWXsN9RfVvXsIW2W/QztXYFnVJeyELc3CzPzoE1IoYVKmGfmEJ75zAvmvAGVHJG1U3UpaOGV1//H7cz7ek1SyPa0VOon9u4Hjd+72oUF6o3kaZGCppB9Ta1dgY9HDNSY1FSkKx6K81fMLRQp7Ha7GjrGIbF6p38NZwJlfJXNbWiY2QW/tATePhRz8zCJ5hQrR4KlfyJbmJ56PHHbpJGlEMr8OT0R9st3liNjzdFsDA3jUc0yxm/EOo0/VSO2DXMhOCdX0lLOx2ZhVM54utvvS+NqMOTGZW2WK667CJ88xtn860XNVDqS6u4LeSy4IXtFnJZKGV5aHqy77gsLCV+JVSCP/FZ7trNclhvlCOSSKfzV3Y5HYMK2PPJZ/jLHdtQp9IsXItQKXQ87ZSTePtZooYT8Wy2MTR5y2WB5cw5WfE8F1Xjh+Xv+J1QpyFnw7bOIQwM0dN/8X/FkBDKXyNUufvTg+TJZ3bhnnu3Y3hYmfjUCnXtYav54Uqry0qlEeV429Q6lc2eVLSgdg97OeC3Qp2G9l1bWf5q81Y5IrvJTCZ15YhDZBa+7RH857ldbqMAcgGkM13ckZSYwG1QNp90vDSiHPoZevuGeHeLN0ytY6LCUVqYjMT45bPdoha/F+o0fWYr2rstbJZY/F+Xtg5oEz46Wl05IpmF33bn/TwslsOdUMl1/pKLz+cnoIWGqp+ZhoZtaG7rhdXqBZeFkCDewE2N3ALXLBuhEtPtdD19XixH1ODu/8Zb7+P2u+9HR2e3NDKDq1XfE0/4Inf7o7NE1UIuC7RQZPaWqXV6HEryUwzlsrCULCuhTkNdOe3dIxgYHOU3zWJDeStt56jZA6QtnAcfeYobhtPWzjTkq2u1zd27XFFahB9+7ztYv26NNKIcWnwjU2vabvHG4hud2UJN3LRaLlDOshTqNENUjkjtdC4OqdITMlrj7v4q8teurl787Z4H8OprDrPwCXKql0LfWJMJ12+9HGd+7RT+Wg2kSfIooiZub7gsUJFIWVE6UpJEHqqFZS1Ugm7Y3n4r79DxxgY+zeA0m9AerJr8lczCb/vbvThYUclmWBsuOOcMXHPltxAVqb7vcoTln82tvd5xWQgMRF42mVqTy4IIc7Wy7IU6DbXTOcoRR70SAlL+SuWIag2fX9j1OlaXlWhqP3OYWveh24suC1T2R5VcAs8QQp0HtdO1d42w2cY7djAUElLBhNrT6dRADx4SZ5u3TK1jIrCSXBZ83NTaSAihyjAwNMpmWIvmA6zUQgfkUv6qtwnX4JCVh7neclkQ2y2LgxCqC2gm6uoZQXef1Sv5K4mU8tdIJlpPV6Npu6WJCdQbLgsU5pLLQmGef7ssLCVCqAogJ/+OLkf+6g20ttMR3GWhq59vuXgh1UZSQjQ/XGk5uCwsJUKoKqA2Omqno7Y6b6CmnY5ESabWVLSg96FbziCXhZVFqUyoYrvFGwihasCb7v4EOSOSQ6Jc/kruCpSHesNlgfaAC3OTkJsVj0BP43OBYoRQNcIreqRyRG9s5zhrp6PqpZY2M3rNXtpuSaHullS/MbU2EkKoHkJhJrkj0iqxN6B2OqofNg9Y0N5p9soiVyxttxSnsj/Ve/sK9EEIVSeGLGNo77LA5oX81T4xge7efunV4uHvptZGQghVZ3rMVI44zGY6aWARoJC3u2/xhEphdl5WIi/7U1OXLFg8hFAXAd5O183y10Vy91/MGTU5kbZbUngBhsB3EEJdRMhVgvJXCov1XB9dDKFGR4ZhRVGKcFnwUYRQvcAglSOy/FWvdjo9Q9+QYDK1TkJOZpyqbh6BdxFC9SJUitjZ7Xk7nR5CJU1mppHLQvKiNgQI9EEI1ctQqxkV+3vi7j9ut6OnT7szYHxsJA9zTdFiu8UoCKEuEdzdv3NY0+l0WoVKtcNkg5ImTK0NhxDqEkOFEiRY8iFWCp2Y1qMi9KUtFt7dkpuoexudwDsIofoA0+105PCvpBxRjVCFqbV/IITqQ1CTOq0OkzuiK5QsJsWw/LO0MAWJcZHSiMDICKH6IBarHa3tg7CNOt/OcZWj0nZLUX4ycoTLgl8hhOrD9PVb+Qw7v53OmVBpD5SbWhckC5cFP0QI1ceZdvfvNdsO5a/zhZoYH40VLMylvlWBfyKEahBGx+zo6CJ3fxvGmXhpMYkWiFYUpSIlMVr6twT+ihCqwRiyjKO5bQDhYYHII5cFsd2yLBBCFQgMgFh1EAgMgBCqQGAAhFAFAgMghCoQGAAhVIHAAAihCgQGQAhVIDAAQqgCgQEQQhUIfB7g/wOKkcTHBL8iwQAAAABJRU5ErkJggg==;" parent="1" vertex="1">
          <mxGeometry x="1452" y="3600" width="162.86" height="190" as="geometry" />
        </mxCell>
        <mxCell id="hSlGgoTsxbMtLhXprtxP-199" value="" style="shape=image;verticalLabelPosition=bottom;labelBackgroundColor=default;verticalAlign=top;aspect=fixed;imageAspect=0;image=data:image/png,iVBORw0KGgoAAAANSUhEUgAAAKkAAAEGCAYAAAAe6LWgAAAAAXNSR0IArs4c6QAAAARnQU1BAACxjwv8YQUAAAAJcEhZcwAADsMAAA7DAcdvqGQAAC3gSURBVHhe7Z0HdB3lte+3qq1mS1Zx7xBwNzYmGFzhYpsSyIP3Agk3lAsB7EBIXsq9ZBGugZR1IeAADu9SAiHJuosbcinGVca9yrJxlS3ZlnuTJatYXVZ53//TjDQ6mnpmzpwzZ77fWl6WxrJO+8/+9rf3f/bE1NfXt5FAEMHESn8LBBGLEKkg4hEiFUQ8QqSCiEeIVBDxCJEKIh4hUkHEI0QqiHiESAURjxCpIOIRbVGHaKhvoPXr11Px0aP0T7fdRtdce430LwK7CJHapK2tjXbt3EXr162j2tpa6SjRyJEjac68uZSTkyMdEQSLEKkNTp48SSuXr6ALFy5IR7oSFxdHk6+/nmbNnkVJSUnSUYFVhEiDoKqqilbn5lLBgQLpiD4Q6KzZs+n6KddTbKzYBlhFiNQCV65coS2bN9PWLVv511bp27cvzZ03j4aPGC4dEZhBiNQkBwsO8uhZWVkpHQmOmJgY+sY136C5c+dRRp8M6ahADyFSAy6cv0Arli+nU6dOSUecAfnqN2+8kWbMnEE9evSQjgrUECLVgL0vtHbNGr5zxw4+VKSkptKtt95KE6+byKOsoDtCpAG0trbSjrwdvKTU2NgoHQ09/QcMoDvuuIMGDR4kHRHICJEqQCE+N3c1XSwpkY64CyLpmLFj6LY5c6hXr17SUYEQKaOiooJyV66iwsJC6Uh4SUxMpJtuvplunnYzxcfHS0f9i69F2tTURJs2bqTt27ZTc3OzdDRyQDSdM3cuj65+xpcixUZo3759bGO0li5XVUlHI5ehw4bR3HlzqX///tIRf+E7kZ49e5ZWrVhJp0+flo54A+Sr102aRLfccgulpKZIR/2Bb0RaW1NLa9asoT27d4e0pBRqUFOdOWsW3fDNG3it1Q9EvUhbWloob3sebdywwdWSUqjJzMzkKcDV3/iGdCR6iWqRFhUV0Ve5q6msrEw6En1cdfVVfHOVnZ0tHYk+olKkZaVltGrVKjp65Ih0JLqBs2rKDTdwS2DPnj2lo9FDVIm0oaGBNqzfQPk7dvBl3m/AEnjrP93KN1jRZAmMCpFiI7T76920bu1aqqmpkY76l779+tFclgJEiyXQ8yKFO2nVypV07uw56YgAoGR17ahRdNttt3neEuhZkcIdv+arNbR/3z7piECNhIQEunHqjTRt+nTebvUinhMpHPHbt22jzZs287amwBywBCKqjp8w3nOWQE+JFO74r1av5oYQQXAMHDiQ5t4+jwYPHiwdiXw8IVJY51auWEnHjx+XjgjsgEg6bvx4XgnwgiUwokXKnhutX7eedubnczOywFnQYoUd8MapU3nuGqlEpEhbW1po19df07o1a7lQBaElPSOd5syZS6NGj5KORBYRJ9ITx0+wpX0FlYTJHe9nhsESyPLVfv36SUcig4gRaWVFJeXm5lLhoUOedil5HeSrkyZP5pbA5JRk6Wh4CbtIUUbasmULbQty4IIgNMADAEvglBumhN0SGDaRIloWFBTQ6tzVnnDH+xW4q+CygtsqXIRFpBjwtXzZMjp9ylvueD+DqSu4ijUrK0s64h6uirSuto6743eznbvIO70HrlzF8j9z5izq0dO9qSuuiFQeuLBh/XpupxN4m5SUFJrNNlaTJk9ypcXqikj37N5DX3z+ufSdIFrA1avzbr+dhgwdIh0JDa44Y8VMzujk/Pnz9OEHH9Anf//E9rRBPVxRT1y8P65q9CsHCwro7cV/5POzQlFGdEekIpJGPRAnLt156403ad9eZz2+Li33IpL6herqavrs00/poz//mS5fviwdtYdY7gWOgt0+yourcnMdmxLj0nIvROoH4hMS6PSZ07R1+zY+68Cp8pSIpALb4NqpKra0b9m6hU46PLYduJSTuvIwApfB59rENkxf79lNBwoOhGx8pjsijYnlrho3uhMCd4BAjxYfpfyd+fzKXTU8tdy3trXShYsl1Maec09xZzhPg8tMSkov0ma2tJ/XuBOgjKdEKptJ0JUoYWKNZTmquC2Mt4C5pKaulrbvyKOjR4+6ahByPVnEiysvL6eKqkpKZEIVM+Ejn+aWFtrPcs69e/daMgh5KpIqaaiv50KFI/8iWzbq2YvuEYWT4KIBLO2nzpymPBY9EVis4snlHlSxJf9SaSk1SQNta9kSghSAkK8KsUYEiT0SqbyigjZu3hQRY9tdFyk7vXif91JZGVWws1Me0VjJdogXy0p5QVjkq+EBO/ZGtsLl79xJhwoPRcysA1dE2iXsM8EmJyfTjJkz+delJSVUffkyFzLelLJLZVR1uYrnq6K+6i5FRw7Tzl07HRuf6dnlHkyfMYPPz3zx5Zf5TbVq2ZuCUTr1dXX83xtYKoB89UpLs0gBQgzyznMXztOWbVvp4sWL0lFn8LRIIbw4tquvra2lu++5h5775S9p+LBhVMnyIOSrV6RpeXDUoL4awyKqSAGcBeKsrqnmffZIn7EV1vUUyz5yUiztC55+mh7/wQ8oNTWVyphQIVg5X62orKCy8kv857w6YzNSQHRDSWnvvn20b/9+T4zPDI9IFcsA8k5EVuRBQ4YOpRcWLqRv3X03tTQ383y1hkVTRGIIFilAdW0NL1k5tZT4CQx5OH7yBC8p4cQPNZ5e7tWeOpZzREns+KfedBPPV6dMmcI3VaUsV5KLyPX19bxk1dLWKvJVkySw9/USW4nQysQdAb1GWERaUVnZ7ZhMEksBeCmEiXIq21Rl9OnDo2rFpUu8bNUsXUMD1zd6yLEsOoh8VR108xoaG2hH/g4qLCry7PhMV0QaGPY3rFtH777zju5ZDSNKedklpnDpAAMNAERVjOXBGw6hl1eUUzlbujCsIJJnbLoNTD2odWKEZp1UNXEbzy73mdnZPKc8fuwYLX7zTfqff/yD7+LVwP9qU6pUQi5Z1dXW8t+N5kAJE29tfR0Tt79TAJyoZ8+dpW3bt7McvlQ6Gh48K1IsQX0yM/kfJPK4Mdhrr77K7/2peoOw7hrltLFIihZrGROnfM9QRIwLTLzcEuizfLXDHb9tK504eVI6Gh24IlI1EE2zcnKoV+/eXGQYYLbotdeosLBQ+gkZDZVKwA1ejhYry1llZzhMuDxf9YElENEKK8nuvXu4Oz4U172Hm7CJFOANxq1bcvr1o+SUFH7x1p8/+IA+eP99nnuihmf2Tcfun7dYlflqeTlVcktgYlTedhvv37ETx2nHzvyQThAJFqeWe1dmQRUXF9PixYul77SBIC+zNxvihKiQGgRz+29UB9JYhEazQAZNgtTkFP77lOmHF+GtzPPn6cjRIxH9Wt577z0aOnSo9F3wuJ6T6oE3HxsrlJ1AsPenRyStqqjg+arcUUGzAC1WL1sCceLWsrw7L38HHT5y2PMnm1lcX+7LWe4oe0m1QPkpu29fSuvVy9aSgcgML0DXFmsltwQmJCZ4Sqwt7MQ7eOgQ7WG5JxoaXsCp5d51kcI8EuglVQMvMDUtjYsVBX47wF0VaAksZc+hqvoyr69Gcr6KlOf02TO0PW87tzH6kbAt97iMRCkcLSCg9IwMngagvRcseAz4APCYeGzQ3mJlKUHzlYirr6KkhE0fWpm4E7UX8WwkBYOHDOGOJyTVEA73khosYfjQsphQIVi0QoMF0RtRnFsCpcoBtwSy5xATG8MjazjhLWGWDu3a/TUVHDyou9r4hbCIdOLEiTRw0CB69ic/oUcfe4x6s9yzUhaOgXUMS39OTg5PBawweXQJ3XLDKbZ8tvevsaHCxgoNAWW+eok9D0TscFgCsZ4cKT5KO7/e5dhEunDiqUgauJwjWiSxzRE+iOHDh9Ov/v3f6Y477+S5Iryk2Jnr5qsoMTFho75qZthEWnITPfcv+fT0A3vp5QVbKSG+83ejtYoUAK1WPE80BErZxgrXmLtlCURVA82Hrdu28juzRAueFqmMbM9DNMMlJS+9/DJNmjSJtzchHNlLqgXyVZSrMrOy+AV8WiB6xsa2/55rhlXQ/XMP869l8BgwrSCyypZAPIdQWwKxKapmJ8c2tinCwAWBOmFZ7tkpJn3RDpZwnHW4UvG7Dz5IP/3Zz/h92QO9pFrAsY98tXd6Oo/SgVRc7knHznTeMnvuTScoLraVrr2hjsbNqKWEnu0pAKIo2qsokyktgaivIg92Sqx4rXgsDFzYt39f0PVgvxAWkWotAkgBUEPFUv6zX/yCvscEG8s+0A4vqdSbVwMfPFqrKFmh1RrIX5aOZulE+9cpSc1s81ZHk26rpXHT62jOQ5UUn9jptYSXVWkJBLAEXmJ/kpKTuFjxWHgcrT848dDxwh90u3BfefxBCnHy1ElekA9m4IKXcGq5d6UtCtPIO++8w78uOX+eRo0eTffddx//oLVA9Dx54iR9/tmnVMFyVBkIAJsmtYipBIJGi1UZpWZOPkOPfruASsuT6MUPb6K7f9j5ewt3JNHXq7uLm7dYmbjkaA+hFR06JP2rdZCWhNtC5xYfffQRv42OXVyPpFiaCw4coFdfeYW2bN7cEakCQbSSl1wl2OAgX5W9pFpwSyDLVbklkH0NNuwaRI/8ag79fNEMqqmMp7KznXOoRk5ooJi4GOo991FKv/MJiuuVyY/zFisTO+7B7wR6z1mgjusixUYHwkGN8sslS2jR66/TkSNHpH/tCj5OtY9UFg4qAUYtViyv2ZIlsH356VyCduWmMvG1f53Qo42SBg6ilImzKXnsNMp68HmKTepe5nJqCfMDTr1Xrog0MHoovaSw5/3pvffoow8/5KLrhk7gQaTlLVaFl1QNvFlIE7glkC3bMpfOJdD6/+7N/o6nY/t6UmNVZ0MBkTRtxn3SdwyH3nA/RVJPiVSNDuGwjQ5y00Msz0NUhfm5627e+EPFz6N8hGqAVvoAkF/2zsjgJ4hcrL9wPJFWfZhB279Mo5aqMmo8XcSPg+TRN3UXp1iuXScskVQJF056OhcOckdcRvLqf/wH7czP52NfzDp+8Bi8N8/+D/JVPZSWwEBzSVXuR9TaJKUQ8UzIcV3np9qVqEgXrBO2SBoIFw7b6EA4iIz/+OQTyl210nINERsc+dqnYCyBzWVnqOy/fk31hTuoetP/IKfgx2XsSkws99ZxXaRGl4M46iVl+So8AVYtgc0lJ6nii8VUs/1L/n0XRCQ0jadEqowe/KK5IIQTLEgXLFsCdVqsAvcJS07a4SU10ZsPlZdUC24JZPmxXUugwDnClpP2ZLvwGhbdrHhJsTN32kuqBSI46qvcEujgEq93UkYbns1J8YFPZbvvV+pr6OErjZTa3GzaS4oaZ4dwLJKY0EJJPdprqWpeUjXkligeEx4Cjo9EZhfP5qT4kAdU11DdmQs0urKKftNYS/Oam6iF7cTNeEk7hMPyVbOuJPhHF//bWvrwpVV014xj0tHuXlIt0GKFh9UJ/BRJnSJMy30M9WxppZ5lFVR9tpTm1NbQr5vqaHxLs2kvKYSTgXE9Bl5SkNGrkbIyGlg0baVH7ymgKWM6jcV4DLidzFgCBdbwVCTt/mQ7xZfClt7Yc6VEF8vp8fpa+r9N9dSXRVLZSwrbnB4wTut5ScGlyp5UXdsuZDyVB+9sH+WT0ruF0vq0pwDyeElUH9SMLU7hp0jq3eWeEfjU8X1yTR01nSmh7PJK+hVLAb7L8tVEJhYYkLlwbHhJW1pjaemmEdJ3REP6VVNOdj3d+UQF3fVUBU28pfNuG2geBHpJu+DQGy8wT1hEqkUC+7nkistUzcQ6iUXSf62rod5XmtuFw1IATeFIIJLCtAKxBg4q+/Srq2jXwRz+dWNTLMUkxlJ8YhvX3Oip9TRsTNeIbdYSaBU/RVKnCEtO+lVmH9rJNj9aH1dScwslsuW/9vRF/rVM4FxSLWQvKXJWfA0QTX/7pxvo5Xe/Sc8vvplKzydSQ21nVBwzrX3QbOLga6jHsDH8a6UlUO/ksIJTS6AX8NRyrwS1zuqkJPrrwP60aNgQOqm7Q4/pJuSOuaRMOEZ9fez+ZUsg3rC2thjaXZhDxWfSmehiqGBrZzerd1YL9czpQ5kPPEeZ9/8rpd/1pPQv7ZZAPK4T+CmSejYnhXBkE/Kp5GR6nQn1b/37UZUU8brC/p/G64RwAueSqoE3Ss1LCop2JFPxnvaTpK46llpjUjpKTcljbqbkibP5112wKTKx3FsnLMt9F+GwDU9+em/6zcjhlJvVh650OfuMz0Sll1RPANwSyKK40ksK8pal0dL/zKCVf8qgptJz1FLTed1T6pTbpa8Y8vNyKDr4Ac8u90qUwmljEXZZdjb9dsRw2pOWKi3zahPzuwNxoq4q3/pRT6xqXtLLl+JZfsreitYWqt78GT8G4vv0o5iEAM+AiKSu4/pyr4ZSOFVJPenDQQNp8ZDBlNsvi0p7mDeWwEsq3/pRnkuqhZYlsG7veqre+gW1tTRTU8lJarvS9ffYlZifROrZnFQPpXCKU1NoL0sD2oJ4odxLyoQajJcUwOx84c0FVPaXhdKRTsRi7z6uL/eodbrtJTVqsap5SduaGvjyH4h/4qB9PJuTdgy0ddFLylusyFeteEk1WqwikprH08s9voeXFMIxZUJmQnXCS9phCTTozXMvKYvkvMUa8EbbjaR6J2a04dRrDYtIUSu96eabeTfIrAnZjpdUiRUvKW+xssc0awk0g59E6hSuiDQw7M+cOZPuvOsufifmG6dOtW5CZlHOqnAeubuAfvr9XTQgu91MYsVLivaqXK4SmMfTyz128fjQkZ/ee++99G/PPUcjRoywLByjuaQyWen1dPesY3Tzdefotz/awr5v79PjMWQvqZEl0Cn8FEk9LVIZ5H7NLHIiKj7z7LN8NHl6erpp4RjNJZWpb4gnufXeK6WJHr3nYPs3EvCSdlgCDdIOgfu4ItJuKM4wiAuRNXA0OX7CjHBwtspeUq1RkrUNCZRf0E/6juiGcRcouWczzXqgiuY8UkFZA9t/v6GXFPgoEtrFU5E0ELWnrhxNPm369I7R5KaEw4DYEVGx0cFAtEA++HxMhzs/LraNsgc00oCRTUygzTT7e5XUK7MzFw6VlxT4abl3irAs97iLshZIASA4bKZmzJpFGRntt3A07SVlOSpGSyq9pKC0Ipl++dY02vT1APp0zVV0/nxSRwqA9nynO7/9FFJ6SbuM67EZHfwkUs/mpNgwrVu7lt5/7z0mlPPS0e4gBbhU2vUOcEovqeGcJxZNUZhX9ubPXkylRX+bTH9bNoqa6mPpdGGne3/AVU0Un5RIOU++Sn1/+Cb1GDmRH0eqgXE9HVUHEQldxxWRKs8odJBQfyw+epTeeuMN+vyzz3h0VANyUPNBycJBjdXIS4q6qmwJDARDdGurOt+ChOwBFJ+eQ3Gp6dTn289QQt9h0r8wHBKnU9HFC3g2kuKJy15SRLvt27bpjybX0Qa6VaivYtOl55yX89VALynseZhNWrAlmfKWplHjxVLufgIx8QmUNuN/86850htud7kWy711wpKTAi4cyUuKpVR7NLn+h4rfXQsvKRMrrtnXE4FsCUxXeEkh1L3rU+j4/p7U2lBL9QVb+XHAr3UKmE9q940XkdQ6rohUD6WXFCUn5WhytEqN2qUyfC4pvKQsDTDykuJWPChZBXpJQdXa/6IrZWf4122YTdrWNUKLSGoep16rK7fIycvLo48//lj6ThseFdkuHtY6mEkS2O482KkiEGIay32N2pmI4tVVVV0cUjEJPShp9FRqLj9PTdJ4cqQn+F24J9ORos6R5VapY4/TYLDpixaWLVvWYX20g+vLvV6tE1FN9pIid7Qz9saSl5RF8S5e0iuN3KEvC1SJfxZr+3h2uYfjydJAW8VGxyp4DCe9pCDky46gG66LFJEU0Q3CMesl5cIxWLb1wJLOvaQsX7XkJVXBbmwQGyfruL7cy0A4QQ20tQEaALIl0KjFKo/rcdJLCoRIrRMWkQ4fMYJ++vOf0/gJE1zxkgaC5sHFCxeoxqQlEG1Wp95wkS5Yx/XlHowbP57vkh96+GF69ic/4bcND8pLqujNW4XnqyYtgTCsyHmq3nMzg3/iqHOERaT4oFAiwu4d/lHcNvy73/sev0RE9pIa7ey5l5SlAEZeUiM6vKQG43oE1vF8TgoQCSFWuKJGjxlDL/361zT7llt4i5MPtIVwdPJVvAlGXlKz8Hvcs0huZAm0i8hJrROWSMqevfRFO8gxUaNED37uvHn0wsKFdO2oUe3CYVHVkpc0YC6pVYy8pCKndJ+wRFKt8wtRFT+LP088+SQ9+dRTfFk3a0LmXtKAuaTBgBPCrCXQKn6JpE6+zrBE0v3799MltpSrgRcHsdYyQdbXN1AKy1OBFeF0eEl7y/e4Dw6lJdCp+aR+EamTuC5S1DqPFRfT66+9RiuWL9cchIvlX00YlrykqamO5KtoOrTKEVwnkgtCg+vLvewl7ZGYSBvWr+de0l07d6ou420s6GhJQvaSou2pl6+ixSp7Se20WJ0Sp18iqZOvMyzLPd/oSF5SLN2f/P3v9PbixXTyxAnpJySgCx1tQNhyixVeUj0QmeUWq5EzShWH3nS9nDqa8JxItT4YCEf2kp47d47+39tv039//DFVstyTw1+n8YfK89WKivZ81chLqmixhiOqiUhqnbBE0kCUc0n37N5Nr//+9/xiPURWbKDMgnuT8rmkBrd+xFx8ucWKTZoV/BIJI4mwRlIlOPNkL2lcfDytWrmSNm3caNqZr0QeLxmMl1QQebgeSY1qnV28pDaEg8eQvaSmLIEsBeDjJW20WM0Q6t8fKXhuuVc+YadNyEbIlkCM6zGKyny8JIvkWl5SYHe5t/v//YgrIg38YDpMyGa9pLJwbJydqMeG20sKxMbJOmERKcjMzLTkJXVqoK3sJTVrCYSX1E6L1a94TqSBzJo9m375/PO8N5+VlWXZS8rvcW9DOHgMmFZwghjd+hFeUqQdjuWSPomkThIWkfZmURGlpQEDB9LzL7xA/+vee3kOatZLyu9xj42OTS8p2qrIVY28pIgKcmTQO4lMYff/+5CwLfcQJcRWUVFB10+ZQi//5jd8NDlMyNxLysRj1kuqt9Exg1teUuDkMhjJeH65V4JiOspOWOqVo8mtzCWV89VQe0kdQYjUMmERqdoLwC4+cDR5RkZG2LykqDw47SUVBEdYlnstsSEqokWKG5Ehmj41fwGlpaV1CMdNLylKY7IlUFl5CFF8jTo8F0mVosSTX7FiBe/Na+WcyFfRbTp9+nSXqKj0kur25tljdHhJJdN0sKBbhUiu93iWCFUaEWF4TqRKEOXiWQ6K3jyMzwf279eMrFovE8LBaHJTXlKWMuAx7Y7rkcWl9VzN4uSH5xdcFymWdFk4GM7wt7/+lY97VBtNDjloaoL9A/eSss0VDCV62PaSAiGusBGWnBTIXlK4kI4fP244mlwLK/e4d8JLaluqQuyWcT2SBoISlFzrzNu+nV9OsnnTpvYckH2eZpdXCNSqlxSbNKvYXe61l4bowtM5qRp8oyN5ScHSL7+kPyxaROvXraOqKsmlbxIrXlJcEYBxPa56SX0SST0nUqVYjIQjm5AREc+w3X0w4DFMe0l79OCPZ7bFajeS+mWxt/s+KXFdpGh3uu0lNZpLirPeqRarEU5GmEjGc5FU+YRh5AhqoK2NF40GgFNeUrsRwrn4Etl4ermXUQpHb6PTIRwWWcPiJXUzXxWoEhaRoiePOzH3Yrts2UtqZaCtY15SI0sgWqwsX8VJ0hEXbEYIsdxbxxWRBvLNG2+kqTfdRC++/DLNu/12vmGyMtAW+SoXjo18lXtJ5fGSBl5SpBvyzH7bM6F0TsRowvMihaUOZR94SWfOmkULX3yRrps0qXOgLctXzQgnx4GNjlUvaYtNkdr9/34kbDkpkM0fV5ggH/znf+4YTc69pCaEo8xX3fKSGrVgjTBaKQTdCUskZaFQ+qI9KqLrFDiaPCUlJSgvKQZLBItsCTTTYhXo4/nlXu3pYzMEsWI0+dixY/nlJLhgD1jxkiKqqt0z1ArcS8oez8gSKNDGcyINjIIlLDpqLeMQGqIhhpaNHTuOevdO58e7eEkN8lW5xYo6qx1kLym6V3qRXNAdT4sUpo5tW7fSG3/4Ax09elQ62h3kq4iggXDhXGyfS6onHN5idchLCh8A3FaC8OD6ci8PtEVEfP/dd+kvH32kOZocEmxT6dHIwoHx2RUvqSCshCUnVXpJiwoLdUeTx+isspa9pCwFCNpL6uDy5Qc8n5PKyF5SLO0bN2xQHU2uFkkDMe0lZW+cHS8p0MkwBCEirCIFyo0ONkTK0eQYMW40BkeJG15SuwHCLxr3XCQ184SVXtILFy7w0eRLvvjc0NYXCMQZKi8p0BO/GfySNHh6uTfquMheUlysZ6ZNqYXsJTWaS4o304qX1C8iiyRcFynf6JjwkpoZaGsGpAtWvaQwsWjhl+U6knBFpF1gkctJE7JZrHhJYQe0O67H73huue+CQiBBmZBtCAePYdZLipPCCUugX/F0TopIevXVV/Pbhk+fMYMf6hCOwU5e6SU1u9FRw6qXNIc9pp3H8yPeFin7Gve2hzju+ta36FcvvEDXXHttu3BYrmpWOI7kqya9pDA8O/mmC6zhikjVPmBsjCAMLKW4bfj8BQv4aHLTwpHzVRblUEqyg1lLIND/V0EocD+SKoB40XXCaPJ+/ft3jCaHgdmKlxRFeRTn7fTmcUJ0eEl10o4YAxEb4ReRO7nyhEekAS9AazS5LBxTXlKpxeqIl1S2BKq0WO2KTCQN1gnLbkDrg0JURTREFL33vvvo2R//mO+yg/GSypemBIvwktrDc5E0kPz8fD4gVws4lvhGiokSwpWx4iXl4yWzsx3xkkKsevmxoDueXu5xLdJFJrQ/vvUW/f3jj+kyE5wavOSjokNZOKa8pGixSpZAO/kqln3blzL7DE9HUqUJee/evfT7V1/VHE3exl6nVry05CWV8tWgvaTAoTfdL4mDkymSKyJVEwY3IaN8xKJd7qpV6qPJ8aXBa3XTS+oEzsWXyMbTy70S5UDbOpZvdhtNzl+nuTPSrbmk5p6NIGpEKqMUzsmTJztGkxceOsREVyP9lDF4nFB6SYFfIqFdPCdSs8jCQXTdkZdHO/PzqblFu+SkRai8pMDohBM4j+siRe7otHC0cNpLCmJELDWFp5d79ObD4iVlKYBZL6meJdDMhYF6iDhsnZCLFKJQq4W67iVlJ0QwlkAnIwIQcdg6IRXpiRMn6N3/fIdtgAqlI+3gg8e9Q7mAgxGOhY1OILIlELcrN2MJzOnXj6cfTuGXSBrxyz2Gjv3jk0/oow//zK/8DOS2OXPoqQUL6Oe/+AUNGzbMspcUc0ntCgdT/FAFMGMJRAXATsfKj0S8SN9e/EcqOFAgfdcddICwecJ4R8wkfeTRR6k3i5BWvKQQjtteUoF5Il6kZswYiEzo/CBfHXnVVbTwpZf4aHLknZHqJQW2heyT8wCrKTwaThASkVrZ4HQbTc7EitHkVoTjlpdUYB50ALEfWbF8heUBH4GERKRGHRw1Icn+TwgFo8l/LI0m7yIcg3zVDS+p7WXMuVUwosHKhhMdTZm33niT/b3D1AqrRmhEGqf/a7U2RxAA8lU+mjwjg77/8MM8VwVdvKQ6LxZvjpNeUm4JVEQCkbfqg89w4IABNGrUKOkIi6rs/cPURETW48eOS0fNE5rlPi5wue/8YJFHLl+2jJZ88QUfSKYG0gUU8M+cPtMlKncIh4nVjJcU+arduaTcEiiWf1Pg/lzXTZhIw4YOU9EA8c/tT++/z4R6TDpijpCIVE8UEA5qnbht+O9feYW2btlieRkw6yXlkRmWQJYCIBWwhRRBbS/3UQhWv9HXjuJ/lFdSKMH7duxYMe3YkWeYDgbikki7frCylxTXs3+5ZInuaHK91dWqlxSF+aC9pJI4xXLfCT7n4cOG0cTxE3gUVQOb4lL2GW3evInOnTvHj1mtcYdEpIFnCpbvwAik9JKiXKE5mtxE4LLqJcUlLMF4SYFtg0mUiLxvTl+aNPE6GtB/gGpkxHtdW1dLeXnb6fDhIuloO1rRVovQiDRg45TIBNErNY16qGxkZOEgDThy+HCX0eQwc5i9oQLEadZLirJXMF5SYNdgIkdkr9KLpU0Txo2nq0aO5FdVqNHS2kIHDxbQnt27VctPVkUaw36J46f2eywqIiI2NnSvb2JZbmhs4HfBCwRCQ1SE2FJTU3m007rpgxEQYhrLfY0iJvJhRGA0EPRAqoATCs8NPx8s9ew9qW+wVzcMBxDksKFDKTsrWzrSHayYJ04c58Z1LbAhXrJ0qfSdOUISSS+x3XAZExdaloFnGz7olOQU9ie5WxRDSiB7SXEPzmAFCkLhJXUGby33eH8GDRzEl3YtgeIzLq8o53mnnkBBMDXskIgUdU5EzIulF6mG5SX48ANz0oT4BEpLSaWePdi/ScdknBSOk15SR/DQcp/ZJ5OXlIYOGcKDSyD4nBAM8nfm06GDB02V6SJKpDKohZZcLKGWttZu5mUItyeWZZavJiZ0z2+cEk6keEk5Htg4QUhjRo+ha6+5RtdwXsQ2RDuZQK2kP8FUVxwXKaKVWu0SRpILTKxx8XHdXjjOyGT25BFZ41XO2GjxknIiOJIiEIwYPpyXlNLZe60GcnyUkrZs2cxXKCuMYJutZ370I+k78zi+cUIUfe6556Tv1EEOk947nUc4teudmtixBra5aFWJOsgvq9mZW2ew0TEDhJiGgREGwsdzxMmDn7O/cWrgfyIJnJR9WRAYMniI5kYTxzH2qLDwkOEwjkDwHj/2+OPc5YaAZBXHRYqa58KFC6Xv9MGy0iutl2rJCBG5samRGjSWZ0w8wWMZOaSMwJuGKgDKImaW92gTKSIm2pjw9qrB8072ORwpOkwVlRXSUXMgMn/r7rvp+w89xKs1weK4SNGf/d3vfid9Zw68UdhAKXNZGUTOepSsVCIugMCRb9rtrSNSIJ0wMlHbFWkde41qr9NtUKJDSSkrM0s60p24uFgqLi6ms2fPSkfMM3nyZHpy/nx+5YVdHBfpqVOnaNGiRdJ35sEZ2yejD8XhzFWJjsghEYFQKA4EURe7d4hHbwdvBiT2EKvabhZ4PZLi/YUFcuCAgZpLL9Ix5J1FRV2vTTPDgAED6PEnnqBp06ZJR+zjuEgR0TZt2kSrVq0KKmIksU1SGksBsJwH1jchQERURFY1MeKxISIjh5QR8sZJbcCZlyMpxr0jevZIVF8tsDwj3z906KBlozLSpe/cfz/9n+98p1tt3C6Oi1QGI8ZXrlxJW7du1S2ma4FkGwX/hvruHygEilwVuZIaV1hij3wVf9sBBhhEVWUbr5r93hobm7ZwiBT5JnbtyP/VwImIlero0SNUVlYmHTXP7Nmz6QcsesLDGwpCJlIZDB/7/PPP6fDhw9IRa6Snp/Oev2qLlS39+MC1WqxyvhrMSaIEkQHX/mN59FIkRcNkyJAhfOeutSlE9DRqZWrBS0rPPENjxo6VjoSGkItU5sCBA7RkyRJu27IK3siM9AzemVIrf0CkKFmhlRoIxApR8einkiKYBZdRx2E59IBIIcj+/frR4EGD+XunBk68ixdLqLCw0PKm025JySquiRRgSUG+unr16qAuzkLJCt0plJ0Cc1J81ySVrLTyVURVI4eUFh0ijfDlHisPPJ7JSertR4gKOfvhI4c1p2xr4VRJySquilQGH/Ly5ctp+/btqoIyAtc9YYOlla9iY6VVcIbAka+qTZbWwykXVKhEii7eiGHDNc3HMsXFR1UHdhgxCSWlJ5+k4SNGSEfcIywilUH9DfmqlivfiD59+lBCXLxqyQqRE2JVa39yIUuWQLP5aodIIyyS4jkNHjiI+vfvr7n0ogZ85szpoN7nvmwFeeKpp2j69OnSEfcJq0hlMDv/yy+/DMqaxzc1bIlraW5RFaRcslITI44hKhp5SUEkRtIctpseOmSoZsmHtzIryqmI5Z1GxppAUOy//4EH6DsoKRk0OEJNRIgUYHneuHEjffXVV5bfUACPKvIktbsvI3I2st8Ps7UaEDfyVbX/KyOLFD9nRtRaOCFSvM4Rw0ew/Fw9L8TGCScnLtvA0A0r4P/ixsRPsegZqpKSVSJGpDJI5pcuXUo7d+4MKl/VbbG2tfLjMLCoAZFChGoR2TGRso2blh/BCERG9Nmzs7I0S0p4jsg7g2llulVSskrEiVQGNyP79NNP+fhIqyA3Q74aHxunKlbkq3UoWamUXnBiwCiNzotyCEU4IykEiQveBg8axJ+DGpgzcOH8OV6PtloXRknpXx57jJeUtH5/OIlYkQIIZs+ePby+WllZKR01DzpFuHCs+UqzqiCbrrAUoKGRR9hA8EEj/4RggWMbJ4uRtA/brQ9nu3Yt8zH8ubXVNXSo8JDmsA0tUFLC7dwfevhhV0tKVolokcogX123bh2tXbtWs7Skh1GLVc8SiNwO0VOehOLWco8TDHmnlvkY0bW1tYVFTrQyrTdIwllSsoonRCqDTcCyZcto165d0hFroGuFnbDaBgmRU88SCDFDGPZFypZ7jQ0cgLl68OAhvGOklXciAh4/cZxOBdHKREnpSbYpmhbGkpJVPCVSmWPHjvH6qt5NdLXAB4wltK213VEVCDZNWpZAYHe5r2WRVKt60Y8JSM8djxMMbWW449U2d3p0lJTuv1+zZBWpeFKkAJENFQBUAqy290B7izWVmhqb+O8KBPkqxBr4b3YjqZpIe/XqxbtFeu54bLZQUkK3zAqIxpFWUrKKZ0Uqgw98zZo1PGe1Gl2AUYsV+aPSEuikSBHRUFLKyszUXNpB8bFitnOXbmVpAZSUnn7mGRobYSUlq3hepDK4SAxVgH379qlGRiN0W6wKS6ATIkWaAWf8oIH67nikM6h5Wn09kV5SskrUiFQG1+R89tlnQRWzIQxcxYr5U2pRGSLF1Gm5LKUHhKU2NwpOqv79+muWlJAzY4OISze0clctIMg77ryT3ygDQo0Wok6kAALJy8vjTisU5a2C3BAzACCSYKJyMGC5R4Q9cuQwXxWsMmHiRJo/fz5f4qONqBSpDJZoeFc3bNigWsw3AlEVE1asdoisggh4/PixoKoV2WwzNH/BAk+VlKwS1SKVgbsKJStcHWAV5IyZLF+N02ix2gGtzPNoZRYVWY7YXi4pWcUXIpUpYmLA5kqeOGyFpJ5JvFSEi/us9sYDQeTE5quQ5Z24YNEKckkJF76hMO8HfCVSgGUfV7Dm5uYGVZTHQGDcXhJAMNgIGYGfg9lF5nL15aBOFOSbP3z6aRo3bpx0xB/4TqQy7HXzS663bNliKV+FMyqYmqUSVA6sNCCwU3/okUforrvuioqSklV8K1KZkpISngIcPHhQOqKPmyKN1pKSVXwvUhlc2ov6qtH9MN0S6fgJE2gB27VHY0nJKkKkCrAhwiXXSAO0dvKhFilKSk/Nn883R4J2hEhV0BsRFCqRoqSEchLKStFeUrKKEKkOaiOCnBapH0tKVhEiNYFyRJCTIkW+iW7RBJZ/CrQRIjUJhIVLrlevWqVpXkFqgJ8zAnP47/n2t31bUrKKEKkg4gn9SDSBwCZCpIKIR4hUEPEIkQoiHiFSQcQjRCqIeIRIBRGPEKkg4hEiFUQ8QqSCiEeIVBDxCJEKIh4hUkHEI0QqiHCI/j/Kyb4MMDCdCAAAAABJRU5ErkJggg==;" parent="1" vertex="1">
          <mxGeometry x="1208" y="3600" width="129.01" height="200" as="geometry" />
        </mxCell>
        <mxCell id="hSlGgoTsxbMtLhXprtxP-200" value="" style="shape=image;verticalLabelPosition=bottom;labelBackgroundColor=default;verticalAlign=top;aspect=fixed;imageAspect=0;image=data:image/png,iVBORw0KGgoAAAANSUhEUgAAAWYAAAEzCAYAAAACZalSAAAAAXNSR0IArs4c6QAAAARnQU1BAACxjwv8YQUAAAAJcEhZcwAADsMAAA7DAcdvqGQAABZOSURBVHhe7d17kNdV/cfx9wK73CKEXQFFFroHCAvEJQS5SFwmJLMVAydEJzMvVFPTTJENTKLdyBhqnKw/CjUyB9EEJCBERBAQlKsuTnJbxFh2l4sgyy4s+/N9etsPLyiXXTjf93k+ZnY8n/fXGUc+fF57vudzLlkVFRU1AgCIRj37JwAgEgQzAESGYAaAyBDMABAZghkAIkMwA0BkCGYAiAzBDACRIZgBIDIEMwBEhmAGgMgQzAAQGYIZACJDMANAZAhmAIgMwQwAkSGYASAyBDMARIZgBoDIEMwAEBmCGQAiQzADQGQIZgCIDMEMAJEhmAEgMgQzAESGYAaAyBDMABCZrIqKihprA9GpqamR4uJieeWVV2Tnzp2yY8cO2bVrl5SWlsq+ffukvLxcjh49KpWVlVJVVSVZWVmSnZ0tDRs2lCZNmkhubm74ycvLk/z8fOnQoUP46dSpk7Rt29b+K0BcCGZERYN25cqVsmzZMlm7dq28/PLL8uabb9qntatFixbSpUsX6dmzp/Tq1UuuuOIKadWqlX0KXDgEMy6oY8eOyfLly2XhwoWyaNEiKSoqsk/OP+1tFxQUyLBhw2T48OHSp08fqV+/vn0KnD8EM8676upqeeaZZ+SJJ56QOXPmSFlZmX0SFx3+uPbaa+XrX/966E1rcAPnA8GM8+b111+XGTNmyIMPPhjamaRdu3Zy8803y4033sjYNOocwYw69+KLL8rUqVNl3rx5obecyfTFYmFhoXz3u9+V7t27WxWoXQQz6sySJUtkypQpsmrVKqv4ocMagwcPlrvuuisMcwC1iWBGrVuxYkUI5GeffdYqvg0ZMiT8/9KDRm0hmFFrdNx44sSJMnv27DD/OCX16tWTMWPGyN13380YNM4ZwYxzplPe7rvvPvn1r38tb/99smqamjVrFoY3JkyYwFQ7nDWCGedkzZo1IYQ2btxoFSgd1vjjH/8YFrAAZ4q9MnBWjh8/Lvfcc094AUYov9+6deukf//+8pvf/EZOnDhhVeD00GPGGdu2bZvcdNNNobeMjzZgwAD5y1/+IpdeeqlVgA9HjxlnRJdO9+vXj1A+A7rvR9++fWXp0qVWAT4cwYzTorMsfvGLX4TFFQcOHLAqTtfevXtl1KhR8rvf/c4qwKkxlIGPpNtp3nbbbfLII49YBefilltukWnTpkmDBg2sArwbwYwPdfDgQbn++uvD13HUHt29bubMmdK0aVOrAP+PYMYp6Ub0I0eOlPXr11sFtUm3FX3yySelefPmVgH+izFmfKA9e/bI0KFDCeU6tHr16rD3sx4OAJyMYMb7aFB8+ctfDsc5oW7pHHD9VqJDRsA7CGa8iwbE1VdffUFPEknNhg0bwoyNw4cPWwWpI5jxPzr7Ql/0MXxx/um88LFjx4YVlQDBjEDnKd96663MvriAFi9eHDbgBwhmBPfee688+uijdoULRZdu6xxnpI3pcpD58+fL6NGj2WwnErpdqB5Se9VVV1kFqSGYE7d169aw9wWzAuKSm5srK1euDIfAIj0MZSRMN7gfP348oRwhnbKoO/hl+uG1ODsEc8L0nDo9wRpxev7558Pp4kgPQxmJ0lVneogoPbK4ZWdnh0NtOeg1LQRzgnS+8he/+EUWkWSIrl27yvLly0NIIw0MZSRID00llDOHLtuePn26XSEF9JgTs337dunRo4ccPXrUKsgETZo0CUu3L7vsMqvAM3rMifnxj39MKGegI0eOyMSJE+0K3tFjTogutx4xYkRYfo3Mk5WVJU8//XQ4PxC+0WNOyKRJkwjlDKb3bvLkyXYFzwjmROjp1jpFDpntueeekyVLltgVvCKYE3HPPfdYC5lON5yCbwRzArSXtXbtWrtCptMVgXz78Y1gTgBzYP1ha1DfmJXh3LZt26RLly5s6emMbg2qZzLm5+dbBZ7QY3ZuxowZhLJDuseJ3lv4RI/ZMT0/7jOf+Yzs2bPHKvCkbdu28uqrr4beM3yhx+zYv/71L0LZsd27d8szzzxjV/CEYHZs9uzZ1oJXs2bNshY8YSjDqcrKSmnfvj2nkzh30UUXyc6dOyUnJ8cq8IAes1NLly4llBNw4MCBME8dvhDMTun4MtKgy+3hC8Hs1IIFC6wF7xYtWmQteEEwO1RcXCxbt261K3inU+beeOMNu4IHBLNDK1eutBZSwT33hWB2aNWqVdZCKnRjI/hBMDu0Zs0aayEV3HNfmMfsjO6LcfHFF4cz4pCOpk2byt69e6VePfpaHnAXnfn3v/9NKCforbfeCjsJwgeC2ZktW7ZYC6kpKiqyFjIdwezMjh07rIXUcO/9IJid0X0TkCbuvR8EszO6uARpIpj9IJidKS0ttRZSw733g2B2pry83FpIzb59+6yFTEcwO0Mwp4t77wfB7MzRo0ethdRUVFRYC5mOYHamqqrKWkiNnloDHwhmR44dOxaWZCNNeu/1ZHRkPoLZkaysLGsByGQEsyMNGjRgE5uE1a9fP/wdQObjKXaG05LTxb33g2B2pnHjxtZCapo0aWItZDqC2Zm8vDxrITW5ubnWQqYjmJ1p2bKltZAagtkPgtkZPb0EaeLbkh8EszP5+fnWQmrat29vLWQ6gtmZDh06WAupIZj9IJidIZjTxb33g2B2pmPHjtZCajp16mQtZLqsioqKGmvDAd0voVWrVuHUZKSjWbNmUlJSwrJ8J+gxO6NLsuk5pUfvOaHsB8HsUO/eva2FVPTq1cta8IBgdqhv377WQir69etnLXhAMDtEMKdFhzC4574QzA5deuml8tnPftau4J3OxGndurVdwQOC2anhw4dbC94NGzbMWvCCYHaKhzUd/BL2h3nMTumhrLpE98CBA1aBR7qj3I4dOzi5xBl6zE7paRbXXHONXcGrr371q4SyQwSzY4WFhdaCV9ddd5214AlDGY5VV1fL5z73Odm9e7dV4Ilu8VpUVMQBvA5xRx3TU5PHjx9vV/DmpptuIpSdosfsXHFxcdhHQXvP8EPHlV999dUwZx3+8OvWOf26O2rUKLuCF/rSj1D2i2BOwPe//31rwQvuqW8EcwJ0tzn2UvBj0KBB0qNHD7uCRwRzIn76059aC5nurrvusha8IpgTcdVVV8mAAQPsCpnqS1/6kvTv39+u4BWzMhKycuVKGTJkiNTUcMszkU6Ne+655xjGSAA95oToODMrxTLXDTfcQCgngh5zYnbt2iXdunWTI0eOWAWZQA9b3bRpE/suJ4Iec2LatWsnP/rRj+wKmWLSpEmEckLoMSfo+PHj4Yy4jRs3WgUx69mzpyxdujQssUca6DEnSJfzPvDAA2wXmQEaNmwof/jDHwjlxBDMierevTvzYTPA5MmT5fLLL7crpIKhjITpxkZ6LNGKFSusgpjoCr+nnnqKHeQSRDAnTmdpXHHFFVJWVmYVxEBf9K1atUratGljFaSEX8WJ01kaDz/8MOPNEcnOzpaZM2cSygkjmBG+Mt999912hQvtV7/6VZg1g3QRzAh0G8lvfvObdoUL5c4775Tbb7/drpAqxpjxPzq/+dprr5XFixdbBeeTHmjw97//nZd9IJjxbocPH5arr75aVq9ebRWcD7rz3z/+8Q9p3LixVZAyghnvc/DgQRkxYoSsX7/eKqhLvXr1kvnz58vHPvYxqyB1fGfC+zRv3lzmzp0rBQUFVkFd6dOnT/izJpRxMoIZHygvL08WLlzIkVR1aODAgTJv3rzwixA4GcGMU9LAmDNnjgwbNswqqC3XXHNNGFOmp4wPQjDjQ2lwzJ49m6l0tWjChAnyt7/9TRo1amQV4N14+YfTNn369HCoq06rw5nTneLuu+8+fsnhIxHMOCPPPvusjBs3TkpLS62C03HJJZeEOcq9e/e2CnBqDGXgjOgLKz3UdfDgwVbBR9Gphy+88AKhjNNGMOOMtW3bNswm+PnPfx6+nuOD6RiyDl088cQTYZYLcLoYysA5KSoqkm9961vy4osvWgWqf//+8vvf/14+//nPWwU4ffSYcU46duwoy5Ytk6lTp4aTnFPXokWLEMiLFi0ilHHW6DGj1uzduzcchfTQQw/JiRMnrJoG3c9aZ1vorBWGLXCuCGbUunXr1smUKVNkwYIFUlPj+6+X7gSnmz797Gc/o4eMWkMwo86sXbs2BNbTTz/tLqA1kEeOHCkTJ04MB9sCtYlgRp3bvHmzTJs2TR577DGpqqqyambSbTlvuOEGueOOO6RTp05WBWoXwYzzRhelPPLIIzJjxowwmyOTdO7cWW6++WYZM2aM5ObmWhWoGwQzzjsd1tCN+HUPjscff1zeeOMN+yQuOl+7sLBQxo4dK926dbMqUPcIZlxQOntDx6J1i1H90c35q6ur7dPzS0+n1tV5w4cPDzvqsR81LhSCGVE5dOhQ6E2vWLEiBPamTZukpKTEPq09WVlZoUfcpUsX+cIXvhA2rNcf5mIjBgQzoldWVhbGpLdv3y47d+6U4uJiKS8vD2PW+/fvlyNHjkhlZaUcO3YsBK72fHNycsKWpS1btgxjwjq3uH379tKhQ4fwoy/uLrroIvsvAHEhmAEgMizJBoDIEMwAEBmCGQAiQzADQGQIZgCIDMEMAJEhmAEgMgQzAESGYAaAyBDMABAZghkAIkMwA0BkCGYAiAzBDACRIZgBIDIEMwBEhmAGgMgQzAAQGYIZACJDMANAZAhmAIgMwQwAkSGYASAyBDMARCaroqKixtqoBSdOnJD//Oc/UlxcLGVlZVJeXi5VVVVy7Ngx+zeAzJednS05OTmSm5sreXl5kp+fL5dcconUq0dfrzYQzOdo586dsmzZMlm1apWsW7dOtmzZIm//mdqnQDoaN24sHTt2lG7duknfvn1lwIABIbBx5gjms7B582aZNWuWzJ07V4qKiqwK4L00qL/yla/I6NGjpXPnzlbFRyGYT9PRo0fl0UcflYceekief/55qwI4Xd27d5dbb71Vxo4dKw0bNrQqPgjB/BGOHDkiDzzwgEyfPl327t1rVQBnq3Xr1jJhwgS5/fbbpWnTplbFyQjmU9CXeH/9619l0qRJUlJSYlUAtaVNmzbh+Ro/fjwvDd+DYP4AOm58yy23yEsvvWQVAHWlZ8+ecv/990vXrl2tAn5NnUR7yVOnTpU+ffoQysB5snbtWrnyyivll7/8pVRXV1s1bfSYTWlpqXzjG98IU98AXBg6xU5fsOs4dMoI5rdt2LBBCgsLZffu3VYBcKFcdtllYTqqzodOVfJDGYsWLZKhQ4cSykAkXn/99fBM6rOZqqSDec6cOXL99dfLoUOHrAIgBocPHw6LUp588kmrpCXZYJ43b14YU66srLQKgJjoHjPjxo0LK2xTk+QY8/Lly2XUqFFhNR+AuDVq1Ch8u9WZG6lILphfe+01GThwoOzbt88qAGLXsmXLMGPqU5/6lFV8S2oo46233pIxY8YQykCG0WdW3wfp2HMKkgrm733ve/Lyyy/bFYBM8sorr8gPfvADu/ItmWB+/PHHZebMmXYFIBM9/PDD4Vn2Lokx5v3790tBQUFY3Qcgs7Vq1SocSqHjzl4l0WP+yU9+QigDTuj2u7ornWfue8y63Lpfv35sjgI4Ur9+/XBghdcd6dz3mCdPnkwoA87oM63Ptleue8wvvPCCDBo0SGpqkltDA7iXlZUV5jbrfs7euO4xT5s2jVAGnNJn+7e//a1d+eK2x7xr165wQi/DGIBfOta8ZcuWsFWoJ257zA8++CChDDinz7g+69647TF37txZtm3bZlcAvNL9MzZv3mxXPrjsMet5fYQykIatW7fK+vXr7coHl8H8z3/+01oAUjB//nxr+eAymFM+kgZI0eLFi63lg7sx5rf/f6RNmzbh9AMAacjJyZGSkpKwqb4H7nrMurkJoQykRZ95ffa9cBfMmzZtshaAlHh69t0Fs042B5AeT8++u2DesWOHtQCkxNOz7y6Yd+/ebS0AKfH07LsL5rKyMmsBSEl5ebm1Mp+7YE7lFF0A73bo0CFrZT53wVxZWWktACnx9Oy7C2Z2lAPSdPz4cWtlPnfBDACZjmAGgMgQzAAQGYIZACJDMANAZAhmAIgMwQwAkSGYASAyBDMARIZgBoDIEMwAEBmCGQAiQzADQGQIZgCIDMEMAJEhmAEgMgQzAESGYAaAyBDMABAZghkAIkMwA0BkCGYAiAzBDACRIZgBIDLugjkrK8taAFLi6dl3F8zZ2dnWApCSnJwca2U+d8Hs6eYAOH0NGza0VuZzF8wtW7a0FoCUtGjRwlqZz10w5+XlWQtASjw9++6COT8/31oAUuLp2XcXzJ/85CetBSAlnp59d8F8+eWXWwtASjw9++6CuaCgwFoAUuLp2c+qqKiosbYLNTU10q5dOykvL7cKAO/0xV9xcbGbRSbuesx6Y/r3729XAFIwYMAAVv7FbsSIEdYCkIKhQ4daywd3QxmqtLQ0vKE9fvy4VQB41aBBA9m+fTvzmGN38cUXh682APwbNGiQu4VlLoNZ3XjjjdYC4Nm4ceOs5YfLoQxVWVkpn/70p6WsrMwqALzRnvJrr73magMj5bbHrDfq29/+tl0B8Oi2225zF8rKbY9Z6Vzmjh07yqFDh6wCwItmzZrJli1bXO4o6bbHrHJzc+WOO+6wKwCeTJgwwe02v657zOrNN9+Url27SklJiVUAZLo2bdrIxo0bQ6/ZI9c9ZvXxj39cpkyZYlcAPLj33nvdhrJy32N+x8iRI2XJkiV2BSBTDRkyRObNm2dXPiUTzLrBSe/eveXgwYNWAZBpmjdvLmvWrAkblXnmfijjHXq6wf333+9qoxMgJfrs6jPsPZRVMsGsCgsL5c4777QrAJlEZ2HoM5yCZIYy3lFdXR1u7sKFC60CIHbDhw+Xxx57LGxYlILkglnpghPdGvSll16yCoBYde/ePXSkPM/CeK+khjLeoTd47ty5nA8IRE6fUZ2BkVIoqySDWemKIf0trL+NAcSnR48esmDBArer+z5MssGs3gnnYcOGWQVADHRMWUNZt1VIUdLBrPQr0uzZs8MbX6bSAReWPoP6LOqLvtSGL06W5Mu/U5k1a5Z85zvfYREKcAHo9gk6T/m6666zSrqS7zGfbPTo0bJ69WoZPHiwVQCcDwMHDgwr+gjl/yKY36N9+/Yyf/58+dOf/iStW7e2KoC6oOdz6rOm48m6Ohf/xVDGh9AtQ6dNmxa+XrHZPlB7mjZtGvZK/+EPfxiGMPBuBPNp0HMDNZz1N/u+ffusCuBM6UwoPfJNQ9nbyda1iWA+A2//WYWFKX/+859l+fLlYXk3gA9Xv359ufLKK8Np1l/72tekUaNG9glOhWA+S3v27JGnnnoqzIPWkN6/f799AqBFixYhjHU+su6FzvuaM0Mw14KamhopKiqSDRs2yObNm2Xbtm1h/2c9DFaHPqqqqqSystL+bSDz6cnUOTk5YWhChyT0xd0nPvGJsIS6oKAgHILMuoCzRzADQGSYLgcAkSGYASAyBDMARIZgBoDIEMwAEBmCGQAiQzADQGQIZgCIDMEMAJEhmAEgMgQzAESGYAaAyBDMABAZghkAIkMwA0BkCGYAiAzBDACRIZgBIDIEMwBEhmAGgMgQzAAQFZH/AzickmZzWgM1AAAAAElFTkSuQmCC;" parent="1" vertex="1">
          <mxGeometry x="791.3499999999999" y="3660" width="93.29" height="80" as="geometry" />
        </mxCell>
        <mxCell id="hSlGgoTsxbMtLhXprtxP-201" value="" style="shape=image;verticalLabelPosition=bottom;labelBackgroundColor=default;verticalAlign=top;aspect=fixed;imageAspect=0;image=data:image/png,iVBORw0KGgoAAAANSUhEUgAAAOcAAADzCAYAAAB9swGtAAAAAXNSR0IArs4c6QAAAARnQU1BAACxjwv8YQUAAAAJcEhZcwAADsMAAA7DAcdvqGQAABkKSURBVHhe7Z1pjBXFGoYLcQWjohIBRRYBEZQlcUZRBAQTEpRFBNwAJQgmIAgSjSH6F02UCATwx2VREEE07EIYF/YlQEQUFYFhcUEEZTHuG5en7J60c7noTC+nuvt9ksqpU4dhRux3quqrr763yk8//XTCCCGc4wzvVQjhGBKnEI4icQrhKBKnEI4icQrhKBKnEI4icQrhKBKnEI4icQrhKBKnEI4icQrhKBKnEI4icQrhKBKnEI4icQrhKBKnEI6iy9Yx8/PPP5sjR46Yb775xnz77be2f+zYMfPdd9+Z48ePl7UffvjBnPx/YV9pv/zyi218/W+//Wbbr7/+6v2txv7ZIOedd57XM+bss882Z511lm3nnnuuOeecc2w7//zzTbVq1crahRdeWNYuuOACc9FFF5mLL77YXHLJJebSSy+1fb5eFAaJs5L88ccf5sCBA+bLL780X3zxhW30v/rqK/P111+XNUSYZhDtZZddVtZq165tLr/8cnPFFVeUNcaqVq3qfYWIConzNPz+++9m//795tNPPzWlpaVm165dVpB79+61rfzslVeYoRFpgwYNTL169UzDhg1tu/rqq+1rcFYX/x6J8yQsGXfs2GE+/vhj89FHH5lPPvnE9hEmM6SoPMyoCLZZs2bmmmuuMc2bN7f9pk2bWlGL/0/uxMm+7YMPPjBbtmwx27dvN++9954VpmbBZEGYjRs3Nq1btzbXX3+9bS1atLD7ZfEXmRcn+74NGzaYtWvXmk2bNllhEmgR7kHQCoEWFxdbsd58882mbt263qf5I3PiJCCzbt06U1JSYl/37NnjfSLSCHtWRNqhQwdzyy235EqsqRcnRw3r1683y5YtM2+//bYN3pw4kfttdCapUqWKDTLddtttplOnTubWW2+1s21WSaU4ORdcsmSJmT9/vlm5cqU9FxT5o3r16lagXbp0MV27drVns1kiNeLk4P6NN96wjeUqxxxC+Jx55pl2+XvnnXeaXr162USKtOO0OImsMkO++uqr5q233vpbhowQ/w8iwexP+/XrZ3r06JHaLCcnxckRx/Tp081rr71mU96EqCykJvbp08c8/PDD9ow1TTgjTg77Fy1aZKZMmWJWrFihoI6IFIJJbdq0McOGDbP70zSkGxZcnERbZ82aZV544QWbIidE3Fx55ZXm0UcfNQMGDHA6tbBg4iRl7qWXXjJjxowxBw8e9EaFSI5atWqZJ554wgwcONDJzKTExcly9fXXXzdPP/20+eyzz7xRIQoHub88j/fdd59d/rpCouLcunWrGTVqlE2nE8I1ioqKzPjx422+rwskUgmBfeVTTz1l2rVrJ2EKZ9m8ebN9Rp988kknLkLEPnN++OGHpm/fvmbnzp3eiBDuQ5rgjBkzbCJ+oYh15pw6dapp3769hClSBznaPLsc7RWKWGZOzixZGkycONEbESK9kMAwduzYxM9GIxcnOa+cH5EDK0RWIGeXZS45vEkR6bL2zz//NP3795cwRebgBhTPNs94UkQqztGjR9v/CCGyCM82z3hSRLasXbhwobnnnnu8d0Jkl9mzZ9vbLnETiTi5OdKqVStbOFmIrMNdUWpRUXQ7TiJZ1j777LMSpsgNTEbPPPOM9y4+Qs+cR48etUWYyAISIi9wm4XicVhYxEXomXPu3LkSpsgdJyc1e4EjTkKL85133vF6QuSLuJ/90OLctm2b1xMiX7z//vteLx5Ci/Pw4cNeT4h8EfezH1qcrL2FyCM//vij14uH0OIUQsSDxCmEo0icQjiKxCmEo0icQjiKxCmEo0icQjiKxCmEo0icQjiKxCmEo0icQjiKxCmEo0icQjiKxCmEo0icQjhKaHFWq1bN6wmRL6pXr+714iG0OC+99FKvJ0S+qFmzpteLh9DipJi0EHkk7mc/tDg7derk9YTIFx07dvR68RC6qPSxY8dMgwYNVLtW5AqKSu/du9dceOGF3kj0hJ45qXg9aNAg750Q+WDw4MGxChMiMzJq3bq1ymSKXJAqIyN+2EmTJpkqVap4I0JkE57xyZMnxy5MiESc0LVrVzNixAjvnRDZhGe8W7du3rt4icw8F7DkfuCBB2Q7LzJJz549zcyZM80ZZ0Q2p52WSL8LP/T06dNN7969vREhsgHCfPnllxMTJkT+nc4880wr0GHDhnkjQqSbIUOGmBkzZthnO0kiXdaWZ+rUqebxxx+Xn4pIJeeee655/vnnzcCBA72RZIlVnLB9+3bTt29f8+mnn3ojQrhP06ZN7TK2RYsW3kjyxL6Avvbaa83GjRvtDHrWWWd5o0K4CUvXRx991Kxfv76gwoTYZ84gmI0+9thjZsOGDd6IEO5www03mPHjx5uWLVt6I4UludDTScjif/fdd80rr7xi6tWr540KUVjq169vg5grV650RpiQ6MwZ5LfffrNr+jFjxpivvvrKGxUiOWrXrm23WwR8zj77bG/UHQomTp9ffvnFzqTjxo0zu3fv9kaFiA9uUY0aNcoGKs855xxv1D0KLk6fP/74w7z55pvmP//5j3nnnXfMiRNO/FgiI5ATe/PNN5vhw4eb22+/PdFkgsrijDiDfPzxx3YPMHfuXHPo0CFvVIiKU6NGDXP33XfbK17XXHONN5oOnBSnz6+//mpn09mzZ5vly5fb90L8ExzZtW/f3i5bu3fvbpMJ0ojT4gxy/PhxM2/ePDubrl271vz+++/eJ0L8dT7Ztm1b06NHD9OrVy97jTHtpEacQRDqkiVLzMKFC82KFSvM999/730i8sT5559vbr31VtOlSxd7ZTELggySSnEG4Uhm3bp1ZunSpTaQ9MknnyiYlFEI6rBvpLAWheUQpsvR1rCkXpzloWTKqlWrTElJiV3+7tmzR2JNKYjxqquuslHWdu3aWVHWqlXL+zT7ZE6c5UGsa9assbPrpk2bbO0XVQp0EwI3ZOgUFRXZVDpESaJAXsm8OMtDxJebMlu2bLFC/eijj8yHH35ofvjhB+9PiCRgOcrNDy5GFBcXm+uvv972XczUKRS5E+epIPK7Y8cOu1/ljBXB8p66pIoKh4MoKhk5CLF58+amWbNmtl199dWJX15OGxLnaSDYxJ51586dprS01Hz55ZdWsH47+W/n/cl8w7niFVdcYUVIY5/YuHFj2xo2bKirgpVE4qwkFDMjYf+LL76wDeF+/vnn5uuvvy5rBw8etMc+aYbCyQRhLrvsMtvoI8TLL7/cvtLYF6YhHS5tSJwxQ2L/kSNHzDfffGODU/SxsPjuu++scHmlcVb7448/2kafryNwxR452Hz4nF8QgDCCRwrs24KNQAufcy6IbR1WAvQvuOAC2xAgr1Tvpx4rznGcGdK0BywcocXJ0o7/2ULkDX6RxulPG3otIgsGkVfifvZDi5PSI0Lkkbif/dDipOyIEHmEdNE4Cb3nrFOnjj1uSOu1HCEqA7EWjoniLLETeuY8evSomTJlivdOiHxAxQ6i7nESeuYkUkvInfU3IXghsg5HYuQA88oMGheRnBzzQw4dOtR7J0S2wTuFZz5uIhEnLFq0yFbQEyLL8IzzrCdBJMtaHzJVqEVLmQghssb8+fNNv379bKVIH+eXtT6kkw0YMEDmuSJzIEyMoYPCjJtIxQlcsXrwwQfNxIkTvREh0s2LL75o+vfvb28pJUnk4gR+u1Dm/pFHHlHVAZFauFyACTTmW4W41xvpnvNUXHfdddZuoUmTJt6IEO6DnyyzJdUyTkdq9pynghIgN954o3UIVlUB4Tqs+iZMmGBuuummfxRm3MQ+cwZp3bq1GTt2rGnTpo03IoQ7UAAO49yKJLSneuYMsnXrVltvlHD0/v37vVEhCsu+ffvsKUOHDh2cumWV6MwZhBv2hKZHjx6dq1qkwh1IWn/uuefMtGnTbPCnMsQ5cxZMnD7cZrn//vvNyJEjbWEoIeKGmZIYyKxZs0KfJmRanD5Vq1Y1d9xxh3nooYfs0pdq30JECYXFCfbgXBdVMkEuxBmE+qYkMuCrWLNmTW9UiIrDta45c+bYK17UJI6a3InTh4pxuBDfe++9pnPnzqp/Kv4VHNmtXLnSLlsXLFgQayJMbsUZhPKNd911l+nTp4/10FC1cBEEQbJsRYzkdlOKNAkkznIgVPanGKViA0ctVpE/8LehhtWyZcvM4sWLExNkEInzNHAkQzYHy18CSWnz/RcVAz8bCmshSoyTC527LXFWAEql4OXIHpXlr45n0g0eNSxXV69ebQUZZ0GtyiBxhgCxtm3b1goVz8cWLVpk2g05zZAIsG3bNrN582azceNGs379enPgwAHvUzeROCOEZTA3ZfCD5BVPSJr2rcmC7wtLVOwWyWnFL5VLEkE/mDQgccYMRzT4RfrekTT2rvXr11dUOCREUcnI8b1P/caVrKQvL8eBxFkgmGUpHIzPZKNGjaztne9BSVMh7b9AgNgf+r6lFBnftWuXbfTTNhtWBInTQUg3xJcSwdatW7fMrzLoZUnj2CfNYFNY3nPU9yT1fUkJ0iRZW8clJM4UQ/DJ97okOIX/JT6YQV9MGn6Z/Fuy96XP1/mNGZyldzCQRd/PPz5x4sTfblXQZ8nIjEWfxpED54I0Hig8QH1vUN8nlFS3oJcoLfj3iv/FaXHy0OFTKETe4BdpnIkPoS9by4JB5JW4L2WEFmerVq28nhD5Iu5nP7Q4SZkTIo907NjR68VD6D0nQQSOFVSfVuQJgnccG8UZjQ89cxJ5HDRokPdOiHwwePDg2I/JQs+cQMidspeHDx/2RoTILpxQUNOWY7E4iaQ0Jj/spEmTVPdHZB6e8cmTJ8cuTIhEnNC1a1czYsQI750Q2YRnvFu3bt67eIlkWeuDBSC1aGUBKLJIz549zcyZM60PbRJE+l34oadPn2569+7tjQiRDRAmxtBJCRMi/05csUKgWKcJkQWGDBliZsyYkfj1wUiXteWZOnWq9ek8+T28ESHSA1cCqQw/cOBAbyRZYhUnbN++3fTt29derhUiLTRt2tQuYylrUyhiX0BTAoR6MMygKgotXIelKzaA1C8qpDAh9pkzCPZqWHhv2LDBGxHCHSgAN378eNOyZUtvpLAkF3o6CVn8lDfEhr5evXreqBCFhVpRBDGxcHBFmJDozBmEm/qs6ceMGeNcLVKRDygzw3aLgA/VJlyjYOL0oQwGM+m4cePM7t27vVEh4oNbVKNGjbKBymDpF9couDh9KBCFbyJWbZTbpy6OEFFBTiyFxYcPH26tO5JMJqgszogzCHVN2QPMnTvXHDp0yBsVouLUqFHD+rxyxSttPjpOitOH6nHMprNnzzbLly/PdP1TER0c2bVv394uW7t3757a+sJOizMI5RvnzZtnZ9O1a9faQsZC+HA+iScOtpC9evWy1xjTTmrEGQShLlmyxCxcuNDawFGDVeQP6vviz9qlSxd7ZTELggySSnEG4UgGi7ilS5faQBKeHAomZROCOuwbKaxFYTmE6XK0NSypF2d5KJmyatUqU1JSYpe/eHVIrOkEMeKvSpQVz1VEid1FXsicOMuDWNesWWNnV6zmqP2iSoFuQuCGDJ2ioiKbSocoSRTIK5kXZ3mI+HJTBj9IhIo/JL6QeIiI5GA5ys0PLkYUFxdbv1T6LmbqFIrcifNUEPndsWNHmYckguU9dUkVFQ4HUVQychBi8+bNy/xP8UNN+vJy2pA4TwPBJvasO3fuNKWlpdbuzvegpJ38t/P+ZL7hXBH7Q9+3lH0inqY0/E11VbBySJyVhGJmJOwHfSoxkC3vZcmxT5qhcHLQc5Q+QvT9SGnsC9OQDpc2JM6YIbE/6HlJHwuLoC8mjbNarBRp9H1PTfbIwebD5/yCAIQRPFJg3xZsBFr4nHNBbOuwEqDve4P6PqFU76ceK85xnBnStAcsHKHFydJOBroij/CLtFq1at676Am9FpEFg8grcT/7ocVJ6REh8kjcz35ocVJ2RIg8QrponITec9apU8ceN6T1Wo4QlYFYC8dEcZbYCT1zHj161EyZMsV7J0Q+oGIHUfc4CT1zEqkl5M76mxC8EFmHIzFygHllBo2LSE6O+SGHDh3qvRMi2+CdwjMfN5GIExYtWmQr6AmRZXjGedaTIJJlrQ+ZKtSipUyEEFlj/vz5pl+/frZSpI/zy1of0skGDBgg81yRORAmxtBBYcZNpOIErlg9+OCDZuLEid6IEOnmxRdfNP3797e3lJIkcnECv10oc//II4+o6oBILVwuwAQa861C3OuNdM95Kq677jprt9CkSRNvRAj3wU+W2ZJqGacjNXvOU0EJkBtvvNE6BKuqgHAdVn0TJkwwN9100z8KM25inzmDtG7d2owdO9a0adPGGxHCHSgAh3FuRRLaUz1zBtm6dautN0o4ev/+/d6oEIVl37599pShQ4cOTt2ySnTmDMINe0LTo0ePzlUtUuEOJK0/99xzZtq0aTb4UxninDkLJk4fbrPcf//9ZuTIkbYwlBBxw0xJDGTWrFmhTxMyLU6fqlWrmjvuuMM89NBDdulLtW8hooTC4gR7cK6LKpkgF+IMQn1TEhnwVaxZs6Y3KkTF4VrXnDlz7BUvahJHTe7E6UPFOFyI7733XtO5c2fVPxX/Co7sVq5caZetCxYsiDURJrfiDEL5xrvuusv06dPHemioWrgIgiBZtiJGcrspRZoEEmc5ECr7U4xSsYGjFqvIH/jbUMNq2bJlZvHixYkJMojEeRo4kiGbg+UvgaS0+f6LioGfDYW1ECXGyYXO3ZY4KwClUvByZI/K8lfHM+kGjxqWq6tXr7aCjLOgVmWQOEOAWNu2bWuFiudjixYtMu2GnGZIBNi2bZvZvHmz2bhxo1m/fr05cOCA96mbSJwRwjKYmzL4QfKKJyRN+9ZkwfeFJSp2i+S04pfKJYmgH0wakDhjhiMa/CJ970gae9f69esrKhwSoqhk5Pjep37jSlbSl5fjQOIsEMyyFA7GZ7JRo0bW9s73oKSpkPZfIEDsD33fUoqM79q1yzb6aZsNK4LE6SCkG+JLiWDr1q1b5lcZ9LKkceyTZrApLO856nuS+r6kBGmSrK3jEhJniiH45HtdEpzC/xIfzKAvJg2/TP4t2fvS5+v8xgzO0jsYyKLv5x+fOHHib7cq6LNkZMaiT+PIgXNBGg8UHqC+N6jvE0qqW9BLlBb8e8X/4rQ4eejwKRQib/CLNM7Eh9CXrWXBIPJK3JcyQouzVatWXk+IfBH3sx9anKTMCZFHOnbs6PXiIfSekyACxwqqTyvyBME7jo3ijMaHnjmJPA4aNMh7J0Q+GDx4cOzHZKFnTiDkTtnLw4cPeyNCZBdOKKhpy7FYnERSGpMfdtKkSar7IzIPz/jkyZNjFyZEIk7o2rWrGTFihPdOiGzCM96tWzfvXbxEsqz1wQKQWrSyABRZpGfPnmbmzJnWhzYJIv0u/NDTp083vXv39kaEyAYIE2PopIQJkX8nrlghUKzThMgCQ4YMMTNmzEj8+mCky9ryTJ061fp0nvwe3ogQ6YErgVSGHzhwoDeSLLGKE7Zv32769u1rL9cKkRaaNm1ql7GUtSkUsS+gKQFCPRhmUBWFFq7D0hUbQOoXFVKYEPvMGQR7NSy8N2zY4I0I4Q4UgBs/frxp2bKlN1JYkgs9nYQsfsobYkNfr149b1SIwkKtKIKYWDi4IkxIdOYMwk191vRjxoxxrhapyAeUmWG7RcCHahOuUTBx+lAGg5l03LhxZvfu3d6oEPHBLapRo0bZQGWw9ItrFFycPhSIwjcRqzbK7VMXR4ioICeWwuLDhw+31h1JJhNUFmfEGYS6puwB5s6daw4dOuSNClFxatSoYX1eueKVNh8dJ8XpQ/U4ZtPZs2eb5cuXZ7r+qYgOjuzat29vl63du3dPbX1hp8UZhPKN8+bNs7Pp2rVrbSFjIXw4n8QTB1vIXr162WuMaSc14gyCUJcsWWIWLlxobeCowSryB/V98Wft0qWLvbKYBUEGSaU4g3Akg0Xc0qVLbSAJTw4Fk7IJQR32jRTWorAcwnQ52hqW1IuzPJRMWbVqlSkpKbHLX7w6JNZ0ghjxVyXKiucqosTuIi9kTpzlQaxr1qyxsytWc9R+UaVANyFwQ4ZOUVGRTaVDlCQK5JXMi7M8RHy5KYMfJELFHxJfSDxERHKwHOXmBxcjiouLrV8qfRczdQpF7sR5Koj87tixo8xDEsHynrqkigqHgygqGTkIsXnz5mX+p/ihJn15OW1InKeBYBN71p07d5rS0lJrd+d7UNJO/tt5fzLfcK6I/aHvW8o+EU9TGv6muipYOSTOSkIxMxL2gz6VGMiW97Lk2CfNUDg56DlKHyH6fqQ09oVpSIdLGxJnzJDYH/S8pI+FRdAXk8ZZLVaKNPq+pyZ75GDz4XN+QQDCCB4psG8LNgItfM65ILZ1WAnQ971BfZ9QqvdTjxXnOM4MadoDFg6JUwhH0VpECEeROIVwFIlTCEeROIVwFIlTCEeROIVwFIlTCEeROIVwFIlTCEeROIVwFIlTCEeROIVwFIlTCEeROIVwFIlTCEeROIVwFIlTCCcx5r+eZvZeN1I9KQAAAABJRU5ErkJggg==;" parent="1" vertex="1">
          <mxGeometry x="1735.25" y="3649.02" width="105.5" height="110.98" as="geometry" />
        </mxCell>
        <mxCell id="hSlGgoTsxbMtLhXprtxP-202" value="" style="image;aspect=fixed;perimeter=ellipsePerimeter;html=1;align=center;shadow=0;dashed=0;spacingTop=3;image=img/lib/active_directory/web_server.svg;" parent="1" vertex="1">
          <mxGeometry x="998" y="3615" width="116" height="145" as="geometry" />
        </mxCell>
        <mxCell id="hSlGgoTsxbMtLhXprtxP-203" value="Client" style="rounded=1;whiteSpace=wrap;html=1;" parent="1" vertex="1">
          <mxGeometry x="778" y="3820" width="120" height="40" as="geometry" />
        </mxCell>
        <mxCell id="hSlGgoTsxbMtLhXprtxP-204" value="Web" style="rounded=1;whiteSpace=wrap;html=1;" parent="1" vertex="1">
          <mxGeometry x="996" y="3820" width="120" height="40" as="geometry" />
        </mxCell>
        <mxCell id="hSlGgoTsxbMtLhXprtxP-205" value="Web Server" style="rounded=1;whiteSpace=wrap;html=1;" parent="1" vertex="1">
          <mxGeometry x="1212.5" y="3820" width="120" height="40" as="geometry" />
        </mxCell>
        <mxCell id="hSlGgoTsxbMtLhXprtxP-206" value="WAS" style="rounded=1;whiteSpace=wrap;html=1;" parent="1" vertex="1">
          <mxGeometry x="1473.43" y="3820" width="120" height="40" as="geometry" />
        </mxCell>
        <mxCell id="hSlGgoTsxbMtLhXprtxP-207" value="DB" style="rounded=1;whiteSpace=wrap;html=1;" parent="1" vertex="1">
          <mxGeometry x="1728" y="3820" width="120" height="40" as="geometry" />
        </mxCell>
        <mxCell id="hSlGgoTsxbMtLhXprtxP-208" value="" style="shape=flexArrow;endArrow=classic;html=1;rounded=0;entryX=0;entryY=0.25;entryDx=0;entryDy=0;exitX=0.994;exitY=0.228;exitDx=0;exitDy=0;exitPerimeter=0;" parent="1" edge="1">
          <mxGeometry width="50" height="50" relative="1" as="geometry">
            <mxPoint x="1110.654" y="3694.0299999999997" as="sourcePoint" />
            <mxPoint x="1205.35" y="3695.9700000000003" as="targetPoint" />
          </mxGeometry>
        </mxCell>
        <mxCell id="hSlGgoTsxbMtLhXprtxP-209" value="" style="shape=flexArrow;endArrow=classic;html=1;rounded=0;entryX=0;entryY=0.25;entryDx=0;entryDy=0;exitX=0.994;exitY=0.228;exitDx=0;exitDy=0;exitPerimeter=0;" parent="1" edge="1">
          <mxGeometry width="50" height="50" relative="1" as="geometry">
            <mxPoint x="1352" y="3694" as="sourcePoint" />
            <mxPoint x="1447" y="3696" as="targetPoint" />
          </mxGeometry>
        </mxCell>
        <mxCell id="hSlGgoTsxbMtLhXprtxP-210" value="" style="shape=flexArrow;endArrow=classic;html=1;rounded=0;entryX=0;entryY=0.25;entryDx=0;entryDy=0;exitX=0.994;exitY=0.228;exitDx=0;exitDy=0;exitPerimeter=0;" parent="1" edge="1">
          <mxGeometry width="50" height="50" relative="1" as="geometry">
            <mxPoint x="1628" y="3694" as="sourcePoint" />
            <mxPoint x="1723" y="3696" as="targetPoint" />
          </mxGeometry>
        </mxCell>
        <mxCell id="hSlGgoTsxbMtLhXprtxP-212" value="" style="shape=flexArrow;endArrow=classic;html=1;rounded=0;entryX=0;entryY=0.25;entryDx=0;entryDy=0;" parent="1" edge="1">
          <mxGeometry width="50" height="50" relative="1" as="geometry">
            <mxPoint x="1715" y="3740" as="sourcePoint" />
            <mxPoint x="1618" y="3740" as="targetPoint" />
          </mxGeometry>
        </mxCell>
        <mxCell id="hSlGgoTsxbMtLhXprtxP-213" value="" style="shape=flexArrow;endArrow=classic;html=1;rounded=0;entryX=0;entryY=0.25;entryDx=0;entryDy=0;" parent="1" edge="1">
          <mxGeometry width="50" height="50" relative="1" as="geometry">
            <mxPoint x="1445" y="3740" as="sourcePoint" />
            <mxPoint x="1348" y="3740" as="targetPoint" />
          </mxGeometry>
        </mxCell>
        <mxCell id="hSlGgoTsxbMtLhXprtxP-214" value="" style="shape=flexArrow;endArrow=classic;html=1;rounded=0;entryX=0;entryY=0.25;entryDx=0;entryDy=0;" parent="1" edge="1">
          <mxGeometry width="50" height="50" relative="1" as="geometry">
            <mxPoint x="1206.5" y="3740" as="sourcePoint" />
            <mxPoint x="1109.5" y="3740" as="targetPoint" />
          </mxGeometry>
        </mxCell>
        <mxCell id="hSlGgoTsxbMtLhXprtxP-215" value="" style="shape=flexArrow;endArrow=classic;html=1;rounded=0;entryX=0;entryY=0.25;entryDx=0;entryDy=0;exitX=0.994;exitY=0.228;exitDx=0;exitDy=0;exitPerimeter=0;" parent="1" edge="1">
          <mxGeometry width="50" height="50" relative="1" as="geometry">
            <mxPoint x="891.154" y="3693.2" as="sourcePoint" />
            <mxPoint x="985.8499999999999" y="3695.1400000000003" as="targetPoint" />
          </mxGeometry>
        </mxCell>
        <mxCell id="hSlGgoTsxbMtLhXprtxP-216" value="" style="shape=flexArrow;endArrow=classic;html=1;rounded=0;entryX=0;entryY=0.25;entryDx=0;entryDy=0;" parent="1" edge="1">
          <mxGeometry width="50" height="50" relative="1" as="geometry">
            <mxPoint x="987" y="3739.17" as="sourcePoint" />
            <mxPoint x="890" y="3739.17" as="targetPoint" />
          </mxGeometry>
        </mxCell>
        <mxCell id="xKEsdZFjPjx4q3_HCsAW-130" value="" style="edgeStyle=orthogonalEdgeStyle;rounded=0;orthogonalLoop=1;jettySize=auto;html=1;" parent="1" source="hSlGgoTsxbMtLhXprtxP-81" target="xKEsdZFjPjx4q3_HCsAW-129" edge="1">
          <mxGeometry relative="1" as="geometry" />
        </mxCell>
        <mxCell id="hSlGgoTsxbMtLhXprtxP-81" value="이야기 생성" style="rounded=1;whiteSpace=wrap;html=1;" parent="1" vertex="1">
          <mxGeometry x="1480" y="1520" width="440" height="40" as="geometry" />
        </mxCell>
        <mxCell id="xKEsdZFjPjx4q3_HCsAW-135" style="edgeStyle=orthogonalEdgeStyle;rounded=0;orthogonalLoop=1;jettySize=auto;html=1;exitX=0.5;exitY=1;exitDx=0;exitDy=0;entryX=0.5;entryY=0;entryDx=0;entryDy=0;" parent="1" source="hSlGgoTsxbMtLhXprtxP-90" target="xKEsdZFjPjx4q3_HCsAW-133" edge="1">
          <mxGeometry relative="1" as="geometry" />
        </mxCell>
        <mxCell id="xKEsdZFjPjx4q3_HCsAW-159" value="" style="edgeStyle=orthogonalEdgeStyle;rounded=0;orthogonalLoop=1;jettySize=auto;html=1;dashed=1;" parent="1" source="hSlGgoTsxbMtLhXprtxP-90" target="xKEsdZFjPjx4q3_HCsAW-158" edge="1">
          <mxGeometry relative="1" as="geometry" />
        </mxCell>
        <mxCell id="hSlGgoTsxbMtLhXprtxP-90" value="일관적인 이미지 생성" style="rounded=1;whiteSpace=wrap;html=1;" parent="1" vertex="1">
          <mxGeometry x="1640" y="2110" width="120" height="40" as="geometry" />
        </mxCell>
        <mxCell id="hSlGgoTsxbMtLhXprtxP-92" value="이야기 공유" style="rounded=1;whiteSpace=wrap;html=1;" parent="1" vertex="1">
          <mxGeometry x="1640" y="2710" width="120" height="40" as="geometry" />
        </mxCell>
        <mxCell id="xKEsdZFjPjx4q3_HCsAW-172" style="edgeStyle=orthogonalEdgeStyle;rounded=0;orthogonalLoop=1;jettySize=auto;html=1;exitX=0.5;exitY=1;exitDx=0;exitDy=0;entryX=0.5;entryY=0;entryDx=0;entryDy=0;dashed=1;" parent="1" source="hSlGgoTsxbMtLhXprtxP-93" target="hSlGgoTsxbMtLhXprtxP-92" edge="1">
          <mxGeometry relative="1" as="geometry" />
        </mxCell>
        <mxCell id="xKEsdZFjPjx4q3_HCsAW-174" value="" style="edgeStyle=orthogonalEdgeStyle;rounded=0;orthogonalLoop=1;jettySize=auto;html=1;" parent="1" source="hSlGgoTsxbMtLhXprtxP-93" target="xKEsdZFjPjx4q3_HCsAW-173" edge="1">
          <mxGeometry relative="1" as="geometry" />
        </mxCell>
        <mxCell id="hSlGgoTsxbMtLhXprtxP-93" value="이야기 보기" style="rounded=1;whiteSpace=wrap;html=1;" parent="1" vertex="1">
          <mxGeometry x="1640" y="2600" width="120" height="40" as="geometry" />
        </mxCell>
        <mxCell id="xKEsdZFjPjx4q3_HCsAW-86" value="" style="edgeStyle=orthogonalEdgeStyle;rounded=0;orthogonalLoop=1;jettySize=auto;html=1;" parent="1" source="hSlGgoTsxbMtLhXprtxP-101" target="xKEsdZFjPjx4q3_HCsAW-84" edge="1">
          <mxGeometry relative="1" as="geometry" />
        </mxCell>
        <mxCell id="hSlGgoTsxbMtLhXprtxP-101" value="직접 작성 선택" style="rounded=1;whiteSpace=wrap;html=1;" parent="1" vertex="1">
          <mxGeometry x="1480" y="1780" width="120" height="40" as="geometry" />
        </mxCell>
        <mxCell id="xKEsdZFjPjx4q3_HCsAW-122" value="" style="edgeStyle=orthogonalEdgeStyle;rounded=0;orthogonalLoop=1;jettySize=auto;html=1;" parent="1" source="VNWk7h2PgLa32eGh_eu3-52" target="hSlGgoTsxbMtLhXprtxP-113" edge="1">
          <mxGeometry relative="1" as="geometry" />
        </mxCell>
        <mxCell id="hSlGgoTsxbMtLhXprtxP-103" value="AI 도움 작성 선택" style="rounded=1;whiteSpace=wrap;html=1;" parent="1" vertex="1">
          <mxGeometry x="1800.64" y="1781.5" width="120" height="38.5" as="geometry" />
        </mxCell>
        <mxCell id="VNWk7h2PgLa32eGh_eu3-59" style="edgeStyle=orthogonalEdgeStyle;rounded=0;orthogonalLoop=1;jettySize=auto;html=1;exitX=0.5;exitY=1;exitDx=0;exitDy=0;entryX=1;entryY=0.5;entryDx=0;entryDy=0;" edge="1" parent="1" source="hSlGgoTsxbMtLhXprtxP-113" target="VNWk7h2PgLa32eGh_eu3-26">
          <mxGeometry relative="1" as="geometry" />
        </mxCell>
        <mxCell id="hSlGgoTsxbMtLhXprtxP-113" value="AI 도움 작성" style="rounded=1;whiteSpace=wrap;html=1;" parent="1" vertex="1">
          <mxGeometry x="1800.6399999999999" y="1921.5" width="120" height="40" as="geometry" />
        </mxCell>
        <mxCell id="hSlGgoTsxbMtLhXprtxP-78" value="&lt;font style=&quot;font-size: 20px;&quot;&gt;&lt;b style=&quot;&quot;&gt;USER&lt;/b&gt;&lt;/font&gt;" style="rounded=1;whiteSpace=wrap;html=1;" parent="1" vertex="1">
          <mxGeometry x="50" y="1450" width="1870" height="40" as="geometry" />
        </mxCell>
        <mxCell id="xKEsdZFjPjx4q3_HCsAW-114" style="edgeStyle=orthogonalEdgeStyle;rounded=0;orthogonalLoop=1;jettySize=auto;html=1;exitX=0.5;exitY=1;exitDx=0;exitDy=0;entryX=0.5;entryY=0;entryDx=0;entryDy=0;" parent="1" source="hSlGgoTsxbMtLhXprtxP-79" target="hSlGgoTsxbMtLhXprtxP-86" edge="1">
          <mxGeometry relative="1" as="geometry" />
        </mxCell>
        <mxCell id="xKEsdZFjPjx4q3_HCsAW-115" style="edgeStyle=orthogonalEdgeStyle;rounded=0;orthogonalLoop=1;jettySize=auto;html=1;exitX=0.5;exitY=1;exitDx=0;exitDy=0;entryX=0.5;entryY=0;entryDx=0;entryDy=0;" parent="1" source="hSlGgoTsxbMtLhXprtxP-79" target="hSlGgoTsxbMtLhXprtxP-88" edge="1">
          <mxGeometry relative="1" as="geometry" />
        </mxCell>
        <mxCell id="xKEsdZFjPjx4q3_HCsAW-121" style="edgeStyle=orthogonalEdgeStyle;rounded=0;orthogonalLoop=1;jettySize=auto;html=1;exitX=0.5;exitY=1;exitDx=0;exitDy=0;" parent="1" source="hSlGgoTsxbMtLhXprtxP-79" target="xKEsdZFjPjx4q3_HCsAW-7" edge="1">
          <mxGeometry relative="1" as="geometry" />
        </mxCell>
        <mxCell id="hSlGgoTsxbMtLhXprtxP-79" value="이야기 목록 조회" style="rounded=1;whiteSpace=wrap;html=1;" parent="1" vertex="1">
          <mxGeometry x="50" y="1520" width="540" height="40" as="geometry" />
        </mxCell>
        <mxCell id="hSlGgoTsxbMtLhXprtxP-85" style="edgeStyle=orthogonalEdgeStyle;rounded=0;orthogonalLoop=1;jettySize=auto;html=1;exitX=0.5;exitY=1;exitDx=0;exitDy=0;fontSize=12;startSize=8;endSize=8;entryX=0;entryY=0.5;entryDx=0;entryDy=0;" parent="1" source="hSlGgoTsxbMtLhXprtxP-86" target="hSlGgoTsxbMtLhXprtxP-107" edge="1">
          <mxGeometry relative="1" as="geometry">
            <mxPoint x="132.5" y="1730" as="targetPoint" />
          </mxGeometry>
        </mxCell>
        <mxCell id="hSlGgoTsxbMtLhXprtxP-86" value="카테고리 선택&lt;br&gt;(연령, 카테고리)" style="rounded=1;whiteSpace=wrap;html=1;" parent="1" vertex="1">
          <mxGeometry x="72.5" y="1620" width="120" height="40" as="geometry" />
        </mxCell>
        <mxCell id="xKEsdZFjPjx4q3_HCsAW-13" style="edgeStyle=orthogonalEdgeStyle;rounded=0;orthogonalLoop=1;jettySize=auto;html=1;exitX=1;exitY=0.5;exitDx=0;exitDy=0;entryX=0;entryY=0.5;entryDx=0;entryDy=0;" parent="1" source="hSlGgoTsxbMtLhXprtxP-107" target="hSlGgoTsxbMtLhXprtxP-88" edge="1">
          <mxGeometry relative="1" as="geometry">
            <Array as="points">
              <mxPoint x="412" y="1720" />
              <mxPoint x="412" y="1640" />
            </Array>
          </mxGeometry>
        </mxCell>
        <mxCell id="hSlGgoTsxbMtLhXprtxP-107" value="분류 결과" style="rounded=1;whiteSpace=wrap;html=1;" parent="1" vertex="1">
          <mxGeometry x="260" y="1700" width="120" height="40" as="geometry" />
        </mxCell>
        <mxCell id="VNWk7h2PgLa32eGh_eu3-38" style="edgeStyle=orthogonalEdgeStyle;rounded=0;orthogonalLoop=1;jettySize=auto;html=1;exitX=0.5;exitY=1;exitDx=0;exitDy=0;entryX=0;entryY=0.5;entryDx=0;entryDy=0;dashed=1;" edge="1" parent="1" source="hSlGgoTsxbMtLhXprtxP-110" target="xKEsdZFjPjx4q3_HCsAW-29">
          <mxGeometry relative="1" as="geometry" />
        </mxCell>
        <mxCell id="hSlGgoTsxbMtLhXprtxP-110" value="읽기" style="rounded=1;whiteSpace=wrap;html=1;" parent="1" vertex="1">
          <mxGeometry x="570" y="1820" width="60" height="40" as="geometry" />
        </mxCell>
        <mxCell id="hSlGgoTsxbMtLhXprtxP-111" value="TTS 듣기" style="rounded=1;whiteSpace=wrap;html=1;" parent="1" vertex="1">
          <mxGeometry x="670" y="1820" width="60" height="40" as="geometry" />
        </mxCell>
        <mxCell id="hSlGgoTsxbMtLhXprtxP-82" value="" style="edgeStyle=orthogonalEdgeStyle;rounded=0;orthogonalLoop=1;jettySize=auto;html=1;" parent="1" source="hSlGgoTsxbMtLhXprtxP-84" target="hSlGgoTsxbMtLhXprtxP-96" edge="1">
          <mxGeometry relative="1" as="geometry" />
        </mxCell>
        <mxCell id="xKEsdZFjPjx4q3_HCsAW-28" style="edgeStyle=orthogonalEdgeStyle;rounded=0;orthogonalLoop=1;jettySize=auto;html=1;entryX=0.5;entryY=0;entryDx=0;entryDy=0;" parent="1" source="hSlGgoTsxbMtLhXprtxP-84" target="xKEsdZFjPjx4q3_HCsAW-22" edge="1">
          <mxGeometry relative="1" as="geometry" />
        </mxCell>
        <mxCell id="VNWk7h2PgLa32eGh_eu3-1" style="edgeStyle=orthogonalEdgeStyle;rounded=0;orthogonalLoop=1;jettySize=auto;html=1;exitX=0.5;exitY=1;exitDx=0;exitDy=0;entryX=0.5;entryY=0;entryDx=0;entryDy=0;" edge="1" parent="1" source="hSlGgoTsxbMtLhXprtxP-84" target="hSlGgoTsxbMtLhXprtxP-95">
          <mxGeometry relative="1" as="geometry" />
        </mxCell>
        <mxCell id="hSlGgoTsxbMtLhXprtxP-84" value="내 서재 확인" style="rounded=1;whiteSpace=wrap;html=1;" parent="1" vertex="1">
          <mxGeometry x="660" y="1520" width="720" height="40" as="geometry" />
        </mxCell>
        <mxCell id="VNWk7h2PgLa32eGh_eu3-2" value="" style="edgeStyle=orthogonalEdgeStyle;rounded=0;orthogonalLoop=1;jettySize=auto;html=1;dashed=1;" edge="1" parent="1" source="hSlGgoTsxbMtLhXprtxP-95" target="hSlGgoTsxbMtLhXprtxP-97">
          <mxGeometry relative="1" as="geometry" />
        </mxCell>
        <mxCell id="VNWk7h2PgLa32eGh_eu3-14" style="edgeStyle=orthogonalEdgeStyle;rounded=0;orthogonalLoop=1;jettySize=auto;html=1;exitX=0;exitY=0.5;exitDx=0;exitDy=0;entryX=0;entryY=0.5;entryDx=0;entryDy=0;" edge="1" parent="1" source="hSlGgoTsxbMtLhXprtxP-95" target="VNWk7h2PgLa32eGh_eu3-3">
          <mxGeometry relative="1" as="geometry">
            <Array as="points">
              <mxPoint x="910" y="1630" />
              <mxPoint x="910" y="1904" />
            </Array>
          </mxGeometry>
        </mxCell>
        <mxCell id="hSlGgoTsxbMtLhXprtxP-95" value="내 이야기&amp;nbsp;&lt;div&gt;목록 조회&lt;/div&gt;" style="rounded=1;whiteSpace=wrap;html=1;" parent="1" vertex="1">
          <mxGeometry x="960" y="1610" width="120" height="40" as="geometry" />
        </mxCell>
        <mxCell id="VNWk7h2PgLa32eGh_eu3-34" value="" style="edgeStyle=orthogonalEdgeStyle;rounded=0;orthogonalLoop=1;jettySize=auto;html=1;" edge="1" parent="1" source="hSlGgoTsxbMtLhXprtxP-96" target="VNWk7h2PgLa32eGh_eu3-33">
          <mxGeometry relative="1" as="geometry" />
        </mxCell>
        <mxCell id="hSlGgoTsxbMtLhXprtxP-96" value="내 목소리 학습" style="rounded=1;whiteSpace=wrap;html=1;" parent="1" vertex="1">
          <mxGeometry x="1197.5" y="1610" width="120" height="40" as="geometry" />
        </mxCell>
        <mxCell id="VNWk7h2PgLa32eGh_eu3-4" value="" style="edgeStyle=orthogonalEdgeStyle;rounded=0;orthogonalLoop=1;jettySize=auto;html=1;" edge="1" parent="1" source="hSlGgoTsxbMtLhXprtxP-97" target="VNWk7h2PgLa32eGh_eu3-3">
          <mxGeometry relative="1" as="geometry" />
        </mxCell>
        <mxCell id="hSlGgoTsxbMtLhXprtxP-97" value="이야기 검색&lt;div&gt;(제목, 카테고리 검색)&lt;/div&gt;" style="rounded=1;whiteSpace=wrap;html=1;" parent="1" vertex="1">
          <mxGeometry x="960" y="1820" width="119" height="40" as="geometry" />
        </mxCell>
        <mxCell id="xKEsdZFjPjx4q3_HCsAW-66" value="" style="edgeStyle=orthogonalEdgeStyle;rounded=0;orthogonalLoop=1;jettySize=auto;html=1;" parent="1" source="hSlGgoTsxbMtLhXprtxP-98" target="xKEsdZFjPjx4q3_HCsAW-64" edge="1">
          <mxGeometry relative="1" as="geometry" />
        </mxCell>
        <mxCell id="VNWk7h2PgLa32eGh_eu3-10" style="edgeStyle=orthogonalEdgeStyle;rounded=0;orthogonalLoop=1;jettySize=auto;html=1;exitX=0.5;exitY=1;exitDx=0;exitDy=0;entryX=0;entryY=0.5;entryDx=0;entryDy=0;" edge="1" parent="1" source="hSlGgoTsxbMtLhXprtxP-98" target="xKEsdZFjPjx4q3_HCsAW-70">
          <mxGeometry relative="1" as="geometry" />
        </mxCell>
        <mxCell id="hSlGgoTsxbMtLhXprtxP-98" value="이어서 작성&lt;div&gt;or&lt;div&gt;이야기 수정&lt;/div&gt;&lt;/div&gt;" style="rounded=1;whiteSpace=wrap;html=1;" parent="1" vertex="1">
          <mxGeometry x="960" y="2030" width="120" height="60" as="geometry" />
        </mxCell>
        <mxCell id="hSlGgoTsxbMtLhXprtxP-99" value="이야기 삭제" style="rounded=1;whiteSpace=wrap;html=1;" parent="1" vertex="1">
          <mxGeometry x="1140" y="2030" width="120" height="40" as="geometry" />
        </mxCell>
        <mxCell id="xKEsdZFjPjx4q3_HCsAW-82" value="" style="edgeStyle=orthogonalEdgeStyle;rounded=0;orthogonalLoop=1;jettySize=auto;html=1;" parent="1" source="hSlGgoTsxbMtLhXprtxP-88" target="xKEsdZFjPjx4q3_HCsAW-17" edge="1">
          <mxGeometry relative="1" as="geometry" />
        </mxCell>
        <mxCell id="hSlGgoTsxbMtLhXprtxP-88" value="이야기 상세 조회" style="rounded=1;whiteSpace=wrap;html=1;" parent="1" vertex="1">
          <mxGeometry x="470" y="1620" width="120" height="40" as="geometry" />
        </mxCell>
        <mxCell id="xKEsdZFjPjx4q3_HCsAW-14" value="" style="edgeStyle=orthogonalEdgeStyle;rounded=0;orthogonalLoop=1;jettySize=auto;html=1;" parent="1" source="xKEsdZFjPjx4q3_HCsAW-7" target="hSlGgoTsxbMtLhXprtxP-107" edge="1">
          <mxGeometry relative="1" as="geometry" />
        </mxCell>
        <mxCell id="xKEsdZFjPjx4q3_HCsAW-7" value="검색" style="rounded=1;whiteSpace=wrap;html=1;" parent="1" vertex="1">
          <mxGeometry x="260" y="1620" width="120" height="40" as="geometry" />
        </mxCell>
        <mxCell id="xKEsdZFjPjx4q3_HCsAW-71" value="" style="edgeStyle=orthogonalEdgeStyle;rounded=0;orthogonalLoop=1;jettySize=auto;html=1;" parent="1" source="xKEsdZFjPjx4q3_HCsAW-17" target="xKEsdZFjPjx4q3_HCsAW-30" edge="1">
          <mxGeometry relative="1" as="geometry" />
        </mxCell>
        <mxCell id="xKEsdZFjPjx4q3_HCsAW-72" value="1" style="edgeLabel;html=1;align=center;verticalAlign=middle;resizable=0;points=[];" parent="xKEsdZFjPjx4q3_HCsAW-71" vertex="1" connectable="0">
          <mxGeometry x="0.0473" y="-1" relative="1" as="geometry">
            <mxPoint as="offset" />
          </mxGeometry>
        </mxCell>
        <mxCell id="xKEsdZFjPjx4q3_HCsAW-80" style="edgeStyle=orthogonalEdgeStyle;rounded=0;orthogonalLoop=1;jettySize=auto;html=1;exitX=0.5;exitY=1;exitDx=0;exitDy=0;entryX=0.5;entryY=0;entryDx=0;entryDy=0;" parent="1" source="xKEsdZFjPjx4q3_HCsAW-17" target="hSlGgoTsxbMtLhXprtxP-111" edge="1">
          <mxGeometry relative="1" as="geometry" />
        </mxCell>
        <mxCell id="VNWk7h2PgLa32eGh_eu3-12" value="2" style="edgeLabel;html=1;align=center;verticalAlign=middle;resizable=0;points=[];" vertex="1" connectable="0" parent="xKEsdZFjPjx4q3_HCsAW-80">
          <mxGeometry x="-0.7815" y="-1" relative="1" as="geometry">
            <mxPoint as="offset" />
          </mxGeometry>
        </mxCell>
        <mxCell id="xKEsdZFjPjx4q3_HCsAW-17" value="이야기 미리&amp;nbsp;&lt;span style=&quot;background-color: transparent; color: light-dark(rgb(0, 0, 0), rgb(255, 255, 255));&quot;&gt;보기&lt;/span&gt;" style="rounded=1;whiteSpace=wrap;html=1;" parent="1" vertex="1">
          <mxGeometry x="470" y="1690" width="120" height="40" as="geometry" />
        </mxCell>
        <mxCell id="xKEsdZFjPjx4q3_HCsAW-44" value="" style="edgeStyle=orthogonalEdgeStyle;rounded=0;orthogonalLoop=1;jettySize=auto;html=1;" parent="1" source="xKEsdZFjPjx4q3_HCsAW-22" target="xKEsdZFjPjx4q3_HCsAW-30" edge="1">
          <mxGeometry relative="1" as="geometry" />
        </mxCell>
        <mxCell id="xKEsdZFjPjx4q3_HCsAW-22" value="최근 본" style="rounded=1;whiteSpace=wrap;html=1;" parent="1" vertex="1">
          <mxGeometry x="700" y="1610" width="120" height="40" as="geometry" />
        </mxCell>
        <mxCell id="xKEsdZFjPjx4q3_HCsAW-27" value="이야기 결제" style="text;html=1;align=center;verticalAlign=middle;resizable=0;points=[];autosize=1;strokeColor=none;fillColor=none;" parent="1" vertex="1">
          <mxGeometry x="615" y="1950" width="90" height="30" as="geometry" />
        </mxCell>
        <mxCell id="xKEsdZFjPjx4q3_HCsAW-29" value="결제" style="rounded=1;whiteSpace=wrap;html=1;" parent="1" vertex="1">
          <mxGeometry x="630" y="1900" width="60" height="40" as="geometry" />
        </mxCell>
        <mxCell id="xKEsdZFjPjx4q3_HCsAW-112" style="edgeStyle=orthogonalEdgeStyle;rounded=0;orthogonalLoop=1;jettySize=auto;html=1;exitX=0.5;exitY=1;exitDx=0;exitDy=0;entryX=0.5;entryY=0;entryDx=0;entryDy=0;" parent="1" source="xKEsdZFjPjx4q3_HCsAW-30" target="hSlGgoTsxbMtLhXprtxP-110" edge="1">
          <mxGeometry relative="1" as="geometry" />
        </mxCell>
        <mxCell id="xKEsdZFjPjx4q3_HCsAW-30" value="이야기 이어&amp;nbsp;&lt;span style=&quot;background-color: transparent; color: light-dark(rgb(0, 0, 0), rgb(255, 255, 255));&quot;&gt;보기&lt;/span&gt;" style="rounded=1;whiteSpace=wrap;html=1;" parent="1" vertex="1">
          <mxGeometry x="700" y="1690" width="120" height="40" as="geometry" />
        </mxCell>
        <mxCell id="xKEsdZFjPjx4q3_HCsAW-55" style="edgeStyle=orthogonalEdgeStyle;rounded=0;orthogonalLoop=1;jettySize=auto;html=1;entryX=0.5;entryY=0;entryDx=0;entryDy=0;" parent="1" source="xKEsdZFjPjx4q3_HCsAW-48" target="xKEsdZFjPjx4q3_HCsAW-53" edge="1">
          <mxGeometry relative="1" as="geometry" />
        </mxCell>
        <mxCell id="xKEsdZFjPjx4q3_HCsAW-48" value="이야기 보기" style="rounded=1;whiteSpace=wrap;html=1;" parent="1" vertex="1">
          <mxGeometry x="778" y="2030" width="120" height="40" as="geometry" />
        </mxCell>
        <mxCell id="xKEsdZFjPjx4q3_HCsAW-68" style="edgeStyle=orthogonalEdgeStyle;rounded=0;orthogonalLoop=1;jettySize=auto;html=1;exitX=1;exitY=0.5;exitDx=0;exitDy=0;entryX=0.5;entryY=0;entryDx=0;entryDy=0;" parent="1" source="xKEsdZFjPjx4q3_HCsAW-50" target="hSlGgoTsxbMtLhXprtxP-99" edge="1">
          <mxGeometry relative="1" as="geometry" />
        </mxCell>
        <mxCell id="xKEsdZFjPjx4q3_HCsAW-69" value="" style="edgeStyle=orthogonalEdgeStyle;rounded=0;orthogonalLoop=1;jettySize=auto;html=1;" parent="1" source="xKEsdZFjPjx4q3_HCsAW-50" target="hSlGgoTsxbMtLhXprtxP-98" edge="1">
          <mxGeometry relative="1" as="geometry" />
        </mxCell>
        <mxCell id="VNWk7h2PgLa32eGh_eu3-9" style="edgeStyle=orthogonalEdgeStyle;rounded=0;orthogonalLoop=1;jettySize=auto;html=1;exitX=0;exitY=0.5;exitDx=0;exitDy=0;entryX=0.5;entryY=0;entryDx=0;entryDy=0;" edge="1" parent="1" source="xKEsdZFjPjx4q3_HCsAW-50" target="xKEsdZFjPjx4q3_HCsAW-48">
          <mxGeometry relative="1" as="geometry" />
        </mxCell>
        <mxCell id="xKEsdZFjPjx4q3_HCsAW-50" value="이야기 상세 조회" style="rounded=1;whiteSpace=wrap;html=1;" parent="1" vertex="1">
          <mxGeometry x="960" y="1950" width="120" height="40" as="geometry" />
        </mxCell>
        <mxCell id="VNWk7h2PgLa32eGh_eu3-32" value="" style="edgeStyle=orthogonalEdgeStyle;rounded=0;orthogonalLoop=1;jettySize=auto;html=1;dashed=1;" edge="1" parent="1" source="xKEsdZFjPjx4q3_HCsAW-53" target="VNWk7h2PgLa32eGh_eu3-31">
          <mxGeometry relative="1" as="geometry" />
        </mxCell>
        <mxCell id="xKEsdZFjPjx4q3_HCsAW-53" value="TTS 듣기" style="rounded=1;whiteSpace=wrap;html=1;" parent="1" vertex="1">
          <mxGeometry x="750" y="2138.5" width="60" height="40" as="geometry" />
        </mxCell>
        <mxCell id="xKEsdZFjPjx4q3_HCsAW-54" value="읽기" style="rounded=1;whiteSpace=wrap;html=1;" parent="1" vertex="1">
          <mxGeometry x="860" y="2138.5" width="60" height="40" as="geometry" />
        </mxCell>
        <mxCell id="xKEsdZFjPjx4q3_HCsAW-56" style="edgeStyle=orthogonalEdgeStyle;rounded=0;orthogonalLoop=1;jettySize=auto;html=1;exitX=0.5;exitY=1;exitDx=0;exitDy=0;entryX=0.593;entryY=0.075;entryDx=0;entryDy=0;entryPerimeter=0;" parent="1" source="xKEsdZFjPjx4q3_HCsAW-48" target="xKEsdZFjPjx4q3_HCsAW-54" edge="1">
          <mxGeometry relative="1" as="geometry" />
        </mxCell>
        <mxCell id="xKEsdZFjPjx4q3_HCsAW-60" value="" style="endArrow=classic;startArrow=classic;html=1;rounded=0;exitX=1;exitY=0.5;exitDx=0;exitDy=0;" parent="1" source="hSlGgoTsxbMtLhXprtxP-110" edge="1">
          <mxGeometry width="50" height="50" relative="1" as="geometry">
            <mxPoint x="620" y="1880" as="sourcePoint" />
            <mxPoint x="670" y="1840" as="targetPoint" />
          </mxGeometry>
        </mxCell>
        <mxCell id="xKEsdZFjPjx4q3_HCsAW-63" value="" style="endArrow=classic;startArrow=classic;html=1;rounded=0;exitX=1;exitY=0.5;exitDx=0;exitDy=0;entryX=0;entryY=0.5;entryDx=0;entryDy=0;" parent="1" edge="1">
          <mxGeometry width="50" height="50" relative="1" as="geometry">
            <mxPoint x="820" y="2158.1" as="sourcePoint" />
            <mxPoint x="860" y="2158.1" as="targetPoint" />
          </mxGeometry>
        </mxCell>
        <mxCell id="xKEsdZFjPjx4q3_HCsAW-64" value="이미지 수정" style="rounded=1;whiteSpace=wrap;html=1;" parent="1" vertex="1">
          <mxGeometry x="876" y="2210" width="120" height="40" as="geometry" />
        </mxCell>
        <mxCell id="VNWk7h2PgLa32eGh_eu3-11" style="edgeStyle=orthogonalEdgeStyle;rounded=0;orthogonalLoop=1;jettySize=auto;html=1;exitX=0.5;exitY=0;exitDx=0;exitDy=0;entryX=1;entryY=0.5;entryDx=0;entryDy=0;" edge="1" parent="1" source="xKEsdZFjPjx4q3_HCsAW-70" target="hSlGgoTsxbMtLhXprtxP-98">
          <mxGeometry relative="1" as="geometry" />
        </mxCell>
        <mxCell id="xKEsdZFjPjx4q3_HCsAW-70" value="중간저장" style="rounded=1;whiteSpace=wrap;html=1;" parent="1" vertex="1">
          <mxGeometry x="1070" y="2100" width="60" height="20" as="geometry" />
        </mxCell>
        <mxCell id="xKEsdZFjPjx4q3_HCsAW-101" style="edgeStyle=orthogonalEdgeStyle;rounded=0;orthogonalLoop=1;jettySize=auto;html=1;entryX=0.5;entryY=0;entryDx=0;entryDy=0;" parent="1" source="xKEsdZFjPjx4q3_HCsAW-83" target="hSlGgoTsxbMtLhXprtxP-101" edge="1">
          <mxGeometry relative="1" as="geometry" />
        </mxCell>
        <mxCell id="xKEsdZFjPjx4q3_HCsAW-102" style="edgeStyle=orthogonalEdgeStyle;rounded=0;orthogonalLoop=1;jettySize=auto;html=1;entryX=0.5;entryY=0;entryDx=0;entryDy=0;" parent="1" source="xKEsdZFjPjx4q3_HCsAW-83" target="hSlGgoTsxbMtLhXprtxP-103" edge="1">
          <mxGeometry relative="1" as="geometry" />
        </mxCell>
        <mxCell id="xKEsdZFjPjx4q3_HCsAW-83" value="닉네임" style="rounded=1;whiteSpace=wrap;html=1;" parent="1" vertex="1">
          <mxGeometry x="1640" y="1700" width="120" height="40" as="geometry" />
        </mxCell>
        <mxCell id="xKEsdZFjPjx4q3_HCsAW-97" value="" style="edgeStyle=orthogonalEdgeStyle;rounded=0;orthogonalLoop=1;jettySize=auto;html=1;" parent="1" source="xKEsdZFjPjx4q3_HCsAW-84" target="xKEsdZFjPjx4q3_HCsAW-92" edge="1">
          <mxGeometry relative="1" as="geometry" />
        </mxCell>
        <mxCell id="xKEsdZFjPjx4q3_HCsAW-84" value="이야기 제목 작성" style="rounded=1;whiteSpace=wrap;html=1;" parent="1" vertex="1">
          <mxGeometry x="1480" y="1851.5" width="120" height="40" as="geometry" />
        </mxCell>
        <mxCell id="VNWk7h2PgLa32eGh_eu3-24" style="edgeStyle=orthogonalEdgeStyle;rounded=0;orthogonalLoop=1;jettySize=auto;html=1;exitX=0.5;exitY=0;exitDx=0;exitDy=0;" edge="1" parent="1" source="xKEsdZFjPjx4q3_HCsAW-87">
          <mxGeometry relative="1" as="geometry">
            <mxPoint x="1080" y="1630" as="targetPoint" />
            <Array as="points">
              <mxPoint x="1700" y="1760" />
              <mxPoint x="1140" y="1760" />
              <mxPoint x="1140" y="1630" />
              <mxPoint x="1080" y="1630" />
            </Array>
          </mxGeometry>
        </mxCell>
        <mxCell id="VNWk7h2PgLa32eGh_eu3-56" value="" style="edgeStyle=orthogonalEdgeStyle;rounded=0;orthogonalLoop=1;jettySize=auto;html=1;" edge="1" parent="1" source="xKEsdZFjPjx4q3_HCsAW-87" target="hSlGgoTsxbMtLhXprtxP-113">
          <mxGeometry relative="1" as="geometry" />
        </mxCell>
        <mxCell id="xKEsdZFjPjx4q3_HCsAW-87" value="중간저장" style="rounded=1;whiteSpace=wrap;html=1;" parent="1" vertex="1">
          <mxGeometry x="1664.68" y="1921.5" width="70.64" height="40" as="geometry" />
        </mxCell>
        <mxCell id="xKEsdZFjPjx4q3_HCsAW-109" value="" style="edgeStyle=orthogonalEdgeStyle;rounded=0;orthogonalLoop=1;jettySize=auto;html=1;dashed=1;" parent="1" source="xKEsdZFjPjx4q3_HCsAW-92" target="xKEsdZFjPjx4q3_HCsAW-87" edge="1">
          <mxGeometry relative="1" as="geometry" />
        </mxCell>
        <mxCell id="VNWk7h2PgLa32eGh_eu3-28" style="edgeStyle=orthogonalEdgeStyle;rounded=0;orthogonalLoop=1;jettySize=auto;html=1;exitX=0.5;exitY=1;exitDx=0;exitDy=0;entryX=0;entryY=0.5;entryDx=0;entryDy=0;" edge="1" parent="1" source="xKEsdZFjPjx4q3_HCsAW-92" target="VNWk7h2PgLa32eGh_eu3-26">
          <mxGeometry relative="1" as="geometry" />
        </mxCell>
        <mxCell id="xKEsdZFjPjx4q3_HCsAW-92" value="이야기 작성" style="rounded=1;whiteSpace=wrap;html=1;" parent="1" vertex="1">
          <mxGeometry x="1480" y="1921.5" width="120" height="40" as="geometry" />
        </mxCell>
        <mxCell id="xKEsdZFjPjx4q3_HCsAW-131" value="" style="edgeStyle=orthogonalEdgeStyle;rounded=0;orthogonalLoop=1;jettySize=auto;html=1;" parent="1" source="xKEsdZFjPjx4q3_HCsAW-129" target="xKEsdZFjPjx4q3_HCsAW-83" edge="1">
          <mxGeometry relative="1" as="geometry" />
        </mxCell>
        <mxCell id="xKEsdZFjPjx4q3_HCsAW-129" value="장르, 연령대 선택" style="rounded=1;whiteSpace=wrap;html=1;" parent="1" vertex="1">
          <mxGeometry x="1640" y="1610" width="120" height="40" as="geometry" />
        </mxCell>
        <mxCell id="xKEsdZFjPjx4q3_HCsAW-136" value="" style="edgeStyle=orthogonalEdgeStyle;rounded=0;orthogonalLoop=1;jettySize=auto;html=1;dashed=1;" parent="1" source="xKEsdZFjPjx4q3_HCsAW-133" target="xKEsdZFjPjx4q3_HCsAW-134" edge="1">
          <mxGeometry relative="1" as="geometry" />
        </mxCell>
        <mxCell id="xKEsdZFjPjx4q3_HCsAW-138" style="edgeStyle=orthogonalEdgeStyle;rounded=0;orthogonalLoop=1;jettySize=auto;html=1;exitX=0.5;exitY=1;exitDx=0;exitDy=0;entryX=0.5;entryY=0;entryDx=0;entryDy=0;" parent="1" source="xKEsdZFjPjx4q3_HCsAW-133" target="xKEsdZFjPjx4q3_HCsAW-137" edge="1">
          <mxGeometry relative="1" as="geometry" />
        </mxCell>
        <mxCell id="xKEsdZFjPjx4q3_HCsAW-133" value="이야기 연령대별&lt;div&gt;페이지 분할 + 검토&lt;/div&gt;" style="rounded=1;whiteSpace=wrap;html=1;" parent="1" vertex="1">
          <mxGeometry x="1559.36" y="2190" width="120" height="40" as="geometry" />
        </mxCell>
        <mxCell id="xKEsdZFjPjx4q3_HCsAW-139" style="edgeStyle=orthogonalEdgeStyle;rounded=0;orthogonalLoop=1;jettySize=auto;html=1;exitX=0.5;exitY=1;exitDx=0;exitDy=0;entryX=0.5;entryY=0;entryDx=0;entryDy=0;" parent="1" source="xKEsdZFjPjx4q3_HCsAW-134" target="xKEsdZFjPjx4q3_HCsAW-137" edge="1">
          <mxGeometry relative="1" as="geometry" />
        </mxCell>
        <mxCell id="xKEsdZFjPjx4q3_HCsAW-134" value="페이지별 이야기 수정" style="rounded=1;whiteSpace=wrap;html=1;" parent="1" vertex="1">
          <mxGeometry x="1719.9999999999998" y="2190" width="120" height="40" as="geometry" />
        </mxCell>
        <mxCell id="xKEsdZFjPjx4q3_HCsAW-152" style="edgeStyle=orthogonalEdgeStyle;rounded=0;orthogonalLoop=1;jettySize=auto;html=1;exitX=0;exitY=0.5;exitDx=0;exitDy=0;entryX=0.5;entryY=0;entryDx=0;entryDy=0;" parent="1" source="xKEsdZFjPjx4q3_HCsAW-137" target="xKEsdZFjPjx4q3_HCsAW-143" edge="1">
          <mxGeometry relative="1" as="geometry" />
        </mxCell>
        <mxCell id="xKEsdZFjPjx4q3_HCsAW-137" value="페이지별 이미지 생성" style="rounded=1;whiteSpace=wrap;html=1;" parent="1" vertex="1">
          <mxGeometry x="1639.9999999999998" y="2280" width="120" height="40" as="geometry" />
        </mxCell>
        <mxCell id="xKEsdZFjPjx4q3_HCsAW-147" value="" style="edgeStyle=orthogonalEdgeStyle;rounded=0;orthogonalLoop=1;jettySize=auto;html=1;dashed=1;" parent="1" source="xKEsdZFjPjx4q3_HCsAW-143" target="xKEsdZFjPjx4q3_HCsAW-144" edge="1">
          <mxGeometry relative="1" as="geometry" />
        </mxCell>
        <mxCell id="xKEsdZFjPjx4q3_HCsAW-164" style="edgeStyle=orthogonalEdgeStyle;rounded=0;orthogonalLoop=1;jettySize=auto;html=1;exitX=0;exitY=0.5;exitDx=0;exitDy=0;entryX=0;entryY=0.5;entryDx=0;entryDy=0;" parent="1" source="xKEsdZFjPjx4q3_HCsAW-143" target="xKEsdZFjPjx4q3_HCsAW-145" edge="1">
          <mxGeometry relative="1" as="geometry" />
        </mxCell>
        <mxCell id="xKEsdZFjPjx4q3_HCsAW-143" value="페이지별 이미지 검토" style="rounded=1;whiteSpace=wrap;html=1;" parent="1" vertex="1">
          <mxGeometry x="1560" y="2350" width="120" height="40" as="geometry" />
        </mxCell>
        <mxCell id="xKEsdZFjPjx4q3_HCsAW-155" style="edgeStyle=orthogonalEdgeStyle;rounded=0;orthogonalLoop=1;jettySize=auto;html=1;exitX=0.5;exitY=1;exitDx=0;exitDy=0;entryX=0.5;entryY=0;entryDx=0;entryDy=0;dashed=1;" parent="1" source="xKEsdZFjPjx4q3_HCsAW-144" target="xKEsdZFjPjx4q3_HCsAW-150" edge="1">
          <mxGeometry relative="1" as="geometry" />
        </mxCell>
        <mxCell id="xKEsdZFjPjx4q3_HCsAW-165" style="edgeStyle=orthogonalEdgeStyle;rounded=0;orthogonalLoop=1;jettySize=auto;html=1;exitX=1;exitY=0.5;exitDx=0;exitDy=0;entryX=1;entryY=0.5;entryDx=0;entryDy=0;" parent="1" source="xKEsdZFjPjx4q3_HCsAW-144" target="xKEsdZFjPjx4q3_HCsAW-145" edge="1">
          <mxGeometry relative="1" as="geometry" />
        </mxCell>
        <mxCell id="xKEsdZFjPjx4q3_HCsAW-144" value="페이지별 이미지 수정" style="rounded=1;whiteSpace=wrap;html=1;" parent="1" vertex="1">
          <mxGeometry x="1720" y="2350" width="120" height="40" as="geometry" />
        </mxCell>
        <mxCell id="xKEsdZFjPjx4q3_HCsAW-171" style="edgeStyle=orthogonalEdgeStyle;rounded=0;orthogonalLoop=1;jettySize=auto;html=1;exitX=0.5;exitY=1;exitDx=0;exitDy=0;entryX=0.5;entryY=0;entryDx=0;entryDy=0;" parent="1" source="xKEsdZFjPjx4q3_HCsAW-145" target="hSlGgoTsxbMtLhXprtxP-93" edge="1">
          <mxGeometry relative="1" as="geometry" />
        </mxCell>
        <mxCell id="xKEsdZFjPjx4q3_HCsAW-145" value="이야기 완성" style="rounded=1;whiteSpace=wrap;html=1;" parent="1" vertex="1">
          <mxGeometry x="1640" y="2480" width="120" height="40" as="geometry" />
        </mxCell>
        <mxCell id="xKEsdZFjPjx4q3_HCsAW-149" value="재생성 모두 소모시 결제" style="text;html=1;align=center;verticalAlign=middle;resizable=0;points=[];autosize=1;strokeColor=none;fillColor=none;" parent="1" vertex="1">
          <mxGeometry x="1282" y="2495" width="150" height="30" as="geometry" />
        </mxCell>
        <mxCell id="xKEsdZFjPjx4q3_HCsAW-162" style="edgeStyle=orthogonalEdgeStyle;rounded=0;orthogonalLoop=1;jettySize=auto;html=1;exitX=1;exitY=0.5;exitDx=0;exitDy=0;entryX=0;entryY=0.5;entryDx=0;entryDy=0;" parent="1" source="VNWk7h2PgLa32eGh_eu3-49" target="xKEsdZFjPjx4q3_HCsAW-133" edge="1">
          <mxGeometry relative="1" as="geometry">
            <Array as="points">
              <mxPoint x="1430" y="2210" />
            </Array>
          </mxGeometry>
        </mxCell>
        <mxCell id="xKEsdZFjPjx4q3_HCsAW-167" style="edgeStyle=orthogonalEdgeStyle;rounded=0;orthogonalLoop=1;jettySize=auto;html=1;exitX=1;exitY=0.5;exitDx=0;exitDy=0;entryX=0.5;entryY=1;entryDx=0;entryDy=0;" parent="1" source="xKEsdZFjPjx4q3_HCsAW-150" target="xKEsdZFjPjx4q3_HCsAW-143" edge="1">
          <mxGeometry relative="1" as="geometry" />
        </mxCell>
        <mxCell id="xKEsdZFjPjx4q3_HCsAW-150" value="결제" style="rounded=1;whiteSpace=wrap;html=1;" parent="1" vertex="1">
          <mxGeometry x="1327" y="2450" width="60" height="40" as="geometry" />
        </mxCell>
        <mxCell id="xKEsdZFjPjx4q3_HCsAW-151" value="이미지 재생성 가능 횟수 : 3회" style="text;html=1;align=center;verticalAlign=middle;resizable=0;points=[];autosize=1;strokeColor=none;fillColor=none;" parent="1" vertex="1">
          <mxGeometry x="1260" y="2390" width="180" height="30" as="geometry" />
        </mxCell>
        <mxCell id="xKEsdZFjPjx4q3_HCsAW-156" value="이야기 생성하고 공유할때 tts도 작가가 내 이야기에 어울리는 tts 선택할 수 있게 한 후에 공유?" style="text;html=1;align=center;verticalAlign=middle;resizable=0;points=[];autosize=1;strokeColor=none;fillColor=none;" parent="1" vertex="1">
          <mxGeometry x="1480" y="2548" width="520" height="30" as="geometry" />
        </mxCell>
        <mxCell id="xKEsdZFjPjx4q3_HCsAW-160" style="edgeStyle=orthogonalEdgeStyle;rounded=0;orthogonalLoop=1;jettySize=auto;html=1;exitX=0.5;exitY=1;exitDx=0;exitDy=0;entryX=0;entryY=0.5;entryDx=0;entryDy=0;" parent="1" source="xKEsdZFjPjx4q3_HCsAW-158" target="xKEsdZFjPjx4q3_HCsAW-133" edge="1">
          <mxGeometry relative="1" as="geometry" />
        </mxCell>
        <mxCell id="xKEsdZFjPjx4q3_HCsAW-161" style="edgeStyle=orthogonalEdgeStyle;rounded=0;orthogonalLoop=1;jettySize=auto;html=1;exitX=0;exitY=0.5;exitDx=0;exitDy=0;dashed=1;" parent="1" source="xKEsdZFjPjx4q3_HCsAW-158" target="xKEsdZFjPjx4q3_HCsAW-150" edge="1">
          <mxGeometry relative="1" as="geometry" />
        </mxCell>
        <mxCell id="xKEsdZFjPjx4q3_HCsAW-158" value="이미지 수정" style="rounded=1;whiteSpace=wrap;html=1;" parent="1" vertex="1">
          <mxGeometry x="1420" y="2110" width="120" height="40" as="geometry" />
        </mxCell>
        <mxCell id="xKEsdZFjPjx4q3_HCsAW-173" value="내 이야기&amp;nbsp;&lt;div&gt;목록 조회&lt;/div&gt;" style="rounded=1;whiteSpace=wrap;html=1;" parent="1" vertex="1">
          <mxGeometry x="1400" y="2600" width="120" height="40" as="geometry" />
        </mxCell>
        <mxCell id="xKEsdZFjPjx4q3_HCsAW-175" value="내 서재 확인 업무" style="text;html=1;align=center;verticalAlign=middle;resizable=0;points=[];autosize=1;strokeColor=none;fillColor=none;" parent="1" vertex="1">
          <mxGeometry x="1400" y="2648" width="120" height="30" as="geometry" />
        </mxCell>
        <mxCell id="VNWk7h2PgLa32eGh_eu3-5" value="" style="edgeStyle=orthogonalEdgeStyle;rounded=0;orthogonalLoop=1;jettySize=auto;html=1;" edge="1" parent="1" source="VNWk7h2PgLa32eGh_eu3-3" target="xKEsdZFjPjx4q3_HCsAW-50">
          <mxGeometry relative="1" as="geometry" />
        </mxCell>
        <mxCell id="VNWk7h2PgLa32eGh_eu3-3" value="이야기 선택" style="rounded=1;whiteSpace=wrap;html=1;" vertex="1" parent="1">
          <mxGeometry x="960" y="1883.5" width="119" height="40" as="geometry" />
        </mxCell>
        <mxCell id="VNWk7h2PgLa32eGh_eu3-13" value="&lt;span style=&quot;font-size: 20px;&quot;&gt;중간 저장하면&lt;/span&gt;&lt;div&gt;&lt;span style=&quot;font-size: 20px;&quot;&gt;그 자리에서 대기&lt;/span&gt;&lt;/div&gt;&lt;div&gt;&lt;span style=&quot;font-size: 20px;&quot;&gt;이어서 작성 or ai 도움 작성&lt;/span&gt;&lt;/div&gt;&lt;div&gt;&lt;span style=&quot;font-size: 20px;&quot;&gt;변경 가능&lt;/span&gt;&lt;/div&gt;&lt;div&gt;&lt;span style=&quot;font-size: 20px;&quot;&gt;&lt;br&gt;&lt;/span&gt;&lt;/div&gt;" style="text;html=1;align=center;verticalAlign=middle;resizable=0;points=[];autosize=1;strokeColor=none;fillColor=none;" vertex="1" parent="1">
          <mxGeometry x="1990" y="1730" width="260" height="130" as="geometry" />
        </mxCell>
        <mxCell id="VNWk7h2PgLa32eGh_eu3-18" value="#생성 완료 or 생성중" style="text;html=1;align=center;verticalAlign=middle;resizable=0;points=[];autosize=1;strokeColor=none;fillColor=none;" vertex="1" parent="1">
          <mxGeometry x="949" y="1660" width="130" height="30" as="geometry" />
        </mxCell>
        <mxCell id="VNWk7h2PgLa32eGh_eu3-20" value="이미 생성했던 일관적인 이미지 도 저장되어 있어야 함&lt;div&gt;이 일관적인 이미지도 수정 가능해야 함&lt;/div&gt;&lt;div&gt;&lt;br&gt;&lt;/div&gt;" style="text;html=1;align=center;verticalAlign=middle;resizable=0;points=[];autosize=1;strokeColor=none;fillColor=none;" vertex="1" parent="1">
          <mxGeometry x="865" y="2270" width="310" height="60" as="geometry" />
        </mxCell>
        <mxCell id="VNWk7h2PgLa32eGh_eu3-21" value="중간 저장 -:&amp;gt; 내 이야기 -&amp;gt; 이야기 선택 -&amp;gt; 이어서 작성/ 이야기 수정" style="text;html=1;align=center;verticalAlign=middle;resizable=0;points=[];autosize=1;strokeColor=none;fillColor=none;" vertex="1" parent="1">
          <mxGeometry x="1950" y="1931.5" width="380" height="30" as="geometry" />
        </mxCell>
        <mxCell id="VNWk7h2PgLa32eGh_eu3-22" value="일관적인 이미지 생성&lt;div&gt;(#중간저장)&lt;/div&gt;" style="rounded=1;whiteSpace=wrap;html=1;" vertex="1" parent="1">
          <mxGeometry x="1040" y="2210" width="120" height="40" as="geometry" />
        </mxCell>
        <mxCell id="VNWk7h2PgLa32eGh_eu3-23" style="edgeStyle=orthogonalEdgeStyle;rounded=0;orthogonalLoop=1;jettySize=auto;html=1;exitX=0.5;exitY=1;exitDx=0;exitDy=0;entryX=0.55;entryY=-0.03;entryDx=0;entryDy=0;entryPerimeter=0;" edge="1" parent="1" source="hSlGgoTsxbMtLhXprtxP-98" target="VNWk7h2PgLa32eGh_eu3-22">
          <mxGeometry relative="1" as="geometry" />
        </mxCell>
        <mxCell id="VNWk7h2PgLa32eGh_eu3-25" value="이야기 생성?" style="rounded=1;whiteSpace=wrap;html=1;" vertex="1" parent="1">
          <mxGeometry x="959" y="2138.5" width="120" height="40" as="geometry" />
        </mxCell>
        <mxCell id="VNWk7h2PgLa32eGh_eu3-29" value="" style="edgeStyle=orthogonalEdgeStyle;rounded=0;orthogonalLoop=1;jettySize=auto;html=1;" edge="1" parent="1" source="VNWk7h2PgLa32eGh_eu3-26" target="hSlGgoTsxbMtLhXprtxP-90">
          <mxGeometry relative="1" as="geometry" />
        </mxCell>
        <mxCell id="VNWk7h2PgLa32eGh_eu3-26" value="&lt;div&gt;장르, 연령대 검토 후&lt;/div&gt;이야기 생성" style="rounded=1;whiteSpace=wrap;html=1;" vertex="1" parent="1">
          <mxGeometry x="1640" y="2030" width="120" height="40" as="geometry" />
        </mxCell>
        <mxCell id="VNWk7h2PgLa32eGh_eu3-31" value="내 목소리 학습" style="rounded=1;whiteSpace=wrap;html=1;" vertex="1" parent="1">
          <mxGeometry x="720" y="2210" width="120" height="40" as="geometry" />
        </mxCell>
        <mxCell id="VNWk7h2PgLa32eGh_eu3-45" style="edgeStyle=orthogonalEdgeStyle;rounded=0;orthogonalLoop=1;jettySize=auto;html=1;exitX=1;exitY=0.5;exitDx=0;exitDy=0;entryX=1;entryY=0.5;entryDx=0;entryDy=0;" edge="1" parent="1" source="VNWk7h2PgLa32eGh_eu3-33" target="VNWk7h2PgLa32eGh_eu3-35">
          <mxGeometry relative="1" as="geometry" />
        </mxCell>
        <mxCell id="VNWk7h2PgLa32eGh_eu3-33" value="텍스트 읽기&lt;div&gt;음성 파일 업로드&lt;/div&gt;" style="rounded=1;whiteSpace=wrap;html=1;" vertex="1" parent="1">
          <mxGeometry x="1197.5" y="1690" width="120" height="40" as="geometry" />
        </mxCell>
        <mxCell id="VNWk7h2PgLa32eGh_eu3-36" style="edgeStyle=orthogonalEdgeStyle;rounded=0;orthogonalLoop=1;jettySize=auto;html=1;exitX=0.5;exitY=0;exitDx=0;exitDy=0;" edge="1" parent="1" source="VNWk7h2PgLa32eGh_eu3-35">
          <mxGeometry relative="1" as="geometry">
            <mxPoint x="1257.1999999999998" y="1760" as="targetPoint" />
          </mxGeometry>
        </mxCell>
        <mxCell id="VNWk7h2PgLa32eGh_eu3-35" value="학습 완료" style="rounded=1;whiteSpace=wrap;html=1;" vertex="1" parent="1">
          <mxGeometry x="1197.5" y="1829" width="120" height="40" as="geometry" />
        </mxCell>
        <mxCell id="VNWk7h2PgLa32eGh_eu3-37" value="학습된 목소리로 이야기를 체험해보세요" style="text;html=1;align=center;verticalAlign=middle;resizable=0;points=[];autosize=1;strokeColor=none;fillColor=none;" vertex="1" parent="1">
          <mxGeometry x="1152.5" y="1799" width="240" height="30" as="geometry" />
        </mxCell>
        <mxCell id="VNWk7h2PgLa32eGh_eu3-39" value="# 미리보기용 읽기 + TTS&lt;div&gt;# TTS도 읽기 미리보기 제공까지만 가능해야함&lt;/div&gt;" style="text;html=1;align=center;verticalAlign=middle;resizable=0;points=[];autosize=1;strokeColor=none;fillColor=none;" vertex="1" parent="1">
          <mxGeometry x="335" y="1860" width="270" height="40" as="geometry" />
        </mxCell>
        <mxCell id="VNWk7h2PgLa32eGh_eu3-40" value="판타지, 동화, 로맨스&lt;div&gt;인기순&lt;/div&gt;&lt;div&gt;추천순&lt;/div&gt;&lt;div&gt;연령&lt;/div&gt;" style="text;html=1;align=center;verticalAlign=middle;resizable=0;points=[];autosize=1;strokeColor=none;fillColor=none;" vertex="1" parent="1">
          <mxGeometry y="1671.5" width="130" height="70" as="geometry" />
        </mxCell>
        <mxCell id="VNWk7h2PgLa32eGh_eu3-42" value="2P 부터 블러처리" style="text;html=1;align=center;verticalAlign=middle;resizable=0;points=[];autosize=1;strokeColor=none;fillColor=none;" vertex="1" parent="1">
          <mxGeometry x="400" y="1730" width="120" height="30" as="geometry" />
        </mxCell>
        <mxCell id="VNWk7h2PgLa32eGh_eu3-43" value="걍 수익성 추가해 본 것" style="text;html=1;align=center;verticalAlign=middle;resizable=0;points=[];autosize=1;strokeColor=none;fillColor=none;" vertex="1" parent="1">
          <mxGeometry x="570" y="1660" width="140" height="30" as="geometry" />
        </mxCell>
        <mxCell id="VNWk7h2PgLa32eGh_eu3-44" value="목소리 학습은 결제 필요" style="text;html=1;align=center;verticalAlign=middle;resizable=0;points=[];autosize=1;strokeColor=none;fillColor=none;" vertex="1" parent="1">
          <mxGeometry x="1290" y="1660" width="150" height="30" as="geometry" />
        </mxCell>
        <mxCell id="VNWk7h2PgLa32eGh_eu3-46" value="서론, 본론만 사용자가 작성하고 결론을 ai 보고 도와달라&amp;nbsp;&lt;div&gt;ai와 협업이 가능한 시스템이&amp;nbsp;&lt;/div&gt;&lt;div&gt;+ 포인트가 됨&lt;/div&gt;" style="text;html=1;align=center;verticalAlign=middle;resizable=0;points=[];autosize=1;strokeColor=none;fillColor=none;" vertex="1" parent="1">
          <mxGeometry x="1975" y="1857" width="330" height="60" as="geometry" />
        </mxCell>
        <mxCell id="VNWk7h2PgLa32eGh_eu3-48" value="글 생성" style="text;html=1;align=center;verticalAlign=middle;resizable=0;points=[];autosize=1;strokeColor=none;fillColor=none;" vertex="1" parent="1">
          <mxGeometry x="1503.43" y="1654" width="60" height="30" as="geometry" />
        </mxCell>
        <mxCell id="VNWk7h2PgLa32eGh_eu3-50" value="" style="edgeStyle=orthogonalEdgeStyle;rounded=0;orthogonalLoop=1;jettySize=auto;html=1;exitX=1;exitY=0.5;exitDx=0;exitDy=0;entryX=0;entryY=0.5;entryDx=0;entryDy=0;" edge="1" parent="1" source="xKEsdZFjPjx4q3_HCsAW-150" target="VNWk7h2PgLa32eGh_eu3-49">
          <mxGeometry relative="1" as="geometry">
            <Array as="points">
              <mxPoint x="1430" y="2470" />
            </Array>
            <mxPoint x="1387" y="2470" as="sourcePoint" />
            <mxPoint x="1559" y="2210" as="targetPoint" />
          </mxGeometry>
        </mxCell>
        <mxCell id="VNWk7h2PgLa32eGh_eu3-51" value="태그를 먼저 선택 하면 DB 저장 수월함&lt;div&gt;&lt;br&gt;&lt;/div&gt;&lt;div&gt;글 전부 작성하고 내 글은 무슨 장르인지, 연령&lt;/div&gt;" style="text;html=1;align=center;verticalAlign=middle;resizable=0;points=[];autosize=1;strokeColor=none;fillColor=none;" vertex="1" parent="1">
          <mxGeometry x="1895" y="1563" width="270" height="60" as="geometry" />
        </mxCell>
        <mxCell id="VNWk7h2PgLa32eGh_eu3-53" value="" style="edgeStyle=orthogonalEdgeStyle;rounded=0;orthogonalLoop=1;jettySize=auto;html=1;" edge="1" parent="1" source="hSlGgoTsxbMtLhXprtxP-103" target="VNWk7h2PgLa32eGh_eu3-52">
          <mxGeometry relative="1" as="geometry">
            <mxPoint x="1861" y="1820" as="sourcePoint" />
            <mxPoint x="1861" y="2030" as="targetPoint" />
          </mxGeometry>
        </mxCell>
        <mxCell id="VNWk7h2PgLa32eGh_eu3-52" value="주제 입력/태그 선택" style="rounded=1;whiteSpace=wrap;html=1;" vertex="1" parent="1">
          <mxGeometry x="1800" y="1853" width="120" height="38.5" as="geometry" />
        </mxCell>
        <mxCell id="VNWk7h2PgLa32eGh_eu3-62" value="" style="rounded=1;whiteSpace=wrap;html=1;" vertex="1" parent="1">
          <mxGeometry x="120" y="4100" width="670" height="610" as="geometry" />
        </mxCell>
        <mxCell id="VNWk7h2PgLa32eGh_eu3-63" value="" style="rounded=1;whiteSpace=wrap;html=1;" vertex="1" parent="1">
          <mxGeometry x="850" y="4092" width="670" height="610" as="geometry" />
        </mxCell>
        <mxCell id="VNWk7h2PgLa32eGh_eu3-64" value="이클립스" style="text;html=1;align=center;verticalAlign=middle;resizable=0;points=[];autosize=1;strokeColor=none;fillColor=none;fontSize=29;" vertex="1" parent="1">
          <mxGeometry x="400" y="4042" width="140" height="50" as="geometry" />
        </mxCell>
        <mxCell id="VNWk7h2PgLa32eGh_eu3-65" value="아나콘다" style="text;html=1;align=center;verticalAlign=middle;resizable=0;points=[];autosize=1;strokeColor=none;fillColor=none;fontSize=29;" vertex="1" parent="1">
          <mxGeometry x="1100" y="4130" width="140" height="50" as="geometry" />
        </mxCell>
        <mxCell id="VNWk7h2PgLa32eGh_eu3-66" value="" style="rounded=1;whiteSpace=wrap;html=1;" vertex="1" parent="1">
          <mxGeometry x="150" y="4170" width="600" height="500" as="geometry" />
        </mxCell>
        <mxCell id="VNWk7h2PgLa32eGh_eu3-68" value="스프링 부트" style="text;html=1;align=center;verticalAlign=middle;resizable=0;points=[];autosize=1;strokeColor=none;fillColor=none;fontSize=29;" vertex="1" parent="1">
          <mxGeometry x="360" y="4120" width="180" height="50" as="geometry" />
        </mxCell>
        <mxCell id="VNWk7h2PgLa32eGh_eu3-69" value="" style="rounded=1;whiteSpace=wrap;html=1;" vertex="1" parent="1">
          <mxGeometry x="260" y="4265" width="370" height="310" as="geometry" />
        </mxCell>
        <mxCell id="VNWk7h2PgLa32eGh_eu3-70" value="html&lt;div&gt;부트 스트랩 or Tailwind CSS&lt;/div&gt;" style="text;html=1;align=center;verticalAlign=middle;resizable=0;points=[];autosize=1;strokeColor=none;fillColor=none;fontSize=29;" vertex="1" parent="1">
          <mxGeometry x="255" y="4380" width="390" height="80" as="geometry" />
        </mxCell>
        <mxCell id="VNWk7h2PgLa32eGh_eu3-71" value="리엑트 프레임?" style="text;html=1;align=center;verticalAlign=middle;resizable=0;points=[];autosize=1;strokeColor=none;fillColor=none;fontSize=29;" vertex="1" parent="1">
          <mxGeometry x="335" y="4215" width="220" height="50" as="geometry" />
        </mxCell>
        <mxCell id="VNWk7h2PgLa32eGh_eu3-72" value="" style="rounded=1;whiteSpace=wrap;html=1;" vertex="1" parent="1">
          <mxGeometry x="890" y="4170" width="600" height="500" as="geometry" />
        </mxCell>
        <mxCell id="VNWk7h2PgLa32eGh_eu3-73" value="파이썬" style="text;html=1;align=center;verticalAlign=middle;resizable=0;points=[];autosize=1;strokeColor=none;fillColor=none;fontSize=29;" vertex="1" parent="1">
          <mxGeometry x="1116" y="4280" width="110" height="50" as="geometry" />
        </mxCell>
        <mxCell id="VNWk7h2PgLa32eGh_eu3-74" value="Qwen, FastSpeech2" style="text;html=1;align=center;verticalAlign=middle;resizable=0;points=[];autosize=1;strokeColor=none;fillColor=none;fontSize=29;" vertex="1" parent="1">
          <mxGeometry x="1060" y="4380" width="290" height="50" as="geometry" />
        </mxCell>
        <mxCell id="VNWk7h2PgLa32eGh_eu3-75" value="" style="rounded=1;whiteSpace=wrap;html=1;" vertex="1" parent="1">
          <mxGeometry x="1300" y="5467" width="780" height="733" as="geometry" />
        </mxCell>
        <mxCell id="VNWk7h2PgLa32eGh_eu3-76" value="" style="rounded=1;whiteSpace=wrap;html=1;" vertex="1" parent="1">
          <mxGeometry x="1490" y="5054" width="500" height="406" as="geometry" />
        </mxCell>
        <mxCell id="VNWk7h2PgLa32eGh_eu3-77" value="" style="edgeStyle=orthogonalEdgeStyle;rounded=0;orthogonalLoop=1;jettySize=auto;html=1;" edge="1" parent="1" source="VNWk7h2PgLa32eGh_eu3-78" target="VNWk7h2PgLa32eGh_eu3-161">
          <mxGeometry relative="1" as="geometry" />
        </mxCell>
        <mxCell id="VNWk7h2PgLa32eGh_eu3-78" value="이야기 생성" style="rounded=1;whiteSpace=wrap;html=1;" vertex="1" parent="1">
          <mxGeometry x="1520" y="4890" width="440" height="40" as="geometry" />
        </mxCell>
        <mxCell id="VNWk7h2PgLa32eGh_eu3-79" style="edgeStyle=orthogonalEdgeStyle;rounded=0;orthogonalLoop=1;jettySize=auto;html=1;exitX=0.5;exitY=1;exitDx=0;exitDy=0;entryX=0.5;entryY=0;entryDx=0;entryDy=0;" edge="1" parent="1" source="VNWk7h2PgLa32eGh_eu3-81" target="VNWk7h2PgLa32eGh_eu3-164">
          <mxGeometry relative="1" as="geometry" />
        </mxCell>
        <mxCell id="VNWk7h2PgLa32eGh_eu3-80" value="" style="edgeStyle=orthogonalEdgeStyle;rounded=0;orthogonalLoop=1;jettySize=auto;html=1;dashed=1;" edge="1" parent="1" source="VNWk7h2PgLa32eGh_eu3-81" target="VNWk7h2PgLa32eGh_eu3-185">
          <mxGeometry relative="1" as="geometry" />
        </mxCell>
        <mxCell id="VNWk7h2PgLa32eGh_eu3-81" value="일관적인 이미지 생성" style="rounded=1;whiteSpace=wrap;html=1;" vertex="1" parent="1">
          <mxGeometry x="1680" y="5480" width="120" height="40" as="geometry" />
        </mxCell>
        <mxCell id="VNWk7h2PgLa32eGh_eu3-82" value="이야기 공유" style="rounded=1;whiteSpace=wrap;html=1;" vertex="1" parent="1">
          <mxGeometry x="1680" y="6080" width="120" height="40" as="geometry" />
        </mxCell>
        <mxCell id="VNWk7h2PgLa32eGh_eu3-83" style="edgeStyle=orthogonalEdgeStyle;rounded=0;orthogonalLoop=1;jettySize=auto;html=1;exitX=0.5;exitY=1;exitDx=0;exitDy=0;entryX=0.5;entryY=0;entryDx=0;entryDy=0;dashed=1;" edge="1" parent="1" source="VNWk7h2PgLa32eGh_eu3-85" target="VNWk7h2PgLa32eGh_eu3-82">
          <mxGeometry relative="1" as="geometry" />
        </mxCell>
        <mxCell id="VNWk7h2PgLa32eGh_eu3-84" value="" style="edgeStyle=orthogonalEdgeStyle;rounded=0;orthogonalLoop=1;jettySize=auto;html=1;" edge="1" parent="1" source="VNWk7h2PgLa32eGh_eu3-85" target="VNWk7h2PgLa32eGh_eu3-186">
          <mxGeometry relative="1" as="geometry" />
        </mxCell>
        <mxCell id="VNWk7h2PgLa32eGh_eu3-85" value="이야기 보기" style="rounded=1;whiteSpace=wrap;html=1;" vertex="1" parent="1">
          <mxGeometry x="1680" y="5970" width="120" height="40" as="geometry" />
        </mxCell>
        <mxCell id="VNWk7h2PgLa32eGh_eu3-86" value="" style="edgeStyle=orthogonalEdgeStyle;rounded=0;orthogonalLoop=1;jettySize=auto;html=1;" edge="1" parent="1" source="VNWk7h2PgLa32eGh_eu3-87" target="VNWk7h2PgLa32eGh_eu3-153">
          <mxGeometry relative="1" as="geometry" />
        </mxCell>
        <mxCell id="VNWk7h2PgLa32eGh_eu3-87" value="직접 작성 선택" style="rounded=1;whiteSpace=wrap;html=1;" vertex="1" parent="1">
          <mxGeometry x="1520" y="5150" width="120" height="40" as="geometry" />
        </mxCell>
        <mxCell id="VNWk7h2PgLa32eGh_eu3-88" value="" style="edgeStyle=orthogonalEdgeStyle;rounded=0;orthogonalLoop=1;jettySize=auto;html=1;" edge="1" parent="1" source="VNWk7h2PgLa32eGh_eu3-215" target="VNWk7h2PgLa32eGh_eu3-91">
          <mxGeometry relative="1" as="geometry" />
        </mxCell>
        <mxCell id="VNWk7h2PgLa32eGh_eu3-89" value="AI 도움 작성 선택" style="rounded=1;whiteSpace=wrap;html=1;" vertex="1" parent="1">
          <mxGeometry x="1840.64" y="5151.5" width="120" height="38.5" as="geometry" />
        </mxCell>
        <mxCell id="VNWk7h2PgLa32eGh_eu3-90" style="edgeStyle=orthogonalEdgeStyle;rounded=0;orthogonalLoop=1;jettySize=auto;html=1;exitX=0.5;exitY=1;exitDx=0;exitDy=0;entryX=1;entryY=0.5;entryDx=0;entryDy=0;" edge="1" parent="1" source="VNWk7h2PgLa32eGh_eu3-91" target="VNWk7h2PgLa32eGh_eu3-198">
          <mxGeometry relative="1" as="geometry" />
        </mxCell>
        <mxCell id="VNWk7h2PgLa32eGh_eu3-91" value="AI 도움 작성" style="rounded=1;whiteSpace=wrap;html=1;" vertex="1" parent="1">
          <mxGeometry x="1840.6399999999999" y="5291.5" width="120" height="40" as="geometry" />
        </mxCell>
        <mxCell id="VNWk7h2PgLa32eGh_eu3-92" value="&lt;font style=&quot;font-size: 20px;&quot;&gt;&lt;b style=&quot;&quot;&gt;USER&lt;/b&gt;&lt;/font&gt;" style="rounded=1;whiteSpace=wrap;html=1;" vertex="1" parent="1">
          <mxGeometry x="90" y="4820" width="1870" height="40" as="geometry" />
        </mxCell>
        <mxCell id="VNWk7h2PgLa32eGh_eu3-93" style="edgeStyle=orthogonalEdgeStyle;rounded=0;orthogonalLoop=1;jettySize=auto;html=1;exitX=0.5;exitY=1;exitDx=0;exitDy=0;entryX=0.5;entryY=0;entryDx=0;entryDy=0;" edge="1" parent="1" source="VNWk7h2PgLa32eGh_eu3-96" target="VNWk7h2PgLa32eGh_eu3-98">
          <mxGeometry relative="1" as="geometry" />
        </mxCell>
        <mxCell id="VNWk7h2PgLa32eGh_eu3-94" style="edgeStyle=orthogonalEdgeStyle;rounded=0;orthogonalLoop=1;jettySize=auto;html=1;exitX=0.5;exitY=1;exitDx=0;exitDy=0;entryX=0.5;entryY=0;entryDx=0;entryDy=0;" edge="1" parent="1" source="VNWk7h2PgLa32eGh_eu3-96" target="VNWk7h2PgLa32eGh_eu3-120">
          <mxGeometry relative="1" as="geometry" />
        </mxCell>
        <mxCell id="VNWk7h2PgLa32eGh_eu3-95" style="edgeStyle=orthogonalEdgeStyle;rounded=0;orthogonalLoop=1;jettySize=auto;html=1;exitX=0.5;exitY=1;exitDx=0;exitDy=0;" edge="1" parent="1" source="VNWk7h2PgLa32eGh_eu3-96" target="VNWk7h2PgLa32eGh_eu3-122">
          <mxGeometry relative="1" as="geometry" />
        </mxCell>
        <mxCell id="VNWk7h2PgLa32eGh_eu3-96" value="이야기 목록 조회" style="rounded=1;whiteSpace=wrap;html=1;" vertex="1" parent="1">
          <mxGeometry x="90" y="4890" width="540" height="40" as="geometry" />
        </mxCell>
        <mxCell id="VNWk7h2PgLa32eGh_eu3-97" style="edgeStyle=orthogonalEdgeStyle;rounded=0;orthogonalLoop=1;jettySize=auto;html=1;exitX=0.5;exitY=1;exitDx=0;exitDy=0;fontSize=12;startSize=8;endSize=8;entryX=0;entryY=0.5;entryDx=0;entryDy=0;" edge="1" parent="1" source="VNWk7h2PgLa32eGh_eu3-98" target="VNWk7h2PgLa32eGh_eu3-100">
          <mxGeometry relative="1" as="geometry">
            <mxPoint x="172.5" y="5100" as="targetPoint" />
          </mxGeometry>
        </mxCell>
        <mxCell id="VNWk7h2PgLa32eGh_eu3-98" value="카테고리 선택&lt;br&gt;(연령, 카테고리)" style="rounded=1;whiteSpace=wrap;html=1;" vertex="1" parent="1">
          <mxGeometry x="112.5" y="4990" width="120" height="40" as="geometry" />
        </mxCell>
        <mxCell id="VNWk7h2PgLa32eGh_eu3-99" style="edgeStyle=orthogonalEdgeStyle;rounded=0;orthogonalLoop=1;jettySize=auto;html=1;exitX=1;exitY=0.5;exitDx=0;exitDy=0;entryX=0;entryY=0.5;entryDx=0;entryDy=0;" edge="1" parent="1" source="VNWk7h2PgLa32eGh_eu3-100" target="VNWk7h2PgLa32eGh_eu3-120">
          <mxGeometry relative="1" as="geometry">
            <Array as="points">
              <mxPoint x="452" y="5090" />
              <mxPoint x="452" y="5010" />
            </Array>
          </mxGeometry>
        </mxCell>
        <mxCell id="VNWk7h2PgLa32eGh_eu3-100" value="분류 결과" style="rounded=1;whiteSpace=wrap;html=1;" vertex="1" parent="1">
          <mxGeometry x="300" y="5070" width="120" height="40" as="geometry" />
        </mxCell>
        <mxCell id="VNWk7h2PgLa32eGh_eu3-101" style="edgeStyle=orthogonalEdgeStyle;rounded=0;orthogonalLoop=1;jettySize=auto;html=1;exitX=0.5;exitY=1;exitDx=0;exitDy=0;entryX=0;entryY=0.5;entryDx=0;entryDy=0;dashed=1;" edge="1" parent="1" source="VNWk7h2PgLa32eGh_eu3-102" target="VNWk7h2PgLa32eGh_eu3-131">
          <mxGeometry relative="1" as="geometry" />
        </mxCell>
        <mxCell id="VNWk7h2PgLa32eGh_eu3-102" value="읽기" style="rounded=1;whiteSpace=wrap;html=1;" vertex="1" parent="1">
          <mxGeometry x="610" y="5190" width="60" height="40" as="geometry" />
        </mxCell>
        <mxCell id="VNWk7h2PgLa32eGh_eu3-103" value="TTS 듣기" style="rounded=1;whiteSpace=wrap;html=1;" vertex="1" parent="1">
          <mxGeometry x="710" y="5190" width="60" height="40" as="geometry" />
        </mxCell>
        <mxCell id="VNWk7h2PgLa32eGh_eu3-104" value="" style="edgeStyle=orthogonalEdgeStyle;rounded=0;orthogonalLoop=1;jettySize=auto;html=1;" edge="1" parent="1" source="VNWk7h2PgLa32eGh_eu3-107" target="VNWk7h2PgLa32eGh_eu3-112">
          <mxGeometry relative="1" as="geometry" />
        </mxCell>
        <mxCell id="VNWk7h2PgLa32eGh_eu3-105" style="edgeStyle=orthogonalEdgeStyle;rounded=0;orthogonalLoop=1;jettySize=auto;html=1;entryX=0.5;entryY=0;entryDx=0;entryDy=0;" edge="1" parent="1" source="VNWk7h2PgLa32eGh_eu3-107" target="VNWk7h2PgLa32eGh_eu3-129">
          <mxGeometry relative="1" as="geometry" />
        </mxCell>
        <mxCell id="VNWk7h2PgLa32eGh_eu3-106" style="edgeStyle=orthogonalEdgeStyle;rounded=0;orthogonalLoop=1;jettySize=auto;html=1;exitX=0.5;exitY=1;exitDx=0;exitDy=0;entryX=0.5;entryY=0;entryDx=0;entryDy=0;" edge="1" parent="1" source="VNWk7h2PgLa32eGh_eu3-107" target="VNWk7h2PgLa32eGh_eu3-110">
          <mxGeometry relative="1" as="geometry" />
        </mxCell>
        <mxCell id="VNWk7h2PgLa32eGh_eu3-107" value="내 서재 확인" style="rounded=1;whiteSpace=wrap;html=1;" vertex="1" parent="1">
          <mxGeometry x="700" y="4890" width="720" height="40" as="geometry" />
        </mxCell>
        <mxCell id="VNWk7h2PgLa32eGh_eu3-108" value="" style="edgeStyle=orthogonalEdgeStyle;rounded=0;orthogonalLoop=1;jettySize=auto;html=1;dashed=1;" edge="1" parent="1" source="VNWk7h2PgLa32eGh_eu3-110" target="VNWk7h2PgLa32eGh_eu3-114">
          <mxGeometry relative="1" as="geometry" />
        </mxCell>
        <mxCell id="VNWk7h2PgLa32eGh_eu3-109" style="edgeStyle=orthogonalEdgeStyle;rounded=0;orthogonalLoop=1;jettySize=auto;html=1;exitX=0;exitY=0.5;exitDx=0;exitDy=0;entryX=0;entryY=0.5;entryDx=0;entryDy=0;" edge="1" parent="1" source="VNWk7h2PgLa32eGh_eu3-110" target="VNWk7h2PgLa32eGh_eu3-189">
          <mxGeometry relative="1" as="geometry">
            <Array as="points">
              <mxPoint x="950" y="5000" />
              <mxPoint x="950" y="5274" />
            </Array>
          </mxGeometry>
        </mxCell>
        <mxCell id="VNWk7h2PgLa32eGh_eu3-110" value="내 이야기&amp;nbsp;&lt;div&gt;목록 조회&lt;/div&gt;" style="rounded=1;whiteSpace=wrap;html=1;" vertex="1" parent="1">
          <mxGeometry x="1000" y="4980" width="120" height="40" as="geometry" />
        </mxCell>
        <mxCell id="VNWk7h2PgLa32eGh_eu3-111" value="" style="edgeStyle=orthogonalEdgeStyle;rounded=0;orthogonalLoop=1;jettySize=auto;html=1;" edge="1" parent="1" source="VNWk7h2PgLa32eGh_eu3-112" target="VNWk7h2PgLa32eGh_eu3-201">
          <mxGeometry relative="1" as="geometry" />
        </mxCell>
        <mxCell id="VNWk7h2PgLa32eGh_eu3-112" value="내 목소리 학습" style="rounded=1;whiteSpace=wrap;html=1;" vertex="1" parent="1">
          <mxGeometry x="1237.5" y="4980" width="120" height="40" as="geometry" />
        </mxCell>
        <mxCell id="VNWk7h2PgLa32eGh_eu3-113" value="" style="edgeStyle=orthogonalEdgeStyle;rounded=0;orthogonalLoop=1;jettySize=auto;html=1;" edge="1" parent="1" source="VNWk7h2PgLa32eGh_eu3-114" target="VNWk7h2PgLa32eGh_eu3-189">
          <mxGeometry relative="1" as="geometry" />
        </mxCell>
        <mxCell id="VNWk7h2PgLa32eGh_eu3-114" value="이야기 검색&lt;div&gt;(제목, 카테고리 검색)&lt;/div&gt;" style="rounded=1;whiteSpace=wrap;html=1;" vertex="1" parent="1">
          <mxGeometry x="1000" y="5190" width="119" height="40" as="geometry" />
        </mxCell>
        <mxCell id="VNWk7h2PgLa32eGh_eu3-115" value="" style="edgeStyle=orthogonalEdgeStyle;rounded=0;orthogonalLoop=1;jettySize=auto;html=1;" edge="1" parent="1" source="VNWk7h2PgLa32eGh_eu3-117" target="VNWk7h2PgLa32eGh_eu3-146">
          <mxGeometry relative="1" as="geometry" />
        </mxCell>
        <mxCell id="VNWk7h2PgLa32eGh_eu3-116" style="edgeStyle=orthogonalEdgeStyle;rounded=0;orthogonalLoop=1;jettySize=auto;html=1;exitX=0.5;exitY=1;exitDx=0;exitDy=0;entryX=0;entryY=0.5;entryDx=0;entryDy=0;" edge="1" parent="1" source="VNWk7h2PgLa32eGh_eu3-117" target="VNWk7h2PgLa32eGh_eu3-148">
          <mxGeometry relative="1" as="geometry" />
        </mxCell>
        <mxCell id="VNWk7h2PgLa32eGh_eu3-117" value="이어서 작성&lt;div&gt;or&lt;div&gt;이야기 수정&lt;/div&gt;&lt;/div&gt;" style="rounded=1;whiteSpace=wrap;html=1;" vertex="1" parent="1">
          <mxGeometry x="1000" y="5400" width="120" height="60" as="geometry" />
        </mxCell>
        <mxCell id="VNWk7h2PgLa32eGh_eu3-118" value="이야기 삭제" style="rounded=1;whiteSpace=wrap;html=1;" vertex="1" parent="1">
          <mxGeometry x="1180" y="5400" width="120" height="40" as="geometry" />
        </mxCell>
        <mxCell id="VNWk7h2PgLa32eGh_eu3-119" value="" style="edgeStyle=orthogonalEdgeStyle;rounded=0;orthogonalLoop=1;jettySize=auto;html=1;" edge="1" parent="1" source="VNWk7h2PgLa32eGh_eu3-120" target="VNWk7h2PgLa32eGh_eu3-127">
          <mxGeometry relative="1" as="geometry" />
        </mxCell>
        <mxCell id="VNWk7h2PgLa32eGh_eu3-120" value="이야기 상세 조회" style="rounded=1;whiteSpace=wrap;html=1;" vertex="1" parent="1">
          <mxGeometry x="510" y="4990" width="120" height="40" as="geometry" />
        </mxCell>
        <mxCell id="VNWk7h2PgLa32eGh_eu3-121" value="" style="edgeStyle=orthogonalEdgeStyle;rounded=0;orthogonalLoop=1;jettySize=auto;html=1;" edge="1" parent="1" source="VNWk7h2PgLa32eGh_eu3-122" target="VNWk7h2PgLa32eGh_eu3-100">
          <mxGeometry relative="1" as="geometry" />
        </mxCell>
        <mxCell id="VNWk7h2PgLa32eGh_eu3-122" value="검색" style="rounded=1;whiteSpace=wrap;html=1;" vertex="1" parent="1">
          <mxGeometry x="300" y="4990" width="120" height="40" as="geometry" />
        </mxCell>
        <mxCell id="VNWk7h2PgLa32eGh_eu3-123" value="" style="edgeStyle=orthogonalEdgeStyle;rounded=0;orthogonalLoop=1;jettySize=auto;html=1;" edge="1" parent="1" source="VNWk7h2PgLa32eGh_eu3-127" target="VNWk7h2PgLa32eGh_eu3-133">
          <mxGeometry relative="1" as="geometry" />
        </mxCell>
        <mxCell id="VNWk7h2PgLa32eGh_eu3-124" value="1" style="edgeLabel;html=1;align=center;verticalAlign=middle;resizable=0;points=[];" vertex="1" connectable="0" parent="VNWk7h2PgLa32eGh_eu3-123">
          <mxGeometry x="0.0473" y="-1" relative="1" as="geometry">
            <mxPoint as="offset" />
          </mxGeometry>
        </mxCell>
        <mxCell id="VNWk7h2PgLa32eGh_eu3-125" style="edgeStyle=orthogonalEdgeStyle;rounded=0;orthogonalLoop=1;jettySize=auto;html=1;exitX=0.5;exitY=1;exitDx=0;exitDy=0;entryX=0.5;entryY=0;entryDx=0;entryDy=0;" edge="1" parent="1" source="VNWk7h2PgLa32eGh_eu3-127" target="VNWk7h2PgLa32eGh_eu3-103">
          <mxGeometry relative="1" as="geometry" />
        </mxCell>
        <mxCell id="VNWk7h2PgLa32eGh_eu3-126" value="2" style="edgeLabel;html=1;align=center;verticalAlign=middle;resizable=0;points=[];" vertex="1" connectable="0" parent="VNWk7h2PgLa32eGh_eu3-125">
          <mxGeometry x="-0.7815" y="-1" relative="1" as="geometry">
            <mxPoint as="offset" />
          </mxGeometry>
        </mxCell>
        <mxCell id="VNWk7h2PgLa32eGh_eu3-127" value="이야기 미리&amp;nbsp;&lt;span style=&quot;background-color: transparent; color: light-dark(rgb(0, 0, 0), rgb(255, 255, 255));&quot;&gt;보기&lt;/span&gt;" style="rounded=1;whiteSpace=wrap;html=1;" vertex="1" parent="1">
          <mxGeometry x="510" y="5060" width="120" height="40" as="geometry" />
        </mxCell>
        <mxCell id="VNWk7h2PgLa32eGh_eu3-128" value="" style="edgeStyle=orthogonalEdgeStyle;rounded=0;orthogonalLoop=1;jettySize=auto;html=1;" edge="1" parent="1" source="VNWk7h2PgLa32eGh_eu3-129" target="VNWk7h2PgLa32eGh_eu3-133">
          <mxGeometry relative="1" as="geometry" />
        </mxCell>
        <mxCell id="VNWk7h2PgLa32eGh_eu3-129" value="최근 본" style="rounded=1;whiteSpace=wrap;html=1;" vertex="1" parent="1">
          <mxGeometry x="740" y="4980" width="120" height="40" as="geometry" />
        </mxCell>
        <mxCell id="VNWk7h2PgLa32eGh_eu3-130" value="이야기 결제" style="text;html=1;align=center;verticalAlign=middle;resizable=0;points=[];autosize=1;strokeColor=none;fillColor=none;" vertex="1" parent="1">
          <mxGeometry x="655" y="5320" width="90" height="30" as="geometry" />
        </mxCell>
        <mxCell id="VNWk7h2PgLa32eGh_eu3-131" value="결제" style="rounded=1;whiteSpace=wrap;html=1;" vertex="1" parent="1">
          <mxGeometry x="670" y="5270" width="60" height="40" as="geometry" />
        </mxCell>
        <mxCell id="VNWk7h2PgLa32eGh_eu3-132" style="edgeStyle=orthogonalEdgeStyle;rounded=0;orthogonalLoop=1;jettySize=auto;html=1;exitX=0.5;exitY=1;exitDx=0;exitDy=0;entryX=0.5;entryY=0;entryDx=0;entryDy=0;" edge="1" parent="1" source="VNWk7h2PgLa32eGh_eu3-133" target="VNWk7h2PgLa32eGh_eu3-102">
          <mxGeometry relative="1" as="geometry" />
        </mxCell>
        <mxCell id="VNWk7h2PgLa32eGh_eu3-133" value="이야기 이어&amp;nbsp;&lt;span style=&quot;background-color: transparent; color: light-dark(rgb(0, 0, 0), rgb(255, 255, 255));&quot;&gt;보기&lt;/span&gt;" style="rounded=1;whiteSpace=wrap;html=1;" vertex="1" parent="1">
          <mxGeometry x="740" y="5060" width="120" height="40" as="geometry" />
        </mxCell>
        <mxCell id="VNWk7h2PgLa32eGh_eu3-134" style="edgeStyle=orthogonalEdgeStyle;rounded=0;orthogonalLoop=1;jettySize=auto;html=1;entryX=0.5;entryY=0;entryDx=0;entryDy=0;" edge="1" parent="1" source="VNWk7h2PgLa32eGh_eu3-135" target="VNWk7h2PgLa32eGh_eu3-141">
          <mxGeometry relative="1" as="geometry" />
        </mxCell>
        <mxCell id="VNWk7h2PgLa32eGh_eu3-135" value="이야기 보기" style="rounded=1;whiteSpace=wrap;html=1;" vertex="1" parent="1">
          <mxGeometry x="818" y="5400" width="120" height="40" as="geometry" />
        </mxCell>
        <mxCell id="VNWk7h2PgLa32eGh_eu3-136" style="edgeStyle=orthogonalEdgeStyle;rounded=0;orthogonalLoop=1;jettySize=auto;html=1;exitX=1;exitY=0.5;exitDx=0;exitDy=0;entryX=0.5;entryY=0;entryDx=0;entryDy=0;" edge="1" parent="1" source="VNWk7h2PgLa32eGh_eu3-139" target="VNWk7h2PgLa32eGh_eu3-118">
          <mxGeometry relative="1" as="geometry" />
        </mxCell>
        <mxCell id="VNWk7h2PgLa32eGh_eu3-137" value="" style="edgeStyle=orthogonalEdgeStyle;rounded=0;orthogonalLoop=1;jettySize=auto;html=1;" edge="1" parent="1" source="VNWk7h2PgLa32eGh_eu3-139" target="VNWk7h2PgLa32eGh_eu3-117">
          <mxGeometry relative="1" as="geometry" />
        </mxCell>
        <mxCell id="VNWk7h2PgLa32eGh_eu3-138" style="edgeStyle=orthogonalEdgeStyle;rounded=0;orthogonalLoop=1;jettySize=auto;html=1;exitX=0;exitY=0.5;exitDx=0;exitDy=0;entryX=0.5;entryY=0;entryDx=0;entryDy=0;" edge="1" parent="1" source="VNWk7h2PgLa32eGh_eu3-139" target="VNWk7h2PgLa32eGh_eu3-135">
          <mxGeometry relative="1" as="geometry" />
        </mxCell>
        <mxCell id="VNWk7h2PgLa32eGh_eu3-139" value="이야기 상세 조회" style="rounded=1;whiteSpace=wrap;html=1;" vertex="1" parent="1">
          <mxGeometry x="1000" y="5320" width="120" height="40" as="geometry" />
        </mxCell>
        <mxCell id="VNWk7h2PgLa32eGh_eu3-140" value="" style="edgeStyle=orthogonalEdgeStyle;rounded=0;orthogonalLoop=1;jettySize=auto;html=1;dashed=1;" edge="1" parent="1" source="VNWk7h2PgLa32eGh_eu3-141" target="VNWk7h2PgLa32eGh_eu3-199">
          <mxGeometry relative="1" as="geometry" />
        </mxCell>
        <mxCell id="VNWk7h2PgLa32eGh_eu3-141" value="TTS 듣기" style="rounded=1;whiteSpace=wrap;html=1;" vertex="1" parent="1">
          <mxGeometry x="790" y="5508.5" width="60" height="40" as="geometry" />
        </mxCell>
        <mxCell id="VNWk7h2PgLa32eGh_eu3-142" value="읽기" style="rounded=1;whiteSpace=wrap;html=1;" vertex="1" parent="1">
          <mxGeometry x="900" y="5508.5" width="60" height="40" as="geometry" />
        </mxCell>
        <mxCell id="VNWk7h2PgLa32eGh_eu3-143" style="edgeStyle=orthogonalEdgeStyle;rounded=0;orthogonalLoop=1;jettySize=auto;html=1;exitX=0.5;exitY=1;exitDx=0;exitDy=0;entryX=0.593;entryY=0.075;entryDx=0;entryDy=0;entryPerimeter=0;" edge="1" parent="1" source="VNWk7h2PgLa32eGh_eu3-135" target="VNWk7h2PgLa32eGh_eu3-142">
          <mxGeometry relative="1" as="geometry" />
        </mxCell>
        <mxCell id="VNWk7h2PgLa32eGh_eu3-144" value="" style="endArrow=classic;startArrow=classic;html=1;rounded=0;exitX=1;exitY=0.5;exitDx=0;exitDy=0;" edge="1" parent="1" source="VNWk7h2PgLa32eGh_eu3-102">
          <mxGeometry width="50" height="50" relative="1" as="geometry">
            <mxPoint x="660" y="5250" as="sourcePoint" />
            <mxPoint x="710" y="5210" as="targetPoint" />
          </mxGeometry>
        </mxCell>
        <mxCell id="VNWk7h2PgLa32eGh_eu3-145" value="" style="endArrow=classic;startArrow=classic;html=1;rounded=0;exitX=1;exitY=0.5;exitDx=0;exitDy=0;entryX=0;entryY=0.5;entryDx=0;entryDy=0;" edge="1" parent="1">
          <mxGeometry width="50" height="50" relative="1" as="geometry">
            <mxPoint x="860" y="5528.1" as="sourcePoint" />
            <mxPoint x="900" y="5528.1" as="targetPoint" />
          </mxGeometry>
        </mxCell>
        <mxCell id="VNWk7h2PgLa32eGh_eu3-146" value="이미지 수정" style="rounded=1;whiteSpace=wrap;html=1;" vertex="1" parent="1">
          <mxGeometry x="916" y="5580" width="120" height="40" as="geometry" />
        </mxCell>
        <mxCell id="VNWk7h2PgLa32eGh_eu3-147" style="edgeStyle=orthogonalEdgeStyle;rounded=0;orthogonalLoop=1;jettySize=auto;html=1;exitX=0.5;exitY=0;exitDx=0;exitDy=0;entryX=1;entryY=0.5;entryDx=0;entryDy=0;" edge="1" parent="1" source="VNWk7h2PgLa32eGh_eu3-148" target="VNWk7h2PgLa32eGh_eu3-117">
          <mxGeometry relative="1" as="geometry" />
        </mxCell>
        <mxCell id="VNWk7h2PgLa32eGh_eu3-148" value="중간저장" style="rounded=1;whiteSpace=wrap;html=1;" vertex="1" parent="1">
          <mxGeometry x="1110" y="5470" width="60" height="20" as="geometry" />
        </mxCell>
        <mxCell id="VNWk7h2PgLa32eGh_eu3-149" style="edgeStyle=orthogonalEdgeStyle;rounded=0;orthogonalLoop=1;jettySize=auto;html=1;entryX=0.5;entryY=0;entryDx=0;entryDy=0;" edge="1" parent="1" source="VNWk7h2PgLa32eGh_eu3-151" target="VNWk7h2PgLa32eGh_eu3-87">
          <mxGeometry relative="1" as="geometry" />
        </mxCell>
        <mxCell id="VNWk7h2PgLa32eGh_eu3-150" style="edgeStyle=orthogonalEdgeStyle;rounded=0;orthogonalLoop=1;jettySize=auto;html=1;entryX=0.5;entryY=0;entryDx=0;entryDy=0;" edge="1" parent="1" source="VNWk7h2PgLa32eGh_eu3-151" target="VNWk7h2PgLa32eGh_eu3-89">
          <mxGeometry relative="1" as="geometry" />
        </mxCell>
        <mxCell id="VNWk7h2PgLa32eGh_eu3-151" value="닉네임" style="rounded=1;whiteSpace=wrap;html=1;" vertex="1" parent="1">
          <mxGeometry x="1680" y="5070" width="120" height="40" as="geometry" />
        </mxCell>
        <mxCell id="VNWk7h2PgLa32eGh_eu3-152" value="" style="edgeStyle=orthogonalEdgeStyle;rounded=0;orthogonalLoop=1;jettySize=auto;html=1;" edge="1" parent="1" source="VNWk7h2PgLa32eGh_eu3-153" target="VNWk7h2PgLa32eGh_eu3-159">
          <mxGeometry relative="1" as="geometry" />
        </mxCell>
        <mxCell id="VNWk7h2PgLa32eGh_eu3-153" value="이야기 제목 작성" style="rounded=1;whiteSpace=wrap;html=1;" vertex="1" parent="1">
          <mxGeometry x="1520" y="5221.5" width="120" height="40" as="geometry" />
        </mxCell>
        <mxCell id="VNWk7h2PgLa32eGh_eu3-154" style="edgeStyle=orthogonalEdgeStyle;rounded=0;orthogonalLoop=1;jettySize=auto;html=1;exitX=0.5;exitY=0;exitDx=0;exitDy=0;" edge="1" parent="1" source="VNWk7h2PgLa32eGh_eu3-156">
          <mxGeometry relative="1" as="geometry">
            <mxPoint x="1120" y="5000" as="targetPoint" />
            <Array as="points">
              <mxPoint x="1740" y="5130" />
              <mxPoint x="1180" y="5130" />
              <mxPoint x="1180" y="5000" />
              <mxPoint x="1120" y="5000" />
            </Array>
          </mxGeometry>
        </mxCell>
        <mxCell id="VNWk7h2PgLa32eGh_eu3-155" value="" style="edgeStyle=orthogonalEdgeStyle;rounded=0;orthogonalLoop=1;jettySize=auto;html=1;" edge="1" parent="1" source="VNWk7h2PgLa32eGh_eu3-156" target="VNWk7h2PgLa32eGh_eu3-91">
          <mxGeometry relative="1" as="geometry" />
        </mxCell>
        <mxCell id="VNWk7h2PgLa32eGh_eu3-156" value="중간저장" style="rounded=1;whiteSpace=wrap;html=1;" vertex="1" parent="1">
          <mxGeometry x="1704.68" y="5291.5" width="70.64" height="40" as="geometry" />
        </mxCell>
        <mxCell id="VNWk7h2PgLa32eGh_eu3-157" value="" style="edgeStyle=orthogonalEdgeStyle;rounded=0;orthogonalLoop=1;jettySize=auto;html=1;dashed=1;" edge="1" parent="1" source="VNWk7h2PgLa32eGh_eu3-159" target="VNWk7h2PgLa32eGh_eu3-156">
          <mxGeometry relative="1" as="geometry" />
        </mxCell>
        <mxCell id="VNWk7h2PgLa32eGh_eu3-158" style="edgeStyle=orthogonalEdgeStyle;rounded=0;orthogonalLoop=1;jettySize=auto;html=1;exitX=0.5;exitY=1;exitDx=0;exitDy=0;entryX=0;entryY=0.5;entryDx=0;entryDy=0;" edge="1" parent="1" source="VNWk7h2PgLa32eGh_eu3-159" target="VNWk7h2PgLa32eGh_eu3-198">
          <mxGeometry relative="1" as="geometry" />
        </mxCell>
        <mxCell id="VNWk7h2PgLa32eGh_eu3-159" value="이야기 작성" style="rounded=1;whiteSpace=wrap;html=1;" vertex="1" parent="1">
          <mxGeometry x="1520" y="5291.5" width="120" height="40" as="geometry" />
        </mxCell>
        <mxCell id="VNWk7h2PgLa32eGh_eu3-160" value="" style="edgeStyle=orthogonalEdgeStyle;rounded=0;orthogonalLoop=1;jettySize=auto;html=1;" edge="1" parent="1" source="VNWk7h2PgLa32eGh_eu3-161" target="VNWk7h2PgLa32eGh_eu3-151">
          <mxGeometry relative="1" as="geometry" />
        </mxCell>
        <mxCell id="VNWk7h2PgLa32eGh_eu3-161" value="장르, 연령대 선택" style="rounded=1;whiteSpace=wrap;html=1;" vertex="1" parent="1">
          <mxGeometry x="1680" y="4980" width="120" height="40" as="geometry" />
        </mxCell>
        <mxCell id="VNWk7h2PgLa32eGh_eu3-162" value="" style="edgeStyle=orthogonalEdgeStyle;rounded=0;orthogonalLoop=1;jettySize=auto;html=1;dashed=1;" edge="1" parent="1" source="VNWk7h2PgLa32eGh_eu3-164" target="VNWk7h2PgLa32eGh_eu3-166">
          <mxGeometry relative="1" as="geometry" />
        </mxCell>
        <mxCell id="VNWk7h2PgLa32eGh_eu3-163" style="edgeStyle=orthogonalEdgeStyle;rounded=0;orthogonalLoop=1;jettySize=auto;html=1;exitX=0.5;exitY=1;exitDx=0;exitDy=0;entryX=0.5;entryY=0;entryDx=0;entryDy=0;" edge="1" parent="1" source="VNWk7h2PgLa32eGh_eu3-164" target="VNWk7h2PgLa32eGh_eu3-168">
          <mxGeometry relative="1" as="geometry" />
        </mxCell>
        <mxCell id="VNWk7h2PgLa32eGh_eu3-164" value="이야기 연령대별&lt;div&gt;페이지 분할 + 검토&lt;/div&gt;" style="rounded=1;whiteSpace=wrap;html=1;" vertex="1" parent="1">
          <mxGeometry x="1599.36" y="5560" width="120" height="40" as="geometry" />
        </mxCell>
        <mxCell id="VNWk7h2PgLa32eGh_eu3-165" style="edgeStyle=orthogonalEdgeStyle;rounded=0;orthogonalLoop=1;jettySize=auto;html=1;exitX=0.5;exitY=1;exitDx=0;exitDy=0;entryX=0.5;entryY=0;entryDx=0;entryDy=0;" edge="1" parent="1" source="VNWk7h2PgLa32eGh_eu3-166" target="VNWk7h2PgLa32eGh_eu3-168">
          <mxGeometry relative="1" as="geometry" />
        </mxCell>
        <mxCell id="VNWk7h2PgLa32eGh_eu3-166" value="페이지별 이야기 수정" style="rounded=1;whiteSpace=wrap;html=1;" vertex="1" parent="1">
          <mxGeometry x="1759.9999999999998" y="5560" width="120" height="40" as="geometry" />
        </mxCell>
        <mxCell id="VNWk7h2PgLa32eGh_eu3-167" style="edgeStyle=orthogonalEdgeStyle;rounded=0;orthogonalLoop=1;jettySize=auto;html=1;exitX=0;exitY=0.5;exitDx=0;exitDy=0;entryX=0.5;entryY=0;entryDx=0;entryDy=0;" edge="1" parent="1" source="VNWk7h2PgLa32eGh_eu3-168" target="VNWk7h2PgLa32eGh_eu3-171">
          <mxGeometry relative="1" as="geometry" />
        </mxCell>
        <mxCell id="VNWk7h2PgLa32eGh_eu3-168" value="페이지별 이미지 생성" style="rounded=1;whiteSpace=wrap;html=1;" vertex="1" parent="1">
          <mxGeometry x="1679.9999999999998" y="5650" width="120" height="40" as="geometry" />
        </mxCell>
        <mxCell id="VNWk7h2PgLa32eGh_eu3-169" value="" style="edgeStyle=orthogonalEdgeStyle;rounded=0;orthogonalLoop=1;jettySize=auto;html=1;dashed=1;" edge="1" parent="1" source="VNWk7h2PgLa32eGh_eu3-171" target="VNWk7h2PgLa32eGh_eu3-174">
          <mxGeometry relative="1" as="geometry" />
        </mxCell>
        <mxCell id="VNWk7h2PgLa32eGh_eu3-170" style="edgeStyle=orthogonalEdgeStyle;rounded=0;orthogonalLoop=1;jettySize=auto;html=1;exitX=0;exitY=0.5;exitDx=0;exitDy=0;entryX=0;entryY=0.5;entryDx=0;entryDy=0;" edge="1" parent="1" source="VNWk7h2PgLa32eGh_eu3-171" target="VNWk7h2PgLa32eGh_eu3-176">
          <mxGeometry relative="1" as="geometry" />
        </mxCell>
        <mxCell id="VNWk7h2PgLa32eGh_eu3-171" value="페이지별 이미지 검토" style="rounded=1;whiteSpace=wrap;html=1;" vertex="1" parent="1">
          <mxGeometry x="1600" y="5720" width="120" height="40" as="geometry" />
        </mxCell>
        <mxCell id="VNWk7h2PgLa32eGh_eu3-172" style="edgeStyle=orthogonalEdgeStyle;rounded=0;orthogonalLoop=1;jettySize=auto;html=1;exitX=0.5;exitY=1;exitDx=0;exitDy=0;entryX=0.5;entryY=0;entryDx=0;entryDy=0;dashed=1;" edge="1" parent="1" source="VNWk7h2PgLa32eGh_eu3-174" target="VNWk7h2PgLa32eGh_eu3-180">
          <mxGeometry relative="1" as="geometry" />
        </mxCell>
        <mxCell id="VNWk7h2PgLa32eGh_eu3-173" style="edgeStyle=orthogonalEdgeStyle;rounded=0;orthogonalLoop=1;jettySize=auto;html=1;exitX=1;exitY=0.5;exitDx=0;exitDy=0;entryX=1;entryY=0.5;entryDx=0;entryDy=0;" edge="1" parent="1" source="VNWk7h2PgLa32eGh_eu3-174" target="VNWk7h2PgLa32eGh_eu3-176">
          <mxGeometry relative="1" as="geometry" />
        </mxCell>
        <mxCell id="VNWk7h2PgLa32eGh_eu3-174" value="페이지별 이미지 수정" style="rounded=1;whiteSpace=wrap;html=1;" vertex="1" parent="1">
          <mxGeometry x="1760" y="5720" width="120" height="40" as="geometry" />
        </mxCell>
        <mxCell id="VNWk7h2PgLa32eGh_eu3-175" style="edgeStyle=orthogonalEdgeStyle;rounded=0;orthogonalLoop=1;jettySize=auto;html=1;exitX=0.5;exitY=1;exitDx=0;exitDy=0;entryX=0.5;entryY=0;entryDx=0;entryDy=0;" edge="1" parent="1" source="VNWk7h2PgLa32eGh_eu3-176" target="VNWk7h2PgLa32eGh_eu3-85">
          <mxGeometry relative="1" as="geometry" />
        </mxCell>
        <mxCell id="VNWk7h2PgLa32eGh_eu3-176" value="이야기 완성" style="rounded=1;whiteSpace=wrap;html=1;" vertex="1" parent="1">
          <mxGeometry x="1680" y="5850" width="120" height="40" as="geometry" />
        </mxCell>
        <mxCell id="VNWk7h2PgLa32eGh_eu3-177" value="재생성 모두 소모시 결제" style="text;html=1;align=center;verticalAlign=middle;resizable=0;points=[];autosize=1;strokeColor=none;fillColor=none;" vertex="1" parent="1">
          <mxGeometry x="1322" y="5865" width="150" height="30" as="geometry" />
        </mxCell>
        <mxCell id="VNWk7h2PgLa32eGh_eu3-178" style="edgeStyle=orthogonalEdgeStyle;rounded=0;orthogonalLoop=1;jettySize=auto;html=1;exitX=1;exitY=0.5;exitDx=0;exitDy=0;entryX=0;entryY=0.5;entryDx=0;entryDy=0;" edge="1" parent="1" source="VNWk7h2PgLa32eGh_eu3-75" target="VNWk7h2PgLa32eGh_eu3-164">
          <mxGeometry relative="1" as="geometry">
            <Array as="points">
              <mxPoint x="1470" y="5580" />
            </Array>
          </mxGeometry>
        </mxCell>
        <mxCell id="VNWk7h2PgLa32eGh_eu3-179" style="edgeStyle=orthogonalEdgeStyle;rounded=0;orthogonalLoop=1;jettySize=auto;html=1;exitX=1;exitY=0.5;exitDx=0;exitDy=0;entryX=0.5;entryY=1;entryDx=0;entryDy=0;" edge="1" parent="1" source="VNWk7h2PgLa32eGh_eu3-180" target="VNWk7h2PgLa32eGh_eu3-171">
          <mxGeometry relative="1" as="geometry" />
        </mxCell>
        <mxCell id="VNWk7h2PgLa32eGh_eu3-180" value="결제" style="rounded=1;whiteSpace=wrap;html=1;" vertex="1" parent="1">
          <mxGeometry x="1367" y="5820" width="60" height="40" as="geometry" />
        </mxCell>
        <mxCell id="VNWk7h2PgLa32eGh_eu3-181" value="이미지 재생성 가능 횟수 : 3회" style="text;html=1;align=center;verticalAlign=middle;resizable=0;points=[];autosize=1;strokeColor=none;fillColor=none;" vertex="1" parent="1">
          <mxGeometry x="1300" y="5760" width="180" height="30" as="geometry" />
        </mxCell>
        <mxCell id="VNWk7h2PgLa32eGh_eu3-182" value="이야기 생성하고 공유할때 tts도 작가가 내 이야기에 어울리는 tts 선택할 수 있게 한 후에 공유?" style="text;html=1;align=center;verticalAlign=middle;resizable=0;points=[];autosize=1;strokeColor=none;fillColor=none;" vertex="1" parent="1">
          <mxGeometry x="1520" y="5918" width="520" height="30" as="geometry" />
        </mxCell>
        <mxCell id="VNWk7h2PgLa32eGh_eu3-183" style="edgeStyle=orthogonalEdgeStyle;rounded=0;orthogonalLoop=1;jettySize=auto;html=1;exitX=0.5;exitY=1;exitDx=0;exitDy=0;entryX=0;entryY=0.5;entryDx=0;entryDy=0;" edge="1" parent="1" source="VNWk7h2PgLa32eGh_eu3-185" target="VNWk7h2PgLa32eGh_eu3-164">
          <mxGeometry relative="1" as="geometry" />
        </mxCell>
        <mxCell id="VNWk7h2PgLa32eGh_eu3-184" style="edgeStyle=orthogonalEdgeStyle;rounded=0;orthogonalLoop=1;jettySize=auto;html=1;exitX=0;exitY=0.5;exitDx=0;exitDy=0;dashed=1;" edge="1" parent="1" source="VNWk7h2PgLa32eGh_eu3-185" target="VNWk7h2PgLa32eGh_eu3-180">
          <mxGeometry relative="1" as="geometry" />
        </mxCell>
        <mxCell id="VNWk7h2PgLa32eGh_eu3-185" value="이미지 수정" style="rounded=1;whiteSpace=wrap;html=1;" vertex="1" parent="1">
          <mxGeometry x="1460" y="5480" width="120" height="40" as="geometry" />
        </mxCell>
        <mxCell id="VNWk7h2PgLa32eGh_eu3-186" value="내 이야기&amp;nbsp;&lt;div&gt;목록 조회&lt;/div&gt;" style="rounded=1;whiteSpace=wrap;html=1;" vertex="1" parent="1">
          <mxGeometry x="1440" y="5970" width="120" height="40" as="geometry" />
        </mxCell>
        <mxCell id="VNWk7h2PgLa32eGh_eu3-187" value="내 서재 확인 업무" style="text;html=1;align=center;verticalAlign=middle;resizable=0;points=[];autosize=1;strokeColor=none;fillColor=none;" vertex="1" parent="1">
          <mxGeometry x="1440" y="6018" width="120" height="30" as="geometry" />
        </mxCell>
        <mxCell id="VNWk7h2PgLa32eGh_eu3-188" value="" style="edgeStyle=orthogonalEdgeStyle;rounded=0;orthogonalLoop=1;jettySize=auto;html=1;" edge="1" parent="1" source="VNWk7h2PgLa32eGh_eu3-189" target="VNWk7h2PgLa32eGh_eu3-139">
          <mxGeometry relative="1" as="geometry" />
        </mxCell>
        <mxCell id="VNWk7h2PgLa32eGh_eu3-189" value="이야기 선택" style="rounded=1;whiteSpace=wrap;html=1;" vertex="1" parent="1">
          <mxGeometry x="1000" y="5253.5" width="119" height="40" as="geometry" />
        </mxCell>
        <mxCell id="VNWk7h2PgLa32eGh_eu3-190" value="&lt;span style=&quot;font-size: 20px;&quot;&gt;중간 저장하면&lt;/span&gt;&lt;div&gt;&lt;span style=&quot;font-size: 20px;&quot;&gt;그 자리에서 대기&lt;/span&gt;&lt;/div&gt;&lt;div&gt;&lt;span style=&quot;font-size: 20px;&quot;&gt;이어서 작성 or ai 도움 작성&lt;/span&gt;&lt;/div&gt;&lt;div&gt;&lt;span style=&quot;font-size: 20px;&quot;&gt;변경 가능&lt;/span&gt;&lt;/div&gt;&lt;div&gt;&lt;span style=&quot;font-size: 20px;&quot;&gt;&lt;br&gt;&lt;/span&gt;&lt;/div&gt;" style="text;html=1;align=center;verticalAlign=middle;resizable=0;points=[];autosize=1;strokeColor=none;fillColor=none;" vertex="1" parent="1">
          <mxGeometry x="2030" y="5100" width="260" height="130" as="geometry" />
        </mxCell>
        <mxCell id="VNWk7h2PgLa32eGh_eu3-191" value="#생성 완료 or 생성중" style="text;html=1;align=center;verticalAlign=middle;resizable=0;points=[];autosize=1;strokeColor=none;fillColor=none;" vertex="1" parent="1">
          <mxGeometry x="989" y="5030" width="130" height="30" as="geometry" />
        </mxCell>
        <mxCell id="VNWk7h2PgLa32eGh_eu3-192" value="이미 생성했던 일관적인 이미지 도 저장되어 있어야 함&lt;div&gt;이 일관적인 이미지도 수정 가능해야 함&lt;/div&gt;&lt;div&gt;&lt;br&gt;&lt;/div&gt;" style="text;html=1;align=center;verticalAlign=middle;resizable=0;points=[];autosize=1;strokeColor=none;fillColor=none;" vertex="1" parent="1">
          <mxGeometry x="905" y="5640" width="310" height="60" as="geometry" />
        </mxCell>
        <mxCell id="VNWk7h2PgLa32eGh_eu3-193" value="중간 저장 -:&amp;gt; 내 이야기 -&amp;gt; 이야기 선택 -&amp;gt; 이어서 작성/ 이야기 수정" style="text;html=1;align=center;verticalAlign=middle;resizable=0;points=[];autosize=1;strokeColor=none;fillColor=none;" vertex="1" parent="1">
          <mxGeometry x="1990" y="5301.5" width="380" height="30" as="geometry" />
        </mxCell>
        <mxCell id="VNWk7h2PgLa32eGh_eu3-194" value="일관적인 이미지 생성&lt;div&gt;(#중간저장)&lt;/div&gt;" style="rounded=1;whiteSpace=wrap;html=1;" vertex="1" parent="1">
          <mxGeometry x="1080" y="5580" width="120" height="40" as="geometry" />
        </mxCell>
        <mxCell id="VNWk7h2PgLa32eGh_eu3-195" style="edgeStyle=orthogonalEdgeStyle;rounded=0;orthogonalLoop=1;jettySize=auto;html=1;exitX=0.5;exitY=1;exitDx=0;exitDy=0;entryX=0.55;entryY=-0.03;entryDx=0;entryDy=0;entryPerimeter=0;" edge="1" parent="1" source="VNWk7h2PgLa32eGh_eu3-117" target="VNWk7h2PgLa32eGh_eu3-194">
          <mxGeometry relative="1" as="geometry" />
        </mxCell>
        <mxCell id="VNWk7h2PgLa32eGh_eu3-196" value="이야기 생성?" style="rounded=1;whiteSpace=wrap;html=1;" vertex="1" parent="1">
          <mxGeometry x="999" y="5508.5" width="120" height="40" as="geometry" />
        </mxCell>
        <mxCell id="VNWk7h2PgLa32eGh_eu3-197" value="" style="edgeStyle=orthogonalEdgeStyle;rounded=0;orthogonalLoop=1;jettySize=auto;html=1;" edge="1" parent="1" source="VNWk7h2PgLa32eGh_eu3-198" target="VNWk7h2PgLa32eGh_eu3-81">
          <mxGeometry relative="1" as="geometry" />
        </mxCell>
        <mxCell id="VNWk7h2PgLa32eGh_eu3-198" value="&lt;div&gt;장르, 연령대 검토 후&lt;/div&gt;이야기 생성" style="rounded=1;whiteSpace=wrap;html=1;" vertex="1" parent="1">
          <mxGeometry x="1680" y="5400" width="120" height="40" as="geometry" />
        </mxCell>
        <mxCell id="VNWk7h2PgLa32eGh_eu3-199" value="내 목소리 학습" style="rounded=1;whiteSpace=wrap;html=1;" vertex="1" parent="1">
          <mxGeometry x="760" y="5580" width="120" height="40" as="geometry" />
        </mxCell>
        <mxCell id="VNWk7h2PgLa32eGh_eu3-200" style="edgeStyle=orthogonalEdgeStyle;rounded=0;orthogonalLoop=1;jettySize=auto;html=1;exitX=1;exitY=0.5;exitDx=0;exitDy=0;entryX=1;entryY=0.5;entryDx=0;entryDy=0;" edge="1" parent="1" source="VNWk7h2PgLa32eGh_eu3-201" target="VNWk7h2PgLa32eGh_eu3-203">
          <mxGeometry relative="1" as="geometry" />
        </mxCell>
        <mxCell id="VNWk7h2PgLa32eGh_eu3-201" value="텍스트 읽기&lt;div&gt;음성 파일 업로드&lt;/div&gt;" style="rounded=1;whiteSpace=wrap;html=1;" vertex="1" parent="1">
          <mxGeometry x="1237.5" y="5060" width="120" height="40" as="geometry" />
        </mxCell>
        <mxCell id="VNWk7h2PgLa32eGh_eu3-202" style="edgeStyle=orthogonalEdgeStyle;rounded=0;orthogonalLoop=1;jettySize=auto;html=1;exitX=0.5;exitY=0;exitDx=0;exitDy=0;" edge="1" parent="1" source="VNWk7h2PgLa32eGh_eu3-203">
          <mxGeometry relative="1" as="geometry">
            <mxPoint x="1297.1999999999998" y="5130" as="targetPoint" />
          </mxGeometry>
        </mxCell>
        <mxCell id="VNWk7h2PgLa32eGh_eu3-203" value="학습 완료" style="rounded=1;whiteSpace=wrap;html=1;" vertex="1" parent="1">
          <mxGeometry x="1237.5" y="5199" width="120" height="40" as="geometry" />
        </mxCell>
        <mxCell id="VNWk7h2PgLa32eGh_eu3-204" value="학습된 목소리로 이야기를 체험해보세요" style="text;html=1;align=center;verticalAlign=middle;resizable=0;points=[];autosize=1;strokeColor=none;fillColor=none;" vertex="1" parent="1">
          <mxGeometry x="1192.5" y="5169" width="240" height="30" as="geometry" />
        </mxCell>
        <mxCell id="VNWk7h2PgLa32eGh_eu3-205" value="# 미리보기용 읽기 + TTS&lt;div&gt;# TTS도 읽기 미리보기 제공까지만 가능해야함&lt;/div&gt;" style="text;html=1;align=center;verticalAlign=middle;resizable=0;points=[];autosize=1;strokeColor=none;fillColor=none;" vertex="1" parent="1">
          <mxGeometry x="375" y="5230" width="270" height="40" as="geometry" />
        </mxCell>
        <mxCell id="VNWk7h2PgLa32eGh_eu3-206" value="판타지, 동화, 로맨스&lt;div&gt;인기순&lt;/div&gt;&lt;div&gt;추천순&lt;/div&gt;&lt;div&gt;연령&lt;/div&gt;" style="text;html=1;align=center;verticalAlign=middle;resizable=0;points=[];autosize=1;strokeColor=none;fillColor=none;" vertex="1" parent="1">
          <mxGeometry x="40" y="5041.5" width="130" height="70" as="geometry" />
        </mxCell>
        <mxCell id="VNWk7h2PgLa32eGh_eu3-207" value="2P 부터 블러처리" style="text;html=1;align=center;verticalAlign=middle;resizable=0;points=[];autosize=1;strokeColor=none;fillColor=none;" vertex="1" parent="1">
          <mxGeometry x="440" y="5100" width="120" height="30" as="geometry" />
        </mxCell>
        <mxCell id="VNWk7h2PgLa32eGh_eu3-208" value="걍 수익성 추가해 본 것" style="text;html=1;align=center;verticalAlign=middle;resizable=0;points=[];autosize=1;strokeColor=none;fillColor=none;" vertex="1" parent="1">
          <mxGeometry x="610" y="5030" width="140" height="30" as="geometry" />
        </mxCell>
        <mxCell id="VNWk7h2PgLa32eGh_eu3-209" value="목소리 학습은 결제 필요" style="text;html=1;align=center;verticalAlign=middle;resizable=0;points=[];autosize=1;strokeColor=none;fillColor=none;" vertex="1" parent="1">
          <mxGeometry x="1330" y="5030" width="150" height="30" as="geometry" />
        </mxCell>
        <mxCell id="VNWk7h2PgLa32eGh_eu3-210" value="서론, 본론만 사용자가 작성하고 결론을 ai 보고 도와달라&amp;nbsp;&lt;div&gt;ai와 협업이 가능한 시스템이&amp;nbsp;&lt;/div&gt;&lt;div&gt;+ 포인트가 됨&lt;/div&gt;" style="text;html=1;align=center;verticalAlign=middle;resizable=0;points=[];autosize=1;strokeColor=none;fillColor=none;" vertex="1" parent="1">
          <mxGeometry x="2015" y="5227" width="330" height="60" as="geometry" />
        </mxCell>
        <mxCell id="VNWk7h2PgLa32eGh_eu3-211" value="글 생성" style="text;html=1;align=center;verticalAlign=middle;resizable=0;points=[];autosize=1;strokeColor=none;fillColor=none;" vertex="1" parent="1">
          <mxGeometry x="1543.43" y="5024" width="60" height="30" as="geometry" />
        </mxCell>
        <mxCell id="VNWk7h2PgLa32eGh_eu3-212" value="" style="edgeStyle=orthogonalEdgeStyle;rounded=0;orthogonalLoop=1;jettySize=auto;html=1;exitX=1;exitY=0.5;exitDx=0;exitDy=0;entryX=0;entryY=0.5;entryDx=0;entryDy=0;" edge="1" parent="1" source="VNWk7h2PgLa32eGh_eu3-180" target="VNWk7h2PgLa32eGh_eu3-75">
          <mxGeometry relative="1" as="geometry">
            <Array as="points">
              <mxPoint x="1470" y="5840" />
            </Array>
            <mxPoint x="1427" y="5840" as="sourcePoint" />
            <mxPoint x="1599" y="5580" as="targetPoint" />
          </mxGeometry>
        </mxCell>
        <mxCell id="VNWk7h2PgLa32eGh_eu3-213" value="태그를 먼저 선택 하면 DB 저장 수월함&lt;div&gt;&lt;br&gt;&lt;/div&gt;&lt;div&gt;글 전부 작성하고 내 글은 무슨 장르인지, 연령&lt;/div&gt;" style="text;html=1;align=center;verticalAlign=middle;resizable=0;points=[];autosize=1;strokeColor=none;fillColor=none;" vertex="1" parent="1">
          <mxGeometry x="1935" y="4933" width="270" height="60" as="geometry" />
        </mxCell>
        <mxCell id="VNWk7h2PgLa32eGh_eu3-214" value="" style="edgeStyle=orthogonalEdgeStyle;rounded=0;orthogonalLoop=1;jettySize=auto;html=1;" edge="1" parent="1" source="VNWk7h2PgLa32eGh_eu3-89" target="VNWk7h2PgLa32eGh_eu3-215">
          <mxGeometry relative="1" as="geometry">
            <mxPoint x="1901" y="5190" as="sourcePoint" />
            <mxPoint x="1901" y="5400" as="targetPoint" />
          </mxGeometry>
        </mxCell>
        <mxCell id="VNWk7h2PgLa32eGh_eu3-215" value="주제 입력/태그 선택" style="rounded=1;whiteSpace=wrap;html=1;" vertex="1" parent="1">
          <mxGeometry x="1840" y="5223" width="120" height="38.5" as="geometry" />
        </mxCell>
      </root>
    </mxGraphModel>
  </diagram>
</mxfile>
